<svg xmlns="http://www.w3.org/2000/svg" fill="none" viewBox="0 0 60 20"><path fill="#000" d="M20 18.79 1.22 0 0 1.21l2.81 2.809A9.476 9.476 0 0 0 .848 9.781c0 5.238 4.285 9.524 9.523 9.524a9.417 9.417 0 0 0 5.762-1.962L18.791 20 20 18.79zm-9.629-1.39a7.617 7.617 0 0 1-7.619-7.619c0-1.648.534-3.162 1.429-4.4l10.59 10.59a7.41 7.41 0 0 1-4.4 1.429zM6.724 3.086l-1.381-1.4A9.59 9.59 0 0 1 10.37.257c5.239 0 9.524 4.286 9.524 9.524a9.59 9.59 0 0 1-1.428 5.028l-1.4-1.38a7.598 7.598 0 0 0 .924-3.648c0-4.21-3.41-7.62-7.62-7.62a7.597 7.597 0 0 0-3.647.925zm29.253 2.187V14h-1.022l-4.756-6.852h-.085V14h-1.057V5.273h1.023l4.772 6.869h.086v-6.87h1.04zm7.842 0h1.057v5.778c0 .597-.14 1.13-.422 1.598a2.953 2.953 0 0 1-1.18 1.104c-.509.267-1.105.4-1.79.4s-1.281-.133-1.79-.4a2.983 2.983 0 0 1-1.184-1.104 3.069 3.069 0 0 1-.418-1.598V5.273h1.057v5.693c0 .426.093.805.281 1.138.188.33.455.59.801.78.35.187.767.28 1.253.28.486 0 .903-.093 1.253-.28.35-.19.616-.45.801-.78.188-.333.281-.712.281-1.138V5.273zM46.986 14V5.273h1.057v7.79H52.1V14h-5.114zm6.75 0V5.273h1.057v7.79h4.057V14h-5.114z"/></svg>