<svg xmlns="http://www.w3.org/2000/svg" fill="none" viewBox="0 0 20 22"><path fill="#2478FF" fill-rule="evenodd" d="M6.679 20.831 2.393 18.02C1.22 17.251.633 16.865.317 16.301 0 15.737 0 15.073 0 13.751V8.658c0-.422 0-.776.01-1.082l8.561 5.614V22c-.51-.262-1.104-.652-1.892-1.169zM11.429 22c.51-.263 1.104-.653 1.892-1.17l4.286-2.811c1.173-.769 1.76-1.154 2.076-1.718.317-.564.317-1.227.317-2.55V8.657c0-.423 0-.777-.01-1.082l-8.561 5.615V22v-.001zM18.754 5.16 10 10.904 1.246 5.163c.303-.22.678-.467 1.147-.774l4.286-2.811C8.283.526 9.086 0 10 0c.914 0 1.717.525 3.321 1.578l4.286 2.81c.47.308.844.553 1.147.773z" clip-rule="evenodd"/></svg>