<svg xmlns="http://www.w3.org/2000/svg" fill="none" viewBox="0 0 24 24"><mask id="a" width="24" height="24" x="0" y="0" maskUnits="userSpaceOnUse" style="mask-type:alpha"><path fill="#D9D9D9" d="M0 0H24V24H0z"/></mask><g mask="url(#a)"><path fill="#007BFF" d="M12.05 19.75c-2.163 0-4.004-.753-5.522-2.258C5.009 15.987 4.25 14.156 4.25 12v-.78L2.4 13.07l-1.054-1.055L5 8.362l3.654 3.653L7.6 13.07l-1.85-1.85V12c0 1.737.612 3.213 1.835 4.428 1.223 1.215 2.711 1.822 4.465 1.822a5.926 5.926 0 0 0 2.452-.542l1.125 1.125a7.769 7.769 0 0 1-1.743.685c-.6.155-1.21.232-1.834.232zM19 15.638l-3.654-3.653L16.4 10.93l1.85 1.85V12c0-1.737-.611-3.213-1.835-4.428-1.223-1.215-2.711-1.822-4.465-1.822a5.925 5.925 0 0 0-2.452.542L8.373 5.167a7.764 7.764 0 0 1 1.743-.685c.6-.155 1.211-.232 1.834-.232 2.163 0 4.004.753 5.522 2.258C18.991 8.013 19.75 9.844 19.75 12v.78l1.85-1.85 1.054 1.055L19 15.638z"/></g></svg>