<svg xmlns="http://www.w3.org/2000/svg" fill="none" viewBox="0 0 74 117"><g clip-path="url(#a)"><rect width="72.945" height="158.104" x=".918" y=".919" fill="#F2F1F6" rx="5.089"/><path fill="#F2F1F6" d="M.918.919h72.945v158.104H.918z"/><path stroke="#000" stroke-width=".179" d="M62.27 4.062h2.904a.59.59 0 0 1 .589.59v.847a.59.59 0 0 1-.59.59H62.27a.59.59 0 0 1-.59-.59v-.848a.59.59 0 0 1 .59-.589z" opacity=".35"/><path fill="#000" d="M66.022 4.821v.716a.388.388 0 0 0 0-.716" opacity=".4"/><path fill="#000" d="M61.932 4.65a.34.34 0 0 1 .34-.338h2.9a.34.34 0 0 1 .34.339v.848a.34.34 0 0 1-.34.34h-2.9a.34.34 0 0 1-.34-.34v-.848z"/><path fill="#000" fill-rule="evenodd" d="M58.95 4.582c.42 0 .825.164 1.13.458a.058.058 0 0 0 .082 0l.219-.226a.062.062 0 0 0 0-.087 2.044 2.044 0 0 0-2.861 0 .062.062 0 0 0-.001.087l.22.225a.056.056 0 0 0 .082 0 1.629 1.629 0 0 1 1.13-.457zm.006.692a.92.92 0 0 1 .625.245c.023.022.06.022.082-.001l.22-.225a.063.063 0 0 0 0-.088 1.343 1.343 0 0 0-1.852 0 .063.063 0 0 0 0 .088l.218.225a.058.058 0 0 0 .083 0 .923.923 0 0 1 .624-.244zm.445.453a.061.061 0 0 1-.017.045l-.38.388a.059.059 0 0 1-.083 0l-.38-.388a.06.06 0 0 1 .003-.088.641.641 0 0 1 .838 0 .06.06 0 0 1 .02.043z" clip-rule="evenodd"/><path fill="#000" d="M54.774 4.652a.17.17 0 0 1 .17-.17h.171a.17.17 0 0 1 .17.17v1.357a.17.17 0 0 1-.17.17h-.17a.17.17 0 0 1-.17-.17V4.652zm.852-.34a.17.17 0 0 1 .17-.17h.171a.17.17 0 0 1 .17.17V6.01a.17.17 0 0 1-.17.17h-.17a.17.17 0 0 1-.17-.17V4.312zm-1.704.933a.17.17 0 0 1 .17-.17h.17a.17.17 0 0 1 .171.17v.764a.17.17 0 0 1-.17.17h-.17a.17.17 0 0 1-.171-.17v-.764zm-.852.425a.17.17 0 0 1 .17-.17h.17a.17.17 0 0 1 .171.17v.339a.17.17 0 0 1-.17.17h-.17a.17.17 0 0 1-.171-.17v-.34z"/><rect width="15.85" height="4.071" x="29.55" y="3.124" fill="#000" rx="2.036"/><path fill="#000" d="M10.724 5.785V5.54l.667-.681c.276-.28.354-.382.354-.538v-.005c0-.187-.129-.322-.34-.322-.215 0-.36.142-.36.352l-.002.006-.338-.002-.001-.004c0-.379.296-.643.72-.643.395 0 .68.24.68.582v.005c0 .23-.112.414-.482.77l-.407.394v.03h.92v.301h-1.411zM12.73 4.47a.22.22 0 0 1-.224-.223c0-.125.096-.222.224-.222.13 0 .224.097.224.222a.219.219 0 0 1-.224.223zm0 1.044a.219.219 0 0 1-.224-.222.22.22 0 0 1 .224-.223c.13 0 .224.098.224.223a.218.218 0 0 1-.224.222zm1.115.272V4.111h-.024l-.505.358v-.343l.53-.373h.362v2.032h-.363zm1.594.041c-.445 0-.737-.242-.763-.59l-.002-.017h.347l.001.016c.02.171.179.294.417.294.235 0 .391-.131.391-.32v-.003c0-.214-.157-.332-.418-.332h-.24v-.27h.233c.224 0 .373-.127.373-.304v-.003c0-.186-.125-.296-.342-.296-.214 0-.362.114-.38.296l-.002.014h-.338l.002-.016c.03-.352.308-.583.718-.583.418 0 .69.219.69.537v.003c0 .252-.182.42-.425.47v.007c.298.028.497.206.497.487v.003c0 .358-.309.607-.76.607z"/><path fill="#007BFF" d="M5.71 14.088a.15.15 0 0 1 .046-.11l1.314-1.285a.147.147 0 0 1 .108-.043c.086 0 .152.065.152.15 0 .042-.018.08-.044.109l-1.207 1.18 1.207 1.179a.156.156 0 0 1 .044.107.149.149 0 0 1-.152.151.143.143 0 0 1-.108-.045l-1.314-1.284a.149.149 0 0 1-.046-.109zm4.377 1.196v-2.39h.906c.41 0 .686.238.686.596v.003c0 .247-.186.487-.432.522v.007c.344.04.553.271.553.588v.003c0 .421-.302.671-.81.671h-.903zm.838-2.127h-.54v.767h.447c.353 0 .546-.14.546-.4v-.002c0-.236-.164-.365-.453-.365zm-.008 1.024h-.532v.84h.56c.358 0 .548-.144.548-.42v-.003c0-.276-.195-.417-.576-.417zm1.68 1.136c-.343 0-.573-.207-.573-.52v-.003c0-.293.228-.477.624-.5l.494-.029v-.144c0-.21-.138-.338-.378-.338-.222 0-.361.106-.394.26l-.003.015h-.279l.002-.018c.025-.283.272-.512.678-.512.407 0 .662.22.662.565v1.191h-.288v-.28h-.007a.61.61 0 0 1-.538.313zm-.278-.52c0 .166.135.27.342.27.272 0 .48-.187.48-.437v-.141l-.46.028c-.23.013-.362.116-.362.277v.003zm2.191.52c-.488 0-.798-.348-.798-.896v-.002c0-.543.316-.89.795-.89.429 0 .683.284.719.579l.002.013h-.282l-.003-.013c-.043-.172-.183-.325-.436-.325-.3 0-.5.249-.5.64v.001c0 .401.205.638.503.638.236 0 .386-.132.434-.324l.004-.014h.283l-.002.012c-.046.328-.33.581-.719.581zm1.01-.033v-2.39h.287v1.428h.007l.756-.76h.349l-.747.743.77.98h-.334l-.64-.804-.16.154v.65h-.289z"/><path fill="#000" d="M32.79 14.2a.244.244 0 0 0-.098-.181.393.393 0 0 0-.239-.065.454.454 0 0 0-.172.03.243.243 0 0 0-.108.077.188.188 0 0 0-.037.114.162.162 0 0 0 .023.093c.016.026.04.049.068.068a.52.52 0 0 0 .1.05c.038.013.079.024.122.034l.177.042c.086.02.165.045.237.078a.72.72 0 0 1 .187.118.493.493 0 0 1 .168.385c0 .12-.032.225-.093.314a.587.587 0 0 1-.262.205c-.114.048-.25.072-.411.072-.16 0-.299-.024-.417-.073a.61.61 0 0 1-.275-.217.649.649 0 0 1-.104-.357h.404a.303.303 0 0 0 .057.165c.034.044.08.077.136.1a.539.539 0 0 0 .194.032c.07 0 .132-.01.184-.03a.284.284 0 0 0 .122-.086.198.198 0 0 0 .044-.126.164.164 0 0 0-.04-.112.3.3 0 0 0-.114-.077c-.05-.021-.11-.04-.182-.058l-.215-.054a.9.9 0 0 1-.394-.19.44.44 0 0 1-.144-.348c0-.12.032-.224.096-.313a.644.644 0 0 1 .267-.21.942.942 0 0 1 .385-.075.91.91 0 0 1 .384.076c.11.05.195.12.256.209.061.09.093.193.095.31h-.4zm1.511 1.435a.791.791 0 0 1-.393-.092.633.633 0 0 1-.252-.264.873.873 0 0 1-.09-.406c0-.152.03-.286.09-.401a.655.655 0 0 1 .25-.269.728.728 0 0 1 .379-.096.76.76 0 0 1 .273.047.604.604 0 0 1 .37.375.934.934 0 0 1 .053.33v.112h-1.25v-.254h.863a.315.315 0 0 0-.038-.157.276.276 0 0 0-.107-.107.305.305 0 0 0-.157-.04.315.315 0 0 0-.278.158.323.323 0 0 0-.041.16v.241c0 .074.013.137.04.19a.296.296 0 0 0 .117.123c.05.03.11.044.178.044a.39.39 0 0 0 .125-.02.252.252 0 0 0 .16-.152l.38.025a.52.52 0 0 1-.12.24.597.597 0 0 1-.229.157.866.866 0 0 1-.323.056zm1.87-1.509v.308h-.89v-.308h.89zm-.688-.355h.41v1.38c0 .038.006.068.018.09.011.02.027.034.048.043a.2.2 0 0 0 .073.012.353.353 0 0 0 .102-.013l.065.305a.824.824 0 0 1-.087.022.694.694 0 0 1-.136.017.625.625 0 0 1-.26-.04.363.363 0 0 1-.172-.14.43.43 0 0 1-.061-.241V13.77zm1.88.355v.308h-.892v-.308h.892zm-.69-.355h.411v1.38c0 .038.006.068.017.09.012.02.028.034.049.043a.2.2 0 0 0 .073.012.353.353 0 0 0 .102-.013l.065.305a.894.894 0 0 1-.087.022.692.692 0 0 1-.136.017.625.625 0 0 1-.26-.04.363.363 0 0 1-.173-.14.43.43 0 0 1-.06-.241V13.77zm1.093 1.835v-1.48h.41v1.48h-.41zm.206-1.67a.223.223 0 0 1-.157-.062.197.197 0 0 1 0-.293.221.221 0 0 1 .157-.061c.061 0 .113.02.156.061a.196.196 0 0 1 0 .293.22.22 0 0 1-.156.061zm1.08.815v.855h-.411v-1.48h.391v.261h.018a.413.413 0 0 1 .165-.204.5.5 0 0 1 .28-.076c.103 0 .192.022.269.067.076.045.136.11.178.193a.645.645 0 0 1 .064.297v.942h-.41v-.869a.297.297 0 0 0-.07-.212.25.25 0 0 0-.194-.077.295.295 0 0 0-.146.035.248.248 0 0 0-.099.105.36.36 0 0 0-.035.163zm2.08 1.441a.95.95 0 0 1-.342-.055.568.568 0 0 1-.226-.147.454.454 0 0 1-.108-.21l.38-.051a.249.249 0 0 0 .154.144.425.425 0 0 0 .152.025.35.35 0 0 0 .22-.066c.059-.043.088-.115.088-.217v-.27h-.017a.39.39 0 0 1-.22.205.532.532 0 0 1-.202.035.553.553 0 0 1-.52-.315.913.913 0 0 1-.08-.407c0-.167.026-.307.081-.42a.59.59 0 0 1 .218-.252.563.563 0 0 1 .508-.042c.056.028.1.062.135.104a.558.558 0 0 1 .08.122h.015v-.249h.408v1.495c0 .126-.03.231-.093.316a.557.557 0 0 1-.256.19 1.013 1.013 0 0 1-.375.066zm.009-.915a.28.28 0 0 0 .168-.05.312.312 0 0 0 .106-.142.6.6 0 0 0 .037-.224.63.63 0 0 0-.036-.225.33.33 0 0 0-.106-.15.27.27 0 0 0-.17-.053.266.266 0 0 0-.17.055.33.33 0 0 0-.105.15.64.64 0 0 0-.035.223c0 .086.011.16.035.222a.33.33 0 0 0 .105.144c.047.033.103.05.17.05zm2.41-.729-.377.023a.195.195 0 0 0-.041-.086.22.22 0 0 0-.084-.063.285.285 0 0 0-.122-.024.302.302 0 0 0-.161.04c-.044.027-.066.062-.066.106 0 .036.014.066.043.09a.336.336 0 0 0 .145.059l.268.054c.144.03.251.077.322.142a.34.34 0 0 1 .106.259.403.403 0 0 1-.086.255.557.557 0 0 1-.233.172.888.888 0 0 1-.34.06c-.196 0-.352-.04-.469-.122a.477.477 0 0 1-.203-.335l.404-.022c.012.06.042.106.088.137.047.031.107.046.18.046s.13-.013.174-.041c.045-.028.067-.065.068-.109a.113.113 0 0 0-.048-.091.34.34 0 0 0-.142-.056l-.257-.051a.614.614 0 0 1-.322-.15.373.373 0 0 1-.106-.274c0-.095.026-.177.078-.245a.497.497 0 0 1 .218-.16.9.9 0 0 1 .332-.055c.187 0 .334.04.441.118.108.08.171.187.19.323z"/><rect width="63.784" height="13.402" x="5.159" y="18.9" fill="url(#b)" rx="1.696"/><path fill="#fff" d="M22.685 22.592a.732.732 0 0 0-.096-.21.648.648 0 0 0-.353-.255.854.854 0 0 0-.249-.034.8.8 0 0 0-.449.127.831.831 0 0 0-.3.37c-.07.16-.107.356-.107.588 0 .232.036.43.106.592.07.163.17.287.3.372.129.085.28.127.457.127a.91.91 0 0 0 .408-.084.607.607 0 0 0 .26-.243.72.72 0 0 0 .091-.369l.143.021h-.858v-.53h1.393v.42c0 .292-.061.544-.185.754-.124.21-.294.371-.51.485-.218.113-.466.17-.746.17-.312 0-.586-.07-.823-.207a1.433 1.433 0 0 1-.553-.59 1.973 1.973 0 0 1-.197-.912c0-.27.04-.51.118-.722a1.45 1.45 0 0 1 .828-.877c.188-.076.393-.115.613-.115.188 0 .364.028.527.083.162.054.307.131.432.231a1.249 1.249 0 0 1 .466.808h-.716zm2.401 2.303c-.257 0-.478-.052-.664-.156a1.07 1.07 0 0 1-.426-.445c-.1-.193-.15-.422-.15-.685 0-.257.05-.483.15-.677a1.1 1.1 0 0 1 .422-.453 1.22 1.22 0 0 1 .64-.163c.165 0 .319.026.46.08a1.02 1.02 0 0 1 .625.632c.06.159.09.344.09.556v.19h-2.11v-.429h1.457a.53.53 0 0 0-.065-.265.467.467 0 0 0-.18-.18.516.516 0 0 0-.265-.067.534.534 0 0 0-.28.073.513.513 0 0 0-.189.194.546.546 0 0 0-.07.268v.408c0 .124.023.23.069.32a.5.5 0 0 0 .197.21.593.593 0 0 0 .3.072.65.65 0 0 0 .212-.032.426.426 0 0 0 .268-.257l.641.042a.875.875 0 0 1-.2.403c-.1.114-.229.203-.387.267a1.46 1.46 0 0 1-.545.095zm2.928-2.547v.52h-1.505v-.52h1.505zm-1.163-.598h.693v2.329c0 .064.01.114.029.15.02.034.047.059.081.073a.335.335 0 0 0 .124.02.596.596 0 0 0 .098-.007l.074-.015.11.516c-.035.01-.084.023-.147.037a1.17 1.17 0 0 1-.23.028 1.052 1.052 0 0 1-.439-.067.613.613 0 0 1-.29-.237.726.726 0 0 1-.103-.407v-2.42zm2.674 4.034v-3.436h.683v.42h.031a.92.92 0 0 1 .132-.205.694.694 0 0 1 .228-.176.774.774 0 0 1 .351-.071c.182 0 .35.047.504.143a.987.987 0 0 1 .37.428c.092.19.138.427.138.714 0 .278-.045.514-.135.706-.09.19-.21.335-.365.434a.936.936 0 0 1-.514.146.801.801 0 0 1-.343-.066.71.71 0 0 1-.23-.168.85.85 0 0 1-.136-.206h-.02v1.337h-.694zm.678-2.186c0 .148.021.278.062.388.041.11.101.197.18.259a.45.45 0 0 0 .284.091c.113 0 .208-.03.286-.093a.577.577 0 0 0 .177-.26 1.11 1.11 0 0 0 .062-.386c0-.144-.02-.27-.06-.38a.568.568 0 0 0-.177-.257.45.45 0 0 0-.288-.093.457.457 0 0 0-.287.09.56.56 0 0 0-.177.253c-.041.11-.062.239-.062.387zm2.933 1.296c-.16 0-.301-.028-.426-.083a.686.686 0 0 1-.296-.249.746.746 0 0 1-.108-.413c0-.139.026-.256.077-.35a.62.62 0 0 1 .208-.227.992.992 0 0 1 .3-.13c.112-.03.23-.05.354-.062.145-.016.262-.03.351-.043a.499.499 0 0 0 .194-.061.136.136 0 0 0 .06-.12v-.01a.3.3 0 0 0-.098-.24.4.4 0 0 0-.273-.084.485.485 0 0 0-.297.083.381.381 0 0 0-.147.205l-.64-.052a.87.87 0 0 1 .191-.394.92.92 0 0 1 .37-.257 1.42 1.42 0 0 1 .526-.091 1.6 1.6 0 0 1 .399.049c.128.032.241.083.34.15a.734.734 0 0 1 .322.647v1.685h-.657V24.5h-.02a.704.704 0 0 1-.403.345 1.002 1.002 0 0 1-.327.049zm.198-.478c.102 0 .192-.02.27-.06a.478.478 0 0 0 .184-.166.427.427 0 0 0 .067-.236v-.265a.37.37 0 0 1-.09.039 1.577 1.577 0 0 1-.265.055l-.127.018a.857.857 0 0 0-.213.057.34.34 0 0 0-.141.105.258.258 0 0 0-.05.163.25.25 0 0 0 .102.216.44.44 0 0 0 .264.074zm1.746.43v-2.498h.672v.436h.026a.603.603 0 0 1 .6-.472 1.031 1.031 0 0 1 .218.025v.615a1.21 1.21 0 0 0-.293-.037.554.554 0 0 0-.273.066.49.49 0 0 0-.257.452v1.414h-.693zm1.875 0v-2.498h.693v2.499h-.693zm.348-2.82a.377.377 0 0 1-.265-.102.332.332 0 0 1 0-.495.373.373 0 0 1 .265-.104c.103 0 .19.035.263.104.074.069.11.15.11.246a.33.33 0 0 1-.11.249.37.37 0 0 1-.263.102zm1.593 1.376v1.445h-.693v-2.499h.66v.441h.03a.697.697 0 0 1 .277-.345.842.842 0 0 1 .474-.128c.173 0 .325.038.453.114.13.076.23.184.301.325.072.14.108.307.108.5v1.592h-.693V23.38a.502.502 0 0 0-.117-.358.42.42 0 0 0-.327-.13.497.497 0 0 0-.247.06.42.42 0 0 0-.166.175.608.608 0 0 0-.06.275zm3.281 2.434c-.224 0-.416-.031-.577-.093a.957.957 0 0 1-.38-.249.764.764 0 0 1-.184-.354l.64-.087a.42.42 0 0 0 .26.244c.071.027.157.04.258.04a.6.6 0 0 0 .372-.11c.099-.072.148-.194.148-.366v-.457h-.03a.658.658 0 0 1-.37.348.899.899 0 0 1-.342.059c-.187 0-.358-.044-.512-.13a.933.933 0 0 1-.366-.402c-.09-.181-.135-.41-.135-.686 0-.283.046-.52.138-.71a.994.994 0 0 1 .368-.426.95.95 0 0 1 .506-.141.78.78 0 0 1 .351.071c.094.047.17.106.228.176.058.07.103.138.135.205h.026v-.42h.688v2.523c0 .213-.052.39-.156.534a.94.94 0 0 1-.433.322 1.706 1.706 0 0 1-.633.109zm.015-1.546a.472.472 0 0 0 .283-.082.527.527 0 0 0 .179-.241 1.01 1.01 0 0 0 .063-.378c0-.146-.02-.273-.061-.38a.556.556 0 0 0-.18-.252.455.455 0 0 0-.284-.09.45.45 0 0 0-.288.093.557.557 0 0 0-.177.254c-.04.108-.06.233-.06.375 0 .145.02.27.06.375.041.104.1.184.177.242a.479.479 0 0 0 .288.084zm3.947.605a1.28 1.28 0 0 1-.66-.162 1.1 1.1 0 0 1-.423-.456 1.472 1.472 0 0 1-.146-.67c0-.256.049-.48.148-.673a1.1 1.1 0 0 1 .424-.454c.183-.11.401-.164.654-.164.218 0 .409.04.572.119.164.079.294.19.39.333a.98.98 0 0 1 .157.504h-.654a.505.505 0 0 0-.146-.3.419.419 0 0 0-.308-.116.465.465 0 0 0-.281.088.56.56 0 0 0-.185.252c-.045.11-.067.244-.067.401 0 .16.022.295.065.407a.564.564 0 0 0 .187.255c.08.06.174.088.281.088.08 0 .15-.016.213-.049a.412.412 0 0 0 .158-.141.543.543 0 0 0 .083-.226h.654c-.01.19-.063.359-.156.504a.943.943 0 0 1-.382.338 1.278 1.278 0 0 1-.578.122zm2.688 0a1.28 1.28 0 0 1-.655-.16 1.103 1.103 0 0 1-.425-.453c-.1-.194-.15-.419-.15-.675 0-.258.05-.483.15-.676.1-.195.242-.345.425-.453.184-.108.403-.162.655-.162.253 0 .471.054.654.163.185.107.327.258.426.452.1.193.15.418.15.676 0 .256-.05.481-.15.675a1.1 1.1 0 0 1-.426.453 1.272 1.272 0 0 1-.654.16zm.004-.536a.43.43 0 0 0 .287-.098.605.605 0 0 0 .175-.27c.04-.114.06-.243.06-.389 0-.145-.02-.274-.06-.388a.605.605 0 0 0-.175-.27.426.426 0 0 0-.287-.1.44.44 0 0 0-.293.1.61.61 0 0 0-.177.27 1.196 1.196 0 0 0-.059.388c0 .146.02.275.059.39a.62.62 0 0 0 .177.27.452.452 0 0 0 .293.097zm2.597.528a.944.944 0 0 1-.515-.146 1.016 1.016 0 0 1-.365-.434 1.674 1.674 0 0 1-.133-.706c0-.287.046-.524.138-.714a.941.941 0 0 1 .873-.57.76.76 0 0 1 .35.07c.095.047.17.106.228.176.059.07.103.138.133.205h.021v-1.252h.692v3.33h-.683v-.4h-.03a.896.896 0 0 1-.138.207.688.688 0 0 1-.23.168.79.79 0 0 1-.34.066zm.22-.551c.111 0 .206-.03.283-.091a.577.577 0 0 0 .179-.259c.042-.11.063-.24.063-.389 0-.148-.02-.277-.062-.387a.555.555 0 0 0-.179-.253.455.455 0 0 0-.284-.09.45.45 0 0 0-.288.093.567.567 0 0 0-.177.257c-.04.11-.06.236-.06.38 0 .146.02.274.06.386.04.11.1.197.177.26a.449.449 0 0 0 .288.093zm2.91.56a1.34 1.34 0 0 1-.664-.157 1.07 1.07 0 0 1-.426-.445c-.1-.193-.15-.422-.15-.685 0-.257.05-.483.15-.677.1-.194.24-.345.421-.453.183-.109.396-.163.641-.163.165 0 .319.026.46.08a1.022 1.022 0 0 1 .625.632c.06.159.09.344.09.556v.19h-2.11v-.429h1.458a.53.53 0 0 0-.066-.265.466.466 0 0 0-.18-.18.516.516 0 0 0-.265-.067.534.534 0 0 0-.28.073.513.513 0 0 0-.189.194.547.547 0 0 0-.07.268v.408c0 .124.023.23.069.32a.5.5 0 0 0 .197.21.593.593 0 0 0 .3.072.65.65 0 0 0 .212-.032.423.423 0 0 0 .268-.257l.641.042a.876.876 0 0 1-.2.403c-.1.114-.229.203-.387.267a1.46 1.46 0 0 1-.545.095zm-35.94 2.979a.303.303 0 0 0-.141-.227.54.54 0 0 0-.303-.081.575.575 0 0 0-.23.042.365.365 0 0 0-.151.117.28.28 0 0 0-.017.304.335.335 0 0 0 .098.094.71.71 0 0 0 .126.06c.043.016.084.028.12.038l.2.054c.052.013.11.032.172.056a.793.793 0 0 1 .182.097.45.45 0 0 1 .202.39.52.52 0 0 1-.084.29.57.57 0 0 1-.243.205.889.889 0 0 1-.386.076.904.904 0 0 1-.368-.068.544.544 0 0 1-.342-.475h.247a.308.308 0 0 0 .075.185c.045.048.1.084.168.108a.68.68 0 0 0 .22.034.646.646 0 0 0 .245-.044.422.422 0 0 0 .173-.125.297.297 0 0 0 .064-.19.231.231 0 0 0-.055-.16.403.403 0 0 0-.145-.1 1.52 1.52 0 0 0-.194-.067l-.243-.07a.903.903 0 0 1-.366-.19.417.417 0 0 1-.135-.322c0-.11.03-.207.09-.29a.595.595 0 0 1 .243-.192.82.82 0 0 1 .342-.07c.127 0 .24.023.34.069a.588.588 0 0 1 .234.185c.059.078.09.167.093.267h-.231zm.767 2.036a.5.5 0 0 1-.166-.027l.058-.2a.492.492 0 0 0 .146.015.176.176 0 0 0 .113-.057.454.454 0 0 0 .091-.163l.043-.116-.548-1.488h.247l.409 1.18h.015l.409-1.18h.247l-.629 1.696a.643.643 0 0 1-.105.19.394.394 0 0 1-.145.113.449.449 0 0 1-.185.037zm1.591-1.446v.89h-.227v-1.48h.22v.231h.019a.422.422 0 0 1 .158-.18.491.491 0 0 1 .274-.07c.1 0 .188.02.263.061.075.04.134.103.175.185a.687.687 0 0 1 .063.313v.94h-.227v-.925a.384.384 0 0 0-.091-.272.321.321 0 0 0-.249-.098.397.397 0 0 0-.194.047.338.338 0 0 0-.134.138.456.456 0 0 0-.05.22zm1.962.921a.641.641 0 0 1-.358-.098.64.64 0 0 1-.232-.27.918.918 0 0 1-.08-.395.91.91 0 0 1 .082-.398.627.627 0 0 1 .584-.37c.104 0 .198.02.282.058a.506.506 0 0 1 .305.405h-.228a.346.346 0 0 0-.355-.258.4.4 0 0 0-.233.07.452.452 0 0 0-.155.193.718.718 0 0 0-.055.292.76.76 0 0 0 .054.299.46.46 0 0 0 .154.198c.067.047.145.07.235.07.06 0 .113-.01.161-.03a.333.333 0 0 0 .194-.228h.227a.527.527 0 0 1-.295.402.643.643 0 0 1-.287.06zm2.014-.03-.452-1.481h.24l.32 1.134h.015l.316-1.134h.243l.312 1.13h.016l.32-1.13h.239l-.451 1.48h-.224l-.324-1.137H25.5l-.324 1.137h-.223zm1.87 0v-1.481h.227v1.48h-.227zm.115-1.728a.162.162 0 0 1-.115-.045.145.145 0 0 1-.047-.109c0-.042.016-.079.047-.109a.162.162 0 0 1 .115-.045c.044 0 .082.015.114.045s.048.067.048.109a.144.144 0 0 1-.048.109.158.158 0 0 1-.114.045zm1.172.247v.193h-.767v-.193h.767zm-.543-.355h.227v1.411c0 .065.01.113.028.145.02.031.044.053.073.064a.399.399 0 0 0 .157.011l.04-.008.045.205a.475.475 0 0 1-.17.027.458.458 0 0 1-.188-.042.374.374 0 0 1-.152-.126.362.362 0 0 1-.06-.214V27.52zm1.145.945v.89h-.228v-1.974h.228v.725h.02a.418.418 0 0 1 .155-.182.506.506 0 0 1 .28-.068c.1 0 .19.02.265.06a.41.41 0 0 1 .176.184.684.684 0 0 1 .064.315v.94h-.228v-.925a.38.38 0 0 0-.091-.273.327.327 0 0 0-.252-.097.42.42 0 0 0-.2.047.345.345 0 0 0-.139.138.448.448 0 0 0-.05.22zm2.286 1.446a.5.5 0 0 1-.166-.027l.058-.2a.492.492 0 0 0 .146.015.175.175 0 0 0 .113-.057.451.451 0 0 0 .092-.163l.042-.116-.547-1.488h.247l.408 1.18h.016l.408-1.18h.247l-.628 1.696a.644.644 0 0 1-.105.19.395.395 0 0 1-.146.113.45.45 0 0 1-.185.037zm1.913-.525a.646.646 0 0 1-.352-.095.647.647 0 0 1-.235-.267.903.903 0 0 1-.084-.401c0-.154.028-.289.084-.404a.646.646 0 0 1 .235-.268.646.646 0 0 1 .352-.095.64.64 0 0 1 .35.095c.101.064.18.153.236.268.056.115.084.25.084.404a.894.894 0 0 1-.084.4.64.64 0 0 1-.236.268.64.64 0 0 1-.35.095zm0-.204a.39.39 0 0 0 .25-.078.46.46 0 0 0 .146-.205.786.786 0 0 0 .047-.276.794.794 0 0 0-.047-.277.466.466 0 0 0-.146-.207.387.387 0 0 0-.25-.079.387.387 0 0 0-.25.08.466.466 0 0 0-.146.206.796.796 0 0 0-.048.277c0 .099.016.19.047.276a.46.46 0 0 0 .146.205.39.39 0 0 0 .25.078zm1.95-.432v-.875h.228v1.48h-.227v-.25h-.016a.486.486 0 0 1-.162.192.468.468 0 0 1-.277.078.494.494 0 0 1-.247-.061.425.425 0 0 1-.17-.185.702.702 0 0 1-.061-.313v-.941h.227v.925c0 .108.03.194.09.259a.308.308 0 0 0 .234.096.387.387 0 0 0 .382-.405zm.645.605v-1.48h.22v.224h.015a.355.355 0 0 1 .147-.179.431.431 0 0 1 .239-.068 2.785 2.785 0 0 1 .12.004v.231a.676.676 0 0 0-.14-.015.403.403 0 0 0-.192.045.333.333 0 0 0-.181.302v.937h-.228zm2.394.031a.697.697 0 0 1-.37-.094.634.634 0 0 1-.237-.266.908.908 0 0 1-.083-.4.92.92 0 0 1 .083-.4.627.627 0 0 1 .584-.37c.077 0 .153.013.228.038a.565.565 0 0 1 .353.353.96.96 0 0 1 .055.349v.096H37.37v-.196h.91a.484.484 0 0 0-.05-.224.376.376 0 0 0-.355-.212.408.408 0 0 0-.235.068.444.444 0 0 0-.152.173.51.51 0 0 0-.053.23v.13c0 .112.02.207.058.285.04.077.093.136.163.176.07.04.15.06.242.06.06 0 .114-.008.162-.025a.346.346 0 0 0 .126-.077.35.35 0 0 0 .082-.13l.22.062a.489.489 0 0 1-.117.197.567.567 0 0 1-.202.131.75.75 0 0 1-.271.046zm1.807-.983v.212h-.864v-.212h.864zm1.002.983a.641.641 0 0 1-.359-.098.64.64 0 0 1-.231-.27.918.918 0 0 1-.081-.395.91.91 0 0 1 .083-.398.627.627 0 0 1 .584-.37c.104 0 .198.02.281.058a.506.506 0 0 1 .305.405h-.227a.346.346 0 0 0-.355-.258.4.4 0 0 0-.234.07.452.452 0 0 0-.155.193.716.716 0 0 0-.055.292.76.76 0 0 0 .054.299c.037.085.088.15.155.198.066.047.145.07.235.07.059 0 .113-.01.16-.03a.332.332 0 0 0 .194-.228h.228a.527.527 0 0 1-.295.402.643.643 0 0 1-.287.06zm1.516 0a.646.646 0 0 1-.352-.095.648.648 0 0 1-.235-.267.903.903 0 0 1-.084-.401c0-.154.028-.289.084-.404a.647.647 0 0 1 .235-.268.646.646 0 0 1 .352-.095.64.64 0 0 1 .35.095c.102.064.18.153.236.268.056.115.085.25.085.404a.895.895 0 0 1-.085.4.64.64 0 0 1-.235.268.64.64 0 0 1-.351.095zm0-.204a.391.391 0 0 0 .25-.078.46.46 0 0 0 .146-.205.786.786 0 0 0 .047-.276.794.794 0 0 0-.047-.277.466.466 0 0 0-.145-.207.388.388 0 0 0-.251-.079.387.387 0 0 0-.25.08.466.466 0 0 0-.146.206.794.794 0 0 0-.047.277c0 .099.015.19.047.276a.46.46 0 0 0 .145.205c.066.052.15.078.25.078zm1.018.174v-1.481h.22v.231h.02a.37.37 0 0 1 .148-.184.447.447 0 0 1 .248-.066c.098 0 .18.022.244.066a.434.434 0 0 1 .153.184h.016a.431.431 0 0 1 .17-.182.52.52 0 0 1 .273-.068c.133 0 .24.041.325.124.084.082.126.21.126.385v.99h-.227v-.99c0-.11-.03-.188-.09-.235a.332.332 0 0 0-.211-.07.31.31 0 0 0-.242.095.337.337 0 0 0-.086.237v.963h-.231v-1.014a.266.266 0 0 0-.082-.203.294.294 0 0 0-.211-.078.312.312 0 0 0-.166.047.356.356 0 0 0-.123.131.386.386 0 0 0-.047.192v.925h-.227zm2.36 0v-1.481h.219v.231h.02a.37.37 0 0 1 .148-.184.448.448 0 0 1 .248-.066c.098 0 .18.022.244.066a.435.435 0 0 1 .153.184h.016a.43.43 0 0 1 .17-.182.52.52 0 0 1 .273-.068c.132 0 .24.041.325.124.084.082.126.21.126.385v.99h-.227v-.99c0-.11-.03-.188-.09-.235a.332.332 0 0 0-.211-.07.31.31 0 0 0-.242.095.337.337 0 0 0-.086.237v.963h-.231v-1.014a.266.266 0 0 0-.082-.203.294.294 0 0 0-.211-.078.312.312 0 0 0-.166.047.357.357 0 0 0-.123.131.387.387 0 0 0-.047.192v.925h-.227zm2.979.03a.697.697 0 0 1-.37-.094.634.634 0 0 1-.237-.266.908.908 0 0 1-.083-.4.92.92 0 0 1 .083-.4.627.627 0 0 1 .584-.37c.077 0 .153.013.228.038a.564.564 0 0 1 .205.126.601.601 0 0 1 .148.227.97.97 0 0 1 .055.349v.096h-1.141v-.196h.91a.485.485 0 0 0-.05-.224.378.378 0 0 0-.355-.212.408.408 0 0 0-.236.068.444.444 0 0 0-.15.173.51.51 0 0 0-.054.23v.13c0 .112.02.207.058.285.04.077.093.136.163.176.07.04.15.06.242.06.06 0 .114-.008.162-.025a.345.345 0 0 0 .126-.077.35.35 0 0 0 .082-.13l.22.062a.487.487 0 0 1-.117.197.567.567 0 0 1-.202.131.75.75 0 0 1-.271.046zm.959-.03v-1.481h.22v.224h.015a.355.355 0 0 1 .147-.179.431.431 0 0 1 .239-.068 2.785 2.785 0 0 1 .12.004v.231a.676.676 0 0 0-.14-.015.403.403 0 0 0-.192.045.333.333 0 0 0-.181.302v.937h-.228zm1.566.03a.64.64 0 0 1-.358-.098.64.64 0 0 1-.232-.27.918.918 0 0 1-.08-.395c0-.15.027-.283.082-.398a.627.627 0 0 1 .584-.37c.104 0 .198.02.282.058a.539.539 0 0 1 .205.163c.053.069.087.15.1.242h-.228a.346.346 0 0 0-.355-.258.4.4 0 0 0-.233.07.452.452 0 0 0-.155.193.718.718 0 0 0-.055.292.76.76 0 0 0 .054.299.46.46 0 0 0 .154.198c.067.047.145.07.235.07.06 0 .113-.01.161-.03a.332.332 0 0 0 .194-.228h.227a.526.526 0 0 1-.295.402.643.643 0 0 1-.287.06zm1.536 0a.697.697 0 0 1-.37-.094.634.634 0 0 1-.238-.266.906.906 0 0 1-.082-.4.92.92 0 0 1 .082-.4.627.627 0 0 1 .584-.37c.078 0 .154.013.229.038a.565.565 0 0 1 .353.353.97.97 0 0 1 .055.349v.096h-1.142v-.196h.91a.485.485 0 0 0-.05-.224.377.377 0 0 0-.355-.212.408.408 0 0 0-.235.068.444.444 0 0 0-.151.173.51.51 0 0 0-.053.23v.13c0 .112.02.207.058.285a.41.41 0 0 0 .163.176c.07.04.15.06.242.06.06 0 .113-.008.161-.025a.346.346 0 0 0 .127-.077.35.35 0 0 0 .082-.13l.22.062a.487.487 0 0 1-.117.197.567.567 0 0 1-.203.131.75.75 0 0 1-.27.046zm2.77-1.18-.204.058a.378.378 0 0 0-.056-.099.276.276 0 0 0-.1-.08.364.364 0 0 0-.164-.033.386.386 0 0 0-.226.063c-.06.041-.09.094-.09.157 0 .057.02.101.062.134a.51.51 0 0 0 .193.082l.22.054a.607.607 0 0 1 .295.147c.065.066.098.15.098.254 0 .085-.025.16-.074.227a.486.486 0 0 1-.202.158.74.74 0 0 1-.303.058.666.666 0 0 1-.375-.098.436.436 0 0 1-.188-.287l.216-.054a.3.3 0 0 0 .117.18.398.398 0 0 0 .227.059.42.42 0 0 0 .252-.068c.063-.045.095-.1.095-.163a.172.172 0 0 0-.054-.13.345.345 0 0 0-.166-.079l-.247-.057a.59.59 0 0 1-.299-.15.362.362 0 0 1-.094-.255c0-.084.023-.158.07-.222a.479.479 0 0 1 .194-.151.68.68 0 0 1 .28-.055c.146 0 .26.032.344.096a.52.52 0 0 1 .18.254zm.37 1.15v-1.481h.228v1.48h-.228zm.116-1.728a.162.162 0 0 1-.115-.045.146.146 0 0 1-.047-.109c0-.042.016-.079.047-.109a.162.162 0 0 1 .115-.045c.044 0 .082.015.113.045.033.03.049.067.049.109a.144.144 0 0 1-.049.109.158.158 0 0 1-.113.045zm1.172.247v.193h-.767v-.193h.767zm-.544-.355h.228v1.411c0 .065.01.113.028.145.02.031.044.053.073.064a.399.399 0 0 0 .157.011l.039-.008.046.205a.475.475 0 0 1-.17.027.458.458 0 0 1-.188-.042.374.374 0 0 1-.153-.126.362.362 0 0 1-.06-.214V27.52zm1.491 1.866a.697.697 0 0 1-.37-.094.634.634 0 0 1-.237-.266.906.906 0 0 1-.083-.4.92.92 0 0 1 .083-.4.627.627 0 0 1 .584-.37c.077 0 .153.013.228.038a.565.565 0 0 1 .353.353.97.97 0 0 1 .055.349v.096h-1.141v-.196h.91a.485.485 0 0 0-.05-.224.378.378 0 0 0-.355-.212.408.408 0 0 0-.235.068.444.444 0 0 0-.152.173.509.509 0 0 0-.053.23v.13c0 .112.02.207.058.285a.422.422 0 0 0 .405.236c.06 0 .114-.008.162-.025a.345.345 0 0 0 .126-.077.35.35 0 0 0 .082-.13l.22.062a.487.487 0 0 1-.117.197.567.567 0 0 1-.202.131.75.75 0 0 1-.271.046z"/><path fill="#86858A" d="M7.175 39.017h-.25l.724-1.974h.247l.725 1.974h-.25l-.59-1.662h-.016l-.59 1.662zm.093-.772h1.01v.213h-1.01v-.212zm2.231.802a.64.64 0 0 1-.359-.098.64.64 0 0 1-.23-.27.918.918 0 0 1-.082-.395c0-.15.028-.283.083-.398a.627.627 0 0 1 .584-.37c.104 0 .198.02.282.059a.538.538 0 0 1 .205.162c.053.069.086.15.1.242h-.228a.346.346 0 0 0-.355-.258.4.4 0 0 0-.233.07.452.452 0 0 0-.155.193.718.718 0 0 0-.055.292c0 .115.018.214.054.3.036.084.088.15.154.197.067.047.145.07.235.07.06 0 .113-.01.16-.03a.333.333 0 0 0 .195-.228h.227a.526.526 0 0 1-.295.402.643.643 0 0 1-.287.06zm1.516 0a.64.64 0 0 1-.359-.098.64.64 0 0 1-.23-.27.917.917 0 0 1-.082-.395c0-.15.028-.283.083-.398a.627.627 0 0 1 .584-.37c.104 0 .198.02.282.059a.506.506 0 0 1 .305.405h-.228a.346.346 0 0 0-.355-.258.4.4 0 0 0-.233.069.451.451 0 0 0-.155.193.716.716 0 0 0-.055.292c0 .115.018.214.054.3.036.084.088.15.154.197.067.047.145.07.235.07.06 0 .113-.01.161-.03a.333.333 0 0 0 .194-.228h.227a.528.528 0 0 1-.295.402.643.643 0 0 1-.287.06zm1.516 0a.646.646 0 0 1-.352-.095.648.648 0 0 1-.235-.267.903.903 0 0 1-.084-.4c0-.155.028-.29.084-.405a.647.647 0 0 1 .235-.268.645.645 0 0 1 .352-.095.64.64 0 0 1 .351.095c.101.064.18.153.235.268a.9.9 0 0 1 .085.404.895.895 0 0 1-.085.401.64.64 0 0 1-.235.267.64.64 0 0 1-.35.095zm0-.204a.39.39 0 0 0 .25-.078.46.46 0 0 0 .146-.205.785.785 0 0 0 .048-.276.794.794 0 0 0-.048-.277.467.467 0 0 0-.145-.207.387.387 0 0 0-.25-.079.387.387 0 0 0-.251.08.466.466 0 0 0-.146.206.794.794 0 0 0-.047.277c0 .099.016.19.047.276a.46.46 0 0 0 .146.205.39.39 0 0 0 .25.078zm1.951-.432v-.875h.228v1.48h-.228v-.25h-.015a.485.485 0 0 1-.162.192.467.467 0 0 1-.278.078.495.495 0 0 1-.246-.06.426.426 0 0 1-.17-.186.703.703 0 0 1-.062-.313v-.94h.228v.924c0 .108.03.195.09.259a.308.308 0 0 0 .234.096.386.386 0 0 0 .32-.176.396.396 0 0 0 .061-.229zm.872-.285v.89h-.228v-1.48h.22v.231h.02a.424.424 0 0 1 .158-.18.492.492 0 0 1 .273-.07c.1 0 .188.02.263.061a.418.418 0 0 1 .176.186.688.688 0 0 1 .063.312v.94h-.228v-.925a.384.384 0 0 0-.09-.272.321.321 0 0 0-.25-.098.396.396 0 0 0-.194.047.337.337 0 0 0-.134.138.455.455 0 0 0-.05.22zm2.004-.59v.193h-.767v-.193h.767zm-.544-.355h.228v1.412a.3.3 0 0 0 .028.144c.02.032.043.053.073.064a.3.3 0 0 0 .095.015.414.414 0 0 0 .062-.004l.039-.007.046.204a.47.47 0 0 1-.359-.014.375.375 0 0 1-.152-.127.362.362 0 0 1-.06-.214v-1.473z"/><rect width="63.784" height="26.821" x="5.159" y="41.017" fill="#fff" rx="1.696"/><path fill="#000" d="M8.79 44.739h.286l.67 1.639h.024l.67-1.64h.286v1.975h-.224v-1.5h-.019l-.617 1.5H9.65l-.617-1.5h-.019v1.5h-.223v-1.974zm3.005 2.005a.697.697 0 0 1-.37-.095.634.634 0 0 1-.237-.266.907.907 0 0 1-.083-.399.92.92 0 0 1 .083-.4.627.627 0 0 1 .584-.37.69.69 0 0 1 .228.038.565.565 0 0 1 .353.352.97.97 0 0 1 .055.35v.096h-1.141v-.197h.91a.486.486 0 0 0-.05-.224.378.378 0 0 0-.355-.212.409.409 0 0 0-.235.068.444.444 0 0 0-.152.173.51.51 0 0 0-.053.23v.13c0 .113.02.207.058.285a.43.43 0 0 0 .163.177c.07.04.15.06.242.06.06 0 .114-.009.162-.026a.345.345 0 0 0 .126-.077.35.35 0 0 0 .082-.129l.22.062a.489.489 0 0 1-.117.196.57.57 0 0 1-.202.131.751.751 0 0 1-.27.047zm.96-.031v-1.48h.219v.23h.02c.03-.078.08-.14.149-.183a.447.447 0 0 1 .247-.067c.098 0 .18.022.244.067a.434.434 0 0 1 .153.184h.016a.431.431 0 0 1 .17-.182.519.519 0 0 1 .273-.069c.133 0 .24.042.325.124.084.083.126.21.126.385v.99h-.227v-.99c0-.11-.03-.187-.09-.234a.332.332 0 0 0-.21-.07.31.31 0 0 0-.243.094.337.337 0 0 0-.086.237v.964h-.231v-1.014a.266.266 0 0 0-.082-.203.294.294 0 0 0-.211-.079.312.312 0 0 0-.166.048.357.357 0 0 0-.123.13.386.386 0 0 0-.046.193v.925h-.228zm2.389 0v-1.974h.227v.729h.02a1.91 1.91 0 0 1 .07-.099.407.407 0 0 1 .128-.108.465.465 0 0 1 .23-.048.588.588 0 0 1 .552.359c.053.114.08.249.08.404a.96.96 0 0 1-.08.408.579.579 0 0 1-.548.36.474.474 0 0 1-.229-.047.423.423 0 0 1-.132-.11 1.46 1.46 0 0 1-.071-.102h-.027v.228h-.22zm.224-.74c0 .111.016.21.049.296.033.084.08.15.143.2.063.047.14.07.232.07a.373.373 0 0 0 .238-.075.46.46 0 0 0 .144-.204.802.802 0 0 0 .05-.287.78.78 0 0 0-.049-.282.434.434 0 0 0-.143-.2.379.379 0 0 0-.24-.074.38.38 0 0 0-.376.265.8.8 0 0 0-.048.29zm2.052.77a.697.697 0 0 1-.37-.094.634.634 0 0 1-.238-.266.907.907 0 0 1-.082-.399.92.92 0 0 1 .082-.4.627.627 0 0 1 .584-.37c.078 0 .154.012.229.038a.565.565 0 0 1 .353.352.97.97 0 0 1 .055.35v.096H16.89v-.197h.91a.486.486 0 0 0-.05-.224.378.378 0 0 0-.354-.212.409.409 0 0 0-.236.068.444.444 0 0 0-.15.173.51.51 0 0 0-.054.23v.13c0 .113.02.207.058.285a.424.424 0 0 0 .405.237c.06 0 .113-.009.162-.026a.345.345 0 0 0 .126-.077.35.35 0 0 0 .082-.129l.22.062a.489.489 0 0 1-.117.196.57.57 0 0 1-.203.131.751.751 0 0 1-.27.047zm.959-.03v-1.48h.22v.223h.015a.356.356 0 0 1 .146-.178.432.432 0 0 1 .24-.069 2.692 2.692 0 0 1 .119.004v.231a.613.613 0 0 0-.053-.008.522.522 0 0 0-.086-.007.403.403 0 0 0-.193.045.333.333 0 0 0-.181.302v.937h-.227zm2.058-1.149-.204.058a.38.38 0 0 0-.057-.1.276.276 0 0 0-.1-.08.365.365 0 0 0-.163-.032c-.09 0-.166.02-.227.062-.06.041-.09.094-.09.157 0 .057.021.102.063.135.04.032.105.06.192.081l.22.054a.606.606 0 0 1 .296.148c.065.065.097.15.097.253a.376.376 0 0 1-.073.228.485.485 0 0 1-.202.158.738.738 0 0 1-.303.058.665.665 0 0 1-.375-.099.436.436 0 0 1-.188-.287l.216-.054a.3.3 0 0 0 .117.18c.057.04.133.06.226.06.106 0 .19-.023.253-.068.063-.046.094-.1.094-.164a.172.172 0 0 0-.054-.13.344.344 0 0 0-.166-.078l-.246-.058a.588.588 0 0 1-.3-.15.362.362 0 0 1-.094-.255c0-.084.024-.157.07-.222a.479.479 0 0 1 .194-.15.68.68 0 0 1 .28-.056c.146 0 .261.032.345.096a.52.52 0 0 1 .18.255zm.597.258v.89h-.227V44.74h.227v.725h.02a.417.417 0 0 1 .156-.182.505.505 0 0 1 .28-.069c.1 0 .188.02.264.06a.41.41 0 0 1 .177.185.684.684 0 0 1 .063.314v.94h-.227v-.924a.38.38 0 0 0-.092-.273.327.327 0 0 0-.251-.098.42.42 0 0 0-.2.048.345.345 0 0 0-.14.137.448.448 0 0 0-.05.22zm1.376.89v-1.48h.228v1.48h-.228zm.116-1.726a.162.162 0 0 1-.115-.046.146.146 0 0 1-.047-.109.15.15 0 0 1 .047-.109.162.162 0 0 1 .115-.045c.044 0 .082.015.114.045s.048.067.048.11a.144.144 0 0 1-.048.108.158.158 0 0 1-.114.046zm.528 2.282v-2.036h.22v.236h.027a1.91 1.91 0 0 1 .07-.099.407.407 0 0 1 .129-.108.465.465 0 0 1 .23-.048.588.588 0 0 1 .551.359c.054.114.08.249.08.404a.96.96 0 0 1-.08.408.579.579 0 0 1-.548.36.474.474 0 0 1-.228-.047.423.423 0 0 1-.133-.11 1.46 1.46 0 0 1-.07-.102h-.02v.783h-.228zm.224-1.295c0 .111.016.21.05.296.032.084.08.15.143.2.063.047.14.07.231.07a.373.373 0 0 0 .238-.075.46.46 0 0 0 .145-.204.802.802 0 0 0 .049-.287.78.78 0 0 0-.048-.282.434.434 0 0 0-.144-.2.379.379 0 0 0-.24-.074.38.38 0 0 0-.376.265.8.8 0 0 0-.048.29zm1.596.755a.167.167 0 0 1-.122-.05.167.167 0 0 1-.051-.123c0-.048.017-.088.05-.123a.167.167 0 0 1 .123-.05c.048 0 .088.016.123.05a.167.167 0 0 1 .05.123c0 .031-.007.06-.023.087a.18.18 0 0 1-.063.063.165.165 0 0 1-.087.023zm0-1.099a.167.167 0 0 1-.122-.05.167.167 0 0 1-.051-.123c0-.048.017-.088.05-.122a.167.167 0 0 1 .123-.052.17.17 0 0 1 .123.052.167.167 0 0 1 .05.122c0 .031-.007.06-.023.087a.18.18 0 0 1-.063.063.165.165 0 0 1-.087.023zm1.376 1.084v-1.974h.667c.155 0 .281.028.38.084.099.055.172.13.22.224.047.095.07.2.07.317a.698.698 0 0 1-.07.317.53.53 0 0 1-.218.227.758.758 0 0 1-.378.084h-.478v-.212h.47a.514.514 0 0 0 .256-.055.328.328 0 0 0 .14-.148.495.495 0 0 0 .044-.213.489.489 0 0 0-.045-.213.317.317 0 0 0-.14-.146.532.532 0 0 0-.259-.054h-.42v1.762h-.239zm1.723 0v-1.974h.667c.154 0 .28.026.38.079a.504.504 0 0 1 .22.215.663.663 0 0 1 .07.311c0 .117-.023.22-.07.31a.502.502 0 0 1-.22.212.82.82 0 0 1-.376.076h-.54v-.216h.532c.105 0 .19-.015.255-.046a.292.292 0 0 0 .14-.132.439.439 0 0 0 .045-.204.457.457 0 0 0-.045-.207.302.302 0 0 0-.141-.137.573.573 0 0 0-.258-.049h-.42v1.762h-.239zm.93-.887.485.887h-.278l-.478-.887h.27zm2.472-.1c0 .208-.038.388-.113.54a.846.846 0 0 1-.31.35.827.827 0 0 1-.449.124.827.827 0 0 1-.449-.123.846.846 0 0 1-.31-.351 1.203 1.203 0 0 1-.112-.54c0-.208.038-.388.113-.54a.846.846 0 0 1 .31-.35.827.827 0 0 1 .448-.124c.169 0 .318.041.45.123.13.082.234.2.309.351.075.152.113.332.113.54zm-.232 0a.984.984 0 0 0-.085-.433.597.597 0 0 0-.554-.358c-.12 0-.228.03-.325.091a.63.63 0 0 0-.23.267.993.993 0 0 0-.086.433c0 .17.029.315.085.433a.63.63 0 0 0 .23.267.61.61 0 0 0 .325.09.597.597 0 0 0 .555-.357.984.984 0 0 0 .085-.433zm1.397-.987h.285l.671 1.639h.023l.671-1.64h.285v1.975h-.223v-1.5h-.02l-.616 1.5H33.4l-.617-1.5h-.02v1.5h-.223v-1.974zm2.985 2.005a.646.646 0 0 1-.352-.096.649.649 0 0 1-.235-.267.903.903 0 0 1-.084-.4c0-.155.028-.29.084-.404a.649.649 0 0 1 .235-.268.646.646 0 0 1 .352-.096.628.628 0 0 1 .586.364c.057.114.085.25.085.403a.894.894 0 0 1-.085.401.639.639 0 0 1-.235.267.641.641 0 0 1-.35.096zm0-.205a.39.39 0 0 0 .25-.078.46.46 0 0 0 .147-.205.785.785 0 0 0 .047-.276.794.794 0 0 0-.047-.276.466.466 0 0 0-.146-.208.387.387 0 0 0-.25-.079.387.387 0 0 0-.251.08.467.467 0 0 0-.146.207.794.794 0 0 0-.047.276c0 .1.016.191.047.276a.46.46 0 0 0 .146.205.39.39 0 0 0 .25.078zm1.246-.717v.89h-.228v-1.48h.22v.232h.02a.423.423 0 0 1 .157-.181.492.492 0 0 1 .274-.07c.1 0 .188.02.263.062a.41.41 0 0 1 .176.185.687.687 0 0 1 .063.312v.94h-.228v-.924a.384.384 0 0 0-.09-.272.321.321 0 0 0-.25-.099.397.397 0 0 0-.194.048.338.338 0 0 0-.134.137.456.456 0 0 0-.05.22zm2.004-.59v.193h-.767v-.193h.767zm-.544-.354h.228v1.41c0 .065.01.113.028.145.02.032.044.053.073.064.03.01.062.015.096.015a.412.412 0 0 0 .061-.003l.039-.008.046.204a.469.469 0 0 1-.17.027.457.457 0 0 1-.189-.041.376.376 0 0 1-.152-.127.363.363 0 0 1-.06-.214v-1.472zm1.145.944v.89h-.227V44.74h.227v.725h.02a.418.418 0 0 1 .156-.182.505.505 0 0 1 .28-.069c.1 0 .189.02.264.06a.41.41 0 0 1 .177.185.684.684 0 0 1 .063.314v.94h-.227v-.924a.38.38 0 0 0-.092-.273.327.327 0 0 0-.251-.098.42.42 0 0 0-.2.048.346.346 0 0 0-.14.137.448.448 0 0 0-.05.22zm1.604-1.083v1.974h-.227v-1.974h.227zm.563 2.53a.493.493 0 0 1-.166-.028l.058-.2a.437.437 0 0 0 .147.015.176.176 0 0 0 .112-.057.456.456 0 0 0 .092-.163l.042-.115-.547-1.489h.247l.408 1.18h.016l.409-1.18h.246l-.628 1.697a.639.639 0 0 1-.105.19.394.394 0 0 1-.146.112.447.447 0 0 1-.185.037zm23.789-1.87a.12.12 0 0 1-.038.087l-1.05 1.027a.12.12 0 0 1-.087.036.119.119 0 0 1-.12-.12c0-.035.012-.064.034-.087l.964-.943-.964-.944a.126.126 0 0 1-.035-.086c0-.07.053-.12.12-.12.035 0 .064.011.088.034l1.05 1.028a.119.119 0 0 1 .038.088z"/><path fill="#000" fill-opacity=".2" d="M65.332 45.399a.12.12 0 0 1-.038.087l-1.05 1.027a.12.12 0 0 1-.087.036.119.119 0 0 1-.12-.12c0-.035.012-.064.034-.087l.964-.943-.964-.944a.126.126 0 0 1-.035-.086c0-.07.053-.12.12-.12.035 0 .064.011.088.034l1.05 1.028a.119.119 0 0 1 .038.088z"/><path stroke="#CCC" stroke-width=".17" d="M8.552 49.986H65.55"/><path fill="#000" d="M8.319 53.875h.233a1.705 1.705 0 0 1 1.66-1.37c.923 0 1.69.765 1.69 1.69 0 .922-.767 1.69-1.69 1.69a1.712 1.712 0 0 1-1.367-.708c-.056-.073-.038-.164.029-.206.07-.04.147-.02.198.049.254.352.668.581 1.14.583a1.4 1.4 0 0 0 1.408-1.409c0-.781-.626-1.406-1.408-1.406-.672 0-1.229.46-1.373 1.087h.24c.118 0 .148.081.085.172l-.372.529c-.053.074-.132.076-.187 0l-.37-.527c-.065-.093-.036-.174.084-.174zm1.893 1.266a.077.077 0 0 1-.08-.078v-.12c-.22-.021-.405-.144-.453-.334a.218.218 0 0 1-.007-.052c0-.058.04-.097.096-.097.048 0 .083.026.101.082.028.111.115.194.264.216v-.49l-.012-.004c-.275-.065-.417-.19-.417-.4 0-.226.179-.383.429-.412v-.114c0-.046.033-.078.08-.078.044 0 .077.032.077.078v.114c.212.025.381.148.426.327.003.018.007.034.007.051 0 .058-.04.098-.097.098-.054 0-.084-.032-.102-.081a.284.284 0 0 0-.234-.204v.462l.023.005c.287.051.434.187.434.413 0 .25-.2.399-.457.424v.116a.075.075 0 0 1-.078.078zm-.08-1.077v-.421c-.138.025-.225.11-.225.21 0 .098.067.164.214.207l.012.004zm.158.243v.45c.17-.02.252-.107.252-.223 0-.106-.056-.174-.216-.218l-.036-.009zm5.116 1.12v-1.974h.667a.8.8 0 0 1 .38.079.504.504 0 0 1 .22.215.663.663 0 0 1 .071.311.65.65 0 0 1-.071.31.503.503 0 0 1-.219.212.819.819 0 0 1-.377.076h-.54v-.216h.533c.105 0 .19-.016.254-.046a.292.292 0 0 0 .14-.132.44.44 0 0 0 .045-.204.458.458 0 0 0-.044-.207.302.302 0 0 0-.142-.137.573.573 0 0 0-.257-.05h-.42v1.763h-.24zm.93-.887.485.887h-.277l-.478-.887h.27zm1.38.918a.696.696 0 0 1-.369-.095.634.634 0 0 1-.238-.266.907.907 0 0 1-.083-.399.92.92 0 0 1 .083-.4.627.627 0 0 1 .584-.37.667.667 0 0 1 .229.038.565.565 0 0 1 .353.352.97.97 0 0 1 .055.35v.096h-1.142v-.197h.91a.485.485 0 0 0-.05-.224.378.378 0 0 0-.354-.212.408.408 0 0 0-.236.068.444.444 0 0 0-.151.173.51.51 0 0 0-.053.23v.13c0 .113.02.207.058.285a.41.41 0 0 0 .163.176c.07.04.15.06.242.06.06 0 .113-.008.162-.025a.345.345 0 0 0 .126-.077.35.35 0 0 0 .082-.13l.22.063a.487.487 0 0 1-.117.196.569.569 0 0 1-.203.131.75.75 0 0 1-.27.047zm2.008-1.18-.204.058a.376.376 0 0 0-.057-.1.276.276 0 0 0-.1-.08.364.364 0 0 0-.163-.032c-.09 0-.166.02-.226.062-.06.041-.09.094-.09.157 0 .057.02.102.062.134.04.033.105.06.192.082l.22.054a.606.606 0 0 1 .296.148c.065.065.097.15.097.253 0 .085-.024.16-.073.228a.487.487 0 0 1-.202.158.74.74 0 0 1-.303.058.666.666 0 0 1-.375-.099.436.436 0 0 1-.188-.287l.216-.054a.3.3 0 0 0 .117.18c.057.04.133.06.226.06.106 0 .19-.023.253-.068.063-.046.094-.1.094-.164a.172.172 0 0 0-.054-.13.345.345 0 0 0-.166-.078l-.246-.058a.59.59 0 0 1-.3-.15.362.362 0 0 1-.094-.255c0-.084.024-.157.07-.222a.479.479 0 0 1 .195-.151.68.68 0 0 1 .279-.055c.146 0 .262.032.345.096a.52.52 0 0 1 .18.255zm1.014-.332v.193h-.768v-.193h.768zm-.544-.354h.228v1.41c0 .065.009.113.027.145.02.032.044.053.074.064a.3.3 0 0 0 .095.015.399.399 0 0 0 .062-.004l.038-.007.047.204a.459.459 0 0 1-.17.027.459.459 0 0 1-.189-.041.374.374 0 0 1-.152-.127.362.362 0 0 1-.06-.214v-1.472zm1.471 1.866a.646.646 0 0 1-.351-.096.649.649 0 0 1-.236-.267.903.903 0 0 1-.084-.4c0-.155.028-.29.084-.405a.647.647 0 0 1 .236-.268.646.646 0 0 1 .351-.095c.134 0 .25.032.351.095.101.064.18.153.235.268a.9.9 0 0 1 .085.404.895.895 0 0 1-.085.401.64.64 0 0 1-.235.267.641.641 0 0 1-.35.096zm0-.205a.39.39 0 0 0 .25-.078.46.46 0 0 0 .146-.205.786.786 0 0 0 .048-.276.794.794 0 0 0-.048-.276.466.466 0 0 0-.145-.208.387.387 0 0 0-.25-.079.387.387 0 0 0-.251.08.466.466 0 0 0-.146.207.794.794 0 0 0-.047.276c0 .1.016.191.047.276a.46.46 0 0 0 .146.205.389.389 0 0 0 .25.078zm1.018.174v-1.48h.22v.223h.016a.355.355 0 0 1 .146-.178.43.43 0 0 1 .24-.069 2.785 2.785 0 0 1 .119.004v.231a.7.7 0 0 0-.14-.015.403.403 0 0 0-.192.045.332.332 0 0 0-.181.302v.937h-.228zm1.586.03a.696.696 0 0 1-.37-.094.634.634 0 0 1-.237-.266.908.908 0 0 1-.083-.399.92.92 0 0 1 .083-.4.627.627 0 0 1 .584-.37.666.666 0 0 1 .228.038.567.567 0 0 1 .353.352.967.967 0 0 1 .055.35v.096h-1.141v-.197h.91a.485.485 0 0 0-.05-.224.378.378 0 0 0-.355-.212.408.408 0 0 0-.235.068.444.444 0 0 0-.152.173.51.51 0 0 0-.053.23v.13c0 .113.02.207.058.285a.422.422 0 0 0 .405.236c.06 0 .114-.008.162-.025a.345.345 0 0 0 .126-.077.35.35 0 0 0 .082-.13l.22.063a.487.487 0 0 1-.117.196.569.569 0 0 1-.202.131.75.75 0 0 1-.271.047zm1.722.525v-2.036h.22v.236h.027a1.91 1.91 0 0 1 .07-.099.408.408 0 0 1 .129-.108.465.465 0 0 1 .23-.048.588.588 0 0 1 .551.358.95.95 0 0 1 .08.405.962.962 0 0 1-.08.408.58.58 0 0 1-.549.36.473.473 0 0 1-.227-.048.426.426 0 0 1-.133-.108 1.485 1.485 0 0 1-.07-.103h-.02v.783h-.228zm.224-1.295c0 .111.016.21.05.295a.44.44 0 0 0 .143.2c.063.047.14.071.231.071a.373.373 0 0 0 .238-.075.46.46 0 0 0 .145-.204.801.801 0 0 0 .049-.287.78.78 0 0 0-.048-.282.436.436 0 0 0-.144-.2.38.38 0 0 0-.24-.074.38.38 0 0 0-.376.265.799.799 0 0 0-.048.29zm2.363.135v-.876h.228v1.48h-.228v-.25h-.015a.486.486 0 0 1-.162.192.468.468 0 0 1-.278.078.494.494 0 0 1-.246-.06.425.425 0 0 1-.17-.186.704.704 0 0 1-.062-.313v-.94h.228v.925c0 .108.03.194.09.258a.308.308 0 0 0 .234.096.388.388 0 0 0 .381-.404zm.645.605v-1.48h.22v.223h.015a.355.355 0 0 1 .146-.178.43.43 0 0 1 .24-.069 2.768 2.768 0 0 1 .119.004v.231a.71.71 0 0 0-.14-.015.403.403 0 0 0-.192.045.333.333 0 0 0-.181.302v.937h-.227zm1.566.03a.64.64 0 0 1-.359-.098.64.64 0 0 1-.231-.27.917.917 0 0 1-.081-.395.9.9 0 0 1 .083-.398.627.627 0 0 1 .584-.37.67.67 0 0 1 .281.059.539.539 0 0 1 .206.162.51.51 0 0 1 .099.243h-.228a.346.346 0 0 0-.355-.258.4.4 0 0 0-.233.069.452.452 0 0 0-.155.194.718.718 0 0 0-.055.291c0 .115.018.215.054.3a.46.46 0 0 0 .155.197c.066.047.145.07.235.07.059 0 .112-.01.16-.03a.33.33 0 0 0 .194-.228h.228a.526.526 0 0 1-.295.402.643.643 0 0 1-.287.06zm1.142-.92v.89h-.228v-1.974h.228v.725h.02a.418.418 0 0 1 .155-.183.506.506 0 0 1 .28-.068c.1 0 .19.02.265.06a.41.41 0 0 1 .176.185.684.684 0 0 1 .064.314v.94h-.228v-.925a.38.38 0 0 0-.091-.272.327.327 0 0 0-.252-.098.42.42 0 0 0-.2.048.345.345 0 0 0-.139.137.448.448 0 0 0-.05.22zm1.812.925a.6.6 0 0 1-.256-.054.438.438 0 0 1-.182-.155.438.438 0 0 1-.067-.246.38.38 0 0 1 .05-.207.354.354 0 0 1 .134-.125.705.705 0 0 1 .185-.067 2.23 2.23 0 0 1 .205-.037c.09-.012.163-.02.219-.026a.336.336 0 0 0 .123-.032c.027-.015.04-.04.04-.077v-.008a.302.302 0 0 0-.078-.221c-.052-.053-.13-.08-.234-.08a.41.41 0 0 0-.256.072.421.421 0 0 0-.13.152l-.216-.077c.039-.09.09-.16.154-.21a.58.58 0 0 1 .212-.106.884.884 0 0 1 .228-.031c.047 0 .102.006.164.017a.526.526 0 0 1 .18.069.402.402 0 0 1 .145.157c.039.07.058.164.058.281v.976h-.227v-.2h-.012a.444.444 0 0 1-.22.197.553.553 0 0 1-.22.038zm.034-.205c.09 0 .166-.018.228-.053a.36.36 0 0 0 .189-.313v-.208a.148.148 0 0 1-.064.032 2.08 2.08 0 0 1-.112.024 5.056 5.056 0 0 1-.217.029.863.863 0 0 0-.166.037.286.286 0 0 0-.124.076.194.194 0 0 0-.046.137c0 .08.03.139.088.18.059.04.134.06.224.06zm2.108-.98-.204.059a.376.376 0 0 0-.057-.1.276.276 0 0 0-.1-.08.364.364 0 0 0-.163-.032c-.09 0-.166.02-.227.062-.06.041-.09.094-.09.157 0 .057.021.102.062.134.041.033.106.06.193.082l.22.054a.606.606 0 0 1 .296.148c.065.065.097.15.097.253 0 .085-.024.16-.073.228a.487.487 0 0 1-.203.158.74.74 0 0 1-.302.058.666.666 0 0 1-.375-.099.436.436 0 0 1-.188-.287l.216-.054a.3.3 0 0 0 .116.18c.058.04.134.06.227.06.106 0 .19-.023.253-.068.063-.046.094-.1.094-.164a.172.172 0 0 0-.054-.13.345.345 0 0 0-.166-.078l-.247-.058a.59.59 0 0 1-.298-.15.362.362 0 0 1-.095-.255c0-.084.024-.157.07-.222a.479.479 0 0 1 .194-.151.68.68 0 0 1 .28-.055c.146 0 .261.032.345.096a.52.52 0 0 1 .18.255zm.99 1.18a.696.696 0 0 1-.369-.094.634.634 0 0 1-.238-.266.908.908 0 0 1-.083-.399.92.92 0 0 1 .083-.4.627.627 0 0 1 .584-.37.675.675 0 0 1 .229.038.566.566 0 0 1 .352.352.967.967 0 0 1 .055.35v.096h-1.14v-.197h.909a.484.484 0 0 0-.05-.224.376.376 0 0 0-.355-.212.408.408 0 0 0-.235.068.444.444 0 0 0-.151.173.51.51 0 0 0-.053.23v.13a.63.63 0 0 0 .058.285.413.413 0 0 0 .162.176c.07.04.15.06.242.06.06 0 .114-.008.162-.025a.346.346 0 0 0 .127-.077.351.351 0 0 0 .081-.13l.22.063a.489.489 0 0 1-.117.196.569.569 0 0 1-.202.131.75.75 0 0 1-.27.047zm2.008-1.18-.204.059a.382.382 0 0 0-.057-.1.275.275 0 0 0-.1-.08.364.364 0 0 0-.163-.032.39.39 0 0 0-.227.062c-.06.041-.09.094-.09.157 0 .057.021.102.062.134.041.033.106.06.193.082l.22.054a.606.606 0 0 1 .296.148c.064.065.097.15.097.253 0 .085-.024.16-.073.228a.486.486 0 0 1-.203.158.74.74 0 0 1-.302.058.666.666 0 0 1-.375-.099.436.436 0 0 1-.188-.287l.216-.054a.3.3 0 0 0 .116.18c.058.04.134.06.227.06a.42.42 0 0 0 .252-.068c.063-.046.095-.1.095-.164a.172.172 0 0 0-.054-.13.344.344 0 0 0-.166-.078l-.247-.058a.59.59 0 0 1-.298-.15.362.362 0 0 1-.095-.255c0-.084.024-.157.07-.222a.479.479 0 0 1 .194-.151.681.681 0 0 1 .28-.055c.146 0 .261.032.345.096a.52.52 0 0 1 .179.255z"/><path stroke="#CCC" stroke-width=".17" d="M8.552 58.699H65.55"/><path fill="#000" d="M9.552 62.91c-.395 0-.716-.348-.716-.774 0-.421.323-.76.716-.76.395 0 .715.332.715.756 0 .428-.321.777-.715.777zm0-.25c.243 0 .449-.234.449-.528 0-.29-.203-.506-.45-.506-.245 0-.448.221-.448.51 0 .293.207.523.449.523zM8.51 64.442c-.275 0-.406-.082-.406-.265 0-.434.548-1.061 1.448-1.061.897 0 1.446.627 1.446 1.061 0 .183-.131.265-.406.265H8.51zm-.078-.25h2.24c.042 0 .06-.011.06-.046 0-.274-.422-.78-1.18-.78-.76 0-1.182.507-1.182.78 0 .035.019.046.062.046zm6.974-2.024h.286l.67 1.638h.024l.67-1.638h.286v1.974h-.224v-1.5H17.1l-.617 1.5h-.216l-.617-1.5h-.019v1.5h-.224v-1.974zm2.82 2.008a.602.602 0 0 1-.255-.053.438.438 0 0 1-.183-.155.438.438 0 0 1-.067-.247.38.38 0 0 1 .05-.206.354.354 0 0 1 .134-.125.705.705 0 0 1 .185-.068c.068-.015.137-.027.205-.036.09-.012.163-.02.22-.026a.34.34 0 0 0 .123-.032c.026-.015.04-.04.04-.077v-.008a.301.301 0 0 0-.079-.222c-.051-.052-.13-.079-.234-.079a.41.41 0 0 0-.256.072.422.422 0 0 0-.13.152l-.216-.077c.039-.09.09-.16.155-.21a.577.577 0 0 1 .212-.106.88.88 0 0 1 .227-.031c.048 0 .102.006.164.017a.524.524 0 0 1 .18.069.403.403 0 0 1 .146.157.59.59 0 0 1 .058.281v.976h-.228v-.2h-.011a.444.444 0 0 1-.22.197.553.553 0 0 1-.22.037zm.035-.204a.45.45 0 0 0 .227-.053.36.36 0 0 0 .19-.313v-.209c-.01.012-.032.023-.065.032a.85.85 0 0 1-.111.024 5.62 5.62 0 0 1-.218.03.87.87 0 0 0-.166.037.285.285 0 0 0-.123.076.194.194 0 0 0-.047.137c0 .079.03.139.088.18.06.039.134.059.225.059zm1.286-.721v.89h-.227v-1.48h.22v.231h.019a.424.424 0 0 1 .158-.18.492.492 0 0 1 .274-.07c.1 0 .188.02.263.061a.421.421 0 0 1 .175.186.688.688 0 0 1 .063.312v.94h-.228v-.925a.384.384 0 0 0-.09-.272.321.321 0 0 0-.249-.098.397.397 0 0 0-.195.047.338.338 0 0 0-.134.138.455.455 0 0 0-.049.22zm1.796.925a.602.602 0 0 1-.255-.053.438.438 0 0 1-.182-.155.438.438 0 0 1-.068-.247.38.38 0 0 1 .05-.206.354.354 0 0 1 .134-.125.705.705 0 0 1 .185-.068c.068-.015.137-.027.206-.036.09-.012.162-.02.218-.026a.34.34 0 0 0 .124-.032c.026-.015.04-.04.04-.077v-.008a.302.302 0 0 0-.079-.222c-.051-.052-.13-.079-.234-.079a.41.41 0 0 0-.255.072.423.423 0 0 0-.13.152l-.216-.077a.52.52 0 0 1 .366-.316.879.879 0 0 1 .227-.031c.048 0 .102.006.164.017a.524.524 0 0 1 .18.069.403.403 0 0 1 .146.157.59.59 0 0 1 .058.281v.976h-.228v-.2h-.011a.446.446 0 0 1-.22.197.553.553 0 0 1-.22.037zm.035-.204a.45.45 0 0 0 .227-.053.36.36 0 0 0 .19-.313v-.209c-.01.012-.032.023-.064.032a.906.906 0 0 1-.112.024 5.533 5.533 0 0 1-.218.03.872.872 0 0 0-.166.037.285.285 0 0 0-.123.076.194.194 0 0 0-.046.137c0 .079.029.139.087.18.06.039.134.059.225.059zm1.657.756a.843.843 0 0 1-.284-.043.6.6 0 0 1-.322-.254l.181-.127c.021.026.047.057.079.092a.395.395 0 0 0 .129.092c.055.026.127.04.216.04a.48.48 0 0 0 .296-.088c.078-.057.117-.148.117-.271v-.301h-.02a1.2 1.2 0 0 1-.07.1.405.405 0 0 1-.132.105.49.49 0 0 1-.23.046.617.617 0 0 1-.321-.085.594.594 0 0 1-.225-.247.864.864 0 0 1-.082-.393c0-.152.027-.284.08-.396a.588.588 0 0 1 .552-.356c.097 0 .174.016.23.048a.414.414 0 0 1 .131.108c.031.04.055.073.072.098h.023v-.235h.22v1.523c0 .127-.03.23-.087.31a.494.494 0 0 1-.232.177.873.873 0 0 1-.322.057zm-.008-.814a.41.41 0 0 0 .231-.063.39.39 0 0 0 .144-.18.727.727 0 0 0 .049-.281.773.773 0 0 0-.048-.283.423.423 0 0 0-.143-.191.383.383 0 0 0-.233-.07.387.387 0 0 0-.241.073.446.446 0 0 0-.144.197.76.76 0 0 0-.047.274c0 .103.016.194.048.273a.42.42 0 0 0 .145.185.41.41 0 0 0 .239.066zm1.685.258a.696.696 0 0 1-.37-.094.634.634 0 0 1-.238-.266.907.907 0 0 1-.082-.4c0-.15.027-.284.082-.4a.627.627 0 0 1 .584-.37c.078 0 .154.013.229.038a.566.566 0 0 1 .353.353.97.97 0 0 1 .055.35v.095h-1.142v-.196h.91a.486.486 0 0 0-.05-.224.379.379 0 0 0-.354-.212.409.409 0 0 0-.236.068.444.444 0 0 0-.151.173.51.51 0 0 0-.053.23v.13c0 .112.02.207.058.285a.41.41 0 0 0 .163.176c.07.04.15.06.242.06a.49.49 0 0 0 .162-.025.345.345 0 0 0 .126-.077.35.35 0 0 0 .082-.13l.22.063a.488.488 0 0 1-.117.196.57.57 0 0 1-.203.131.751.751 0 0 1-.27.046zm2.158.004a.602.602 0 0 1-.256-.053.438.438 0 0 1-.182-.155.438.438 0 0 1-.067-.247.38.38 0 0 1 .05-.206.355.355 0 0 1 .134-.125.705.705 0 0 1 .185-.068c.068-.015.136-.027.205-.036.09-.012.163-.02.219-.026a.34.34 0 0 0 .123-.032c.027-.015.04-.04.04-.077v-.008a.302.302 0 0 0-.078-.222c-.052-.052-.13-.079-.234-.079a.41.41 0 0 0-.256.072.423.423 0 0 0-.13.152l-.216-.077a.519.519 0 0 1 .366-.316.879.879 0 0 1 .228-.031c.047 0 .102.006.164.017a.524.524 0 0 1 .18.069.403.403 0 0 1 .145.157c.039.07.058.164.058.281v.976h-.227v-.2h-.012a.446.446 0 0 1-.22.197.553.553 0 0 1-.22.037zm.034-.204c.09 0 .166-.018.228-.053a.36.36 0 0 0 .189-.313v-.209c-.01.012-.031.023-.064.032a.868.868 0 0 1-.112.024 5.45 5.45 0 0 1-.218.03.872.872 0 0 0-.165.037.285.285 0 0 0-.124.076.194.194 0 0 0-.046.137c0 .079.03.139.088.18a.4.4 0 0 0 .224.059zm1.66.2a.64.64 0 0 1-.358-.098.64.64 0 0 1-.231-.27.917.917 0 0 1-.081-.395.91.91 0 0 1 .083-.398.627.627 0 0 1 .584-.37c.104 0 .198.02.282.059a.505.505 0 0 1 .304.405h-.227a.346.346 0 0 0-.355-.258.4.4 0 0 0-.233.069.452.452 0 0 0-.156.193.718.718 0 0 0-.054.292c0 .115.018.214.053.3a.46.46 0 0 0 .155.197c.067.047.145.07.235.07.059 0 .113-.01.16-.03a.333.333 0 0 0 .195-.228h.227a.526.526 0 0 1-.295.402.643.643 0 0 1-.287.06zm1.517 0a.64.64 0 0 1-.358-.098.64.64 0 0 1-.232-.27.919.919 0 0 1-.08-.395c0-.15.027-.283.082-.398a.627.627 0 0 1 .584-.37c.104 0 .198.02.282.059a.505.505 0 0 1 .305.405h-.228a.346.346 0 0 0-.355-.258.4.4 0 0 0-.233.069.452.452 0 0 0-.155.193.718.718 0 0 0-.055.292c0 .115.018.214.054.3.036.084.088.15.154.197.067.047.145.07.235.07.06 0 .113-.01.161-.03a.333.333 0 0 0 .194-.228h.227a.528.528 0 0 1-.295.402.643.643 0 0 1-.287.06zm1.516 0a.646.646 0 0 1-.352-.095.647.647 0 0 1-.235-.267.903.903 0 0 1-.084-.4c0-.155.028-.29.084-.405a.646.646 0 0 1 .235-.268.645.645 0 0 1 .352-.095.64.64 0 0 1 .351.095c.1.064.18.153.235.268a.9.9 0 0 1 .085.404.893.893 0 0 1-.085.401.64.64 0 0 1-.235.267.64.64 0 0 1-.35.095zm0-.204a.39.39 0 0 0 .25-.078.46.46 0 0 0 .146-.205.786.786 0 0 0 .048-.276.794.794 0 0 0-.048-.277.467.467 0 0 0-.145-.207.387.387 0 0 0-.25-.079.387.387 0 0 0-.251.08.466.466 0 0 0-.146.206.794.794 0 0 0-.047.277c0 .099.015.19.047.276a.46.46 0 0 0 .146.205.39.39 0 0 0 .25.078zm1.951-.432v-.875h.228v1.48h-.228v-.25h-.015a.485.485 0 0 1-.162.192.467.467 0 0 1-.278.078.495.495 0 0 1-.246-.06.426.426 0 0 1-.17-.186.703.703 0 0 1-.062-.313v-.94h.228v.924c0 .108.03.195.09.259a.308.308 0 0 0 .234.096.386.386 0 0 0 .32-.176.396.396 0 0 0 .061-.229zm.872-.285v.89h-.228v-1.48h.22v.231h.02a.424.424 0 0 1 .157-.18.492.492 0 0 1 .274-.07c.1 0 .188.02.263.061a.418.418 0 0 1 .176.186.688.688 0 0 1 .062.312v.94h-.227v-.925a.383.383 0 0 0-.09-.272.321.321 0 0 0-.25-.098.397.397 0 0 0-.194.047.338.338 0 0 0-.134.138.455.455 0 0 0-.05.22zm2.004-.59v.193h-.767v-.193h.767zm-.544-.355h.228v1.412a.3.3 0 0 0 .028.144.14.14 0 0 0 .073.064.3.3 0 0 0 .095.015.414.414 0 0 0 .062-.004l.039-.007.046.204a.471.471 0 0 1-.358-.014.375.375 0 0 1-.153-.127.362.362 0 0 1-.06-.214v-1.473zm29.452.521a.12.12 0 0 1-.038.088l-1.05 1.027a.12.12 0 0 1-.087.036.119.119 0 0 1-.12-.12c0-.035.012-.064.034-.087l.965-.944-.965-.943a.126.126 0 0 1-.035-.087c0-.068.053-.12.12-.12.035 0 .064.012.088.034l1.05 1.029a.119.119 0 0 1 .038.087z"/><path fill="#000" fill-opacity=".2" d="M65.332 62.827a.12.12 0 0 1-.038.088l-1.05 1.027a.12.12 0 0 1-.087.036.119.119 0 0 1-.12-.12c0-.035.012-.064.034-.087l.965-.944-.965-.943a.126.126 0 0 1-.035-.087c0-.068.053-.12.12-.12.035 0 .064.012.088.034l1.05 1.029a.119.119 0 0 1 .038.087z"/><path fill="#86858A" d="M8.174 73.071a.303.303 0 0 0-.141-.227.54.54 0 0 0-.303-.081.577.577 0 0 0-.23.042.367.367 0 0 0-.151.117.28.28 0 0 0-.017.305.333.333 0 0 0 .099.093c.04.024.081.045.125.06.044.016.084.029.12.038l.2.054c.052.014.11.032.172.056a.794.794 0 0 1 .183.097.45.45 0 0 1 .201.39.52.52 0 0 1-.084.29.571.571 0 0 1-.243.205.889.889 0 0 1-.386.076.905.905 0 0 1-.367-.068.544.544 0 0 1-.342-.475h.246a.309.309 0 0 0 .075.185c.045.048.1.084.168.108a.68.68 0 0 0 .22.035.646.646 0 0 0 .246-.045.422.422 0 0 0 .172-.125.297.297 0 0 0 .064-.189.232.232 0 0 0-.055-.16.403.403 0 0 0-.145-.1 1.524 1.524 0 0 0-.194-.068l-.242-.07a.905.905 0 0 1-.367-.189.417.417 0 0 1-.135-.323c0-.11.03-.207.09-.289a.595.595 0 0 1 .243-.193.82.82 0 0 1 .342-.07c.127 0 .24.024.34.07a.587.587 0 0 1 .234.184.46.46 0 0 1 .093.267h-.231zm.848.59v.89h-.228v-1.973h.228v.725h.019a.418.418 0 0 1 .156-.183.506.506 0 0 1 .28-.068c.1 0 .189.02.265.06.075.04.134.102.176.185a.684.684 0 0 1 .064.314v.94h-.228v-.925a.38.38 0 0 0-.091-.272.327.327 0 0 0-.252-.098.42.42 0 0 0-.2.048.345.345 0 0 0-.14.137.448.448 0 0 0-.05.22zm1.812.925a.6.6 0 0 1-.256-.053.438.438 0 0 1-.182-.155.438.438 0 0 1-.068-.246.38.38 0 0 1 .05-.207.354.354 0 0 1 .134-.125.705.705 0 0 1 .186-.067c.068-.016.136-.028.205-.037.09-.012.163-.02.219-.026a.336.336 0 0 0 .123-.032c.026-.015.04-.04.04-.077v-.008a.302.302 0 0 0-.079-.221c-.05-.053-.129-.08-.234-.08a.41.41 0 0 0-.255.072.422.422 0 0 0-.13.152l-.216-.077a.519.519 0 0 1 .366-.316.883.883 0 0 1 .227-.031c.048 0 .103.006.164.017a.526.526 0 0 1 .18.069.402.402 0 0 1 .146.157c.039.07.058.164.058.281v.976h-.227v-.2h-.012a.446.446 0 0 1-.22.197.553.553 0 0 1-.22.038zm.034-.204c.09 0 .166-.018.228-.053a.36.36 0 0 0 .189-.313v-.208a.139.139 0 0 1-.064.031c-.032.01-.07.017-.112.025a4.92 4.92 0 0 1-.218.028.865.865 0 0 0-.165.038.286.286 0 0 0-.124.076.194.194 0 0 0-.046.137c0 .08.03.139.088.18.059.04.134.06.224.06zm1.06.17v-1.48h.219v.223h.015a.355.355 0 0 1 .147-.178.43.43 0 0 1 .239-.069 2.785 2.785 0 0 1 .12.004v.231a.7.7 0 0 0-.14-.015.403.403 0 0 0-.192.045.332.332 0 0 0-.181.302v.937h-.228zm1.585.03a.696.696 0 0 1-.37-.094.634.634 0 0 1-.238-.266.908.908 0 0 1-.082-.399.92.92 0 0 1 .082-.4.627.627 0 0 1 .584-.37.7.7 0 0 1 .23.037.567.567 0 0 1 .352.353.967.967 0 0 1 .055.35v.096h-1.141v-.197h.91a.485.485 0 0 0-.05-.224.378.378 0 0 0-.355-.212.408.408 0 0 0-.236.068.444.444 0 0 0-.15.173.51.51 0 0 0-.054.23v.13c0 .113.02.207.058.285a.424.424 0 0 0 .405.237.51.51 0 0 0 .162-.026.345.345 0 0 0 .126-.077.35.35 0 0 0 .082-.13l.22.063a.487.487 0 0 1-.117.196.569.569 0 0 1-.202.131.75.75 0 0 1-.271.047z"/><rect width="63.784" height="8.821" x="5.159" y="76.552" fill="#fff" rx="1.696"/><path fill="#000" d="M10.293 82.249a.19.19 0 0 1-.195-.194v-.633h-.048c-.641 0-1.047.163-1.335.704a.21.21 0 0 1-.204.123c-.09 0-.17-.08-.17-.222 0-1.224.518-1.988 1.709-1.988h.048v-.626c0-.111.083-.202.199-.202.08 0 .136.034.223.117l1.307 1.223a.24.24 0 0 1 .085.179.242.242 0 0 1-.085.177l-1.307 1.234c-.08.075-.145.108-.227.108zm.095-.356c.01 0 .02-.005.028-.015l1.181-1.117c.013-.013.017-.021.017-.031 0-.01-.005-.02-.017-.032l-1.18-1.131c-.008-.007-.018-.013-.027-.013-.015 0-.025.01-.025.023v.657c0 .038-.017.055-.055.055h-.222c-1.138 0-1.48.789-1.513 1.57 0 .014.005.019.012.019.008 0 .012-.005.017-.017.195-.416.697-.689 1.484-.689h.222c.038 0 .055.017.055.055v.64c0 .016.01.026.023.026zm6.098-1.412a.302.302 0 0 0-.14-.227.54.54 0 0 0-.303-.081.575.575 0 0 0-.23.042.366.366 0 0 0-.152.117.28.28 0 0 0-.016.305.333.333 0 0 0 .098.093.7.7 0 0 0 .125.06c.044.016.084.029.12.038l.201.054c.052.014.109.032.172.056a.794.794 0 0 1 .182.098.45.45 0 0 1 .201.39.52.52 0 0 1-.084.29.571.571 0 0 1-.242.205.89.89 0 0 1-.387.076.905.905 0 0 1-.367-.069.544.544 0 0 1-.342-.475h.246a.31.31 0 0 0 .076.185.41.41 0 0 0 .167.108.68.68 0 0 0 .22.035.648.648 0 0 0 .246-.045.422.422 0 0 0 .172-.125.297.297 0 0 0 .064-.189.232.232 0 0 0-.055-.16.403.403 0 0 0-.144-.1 1.525 1.525 0 0 0-.194-.068l-.243-.069a.905.905 0 0 1-.366-.19.417.417 0 0 1-.135-.323c0-.11.03-.207.09-.289a.596.596 0 0 1 .242-.193.821.821 0 0 1 .342-.07.8.8 0 0 1 .34.07.586.586 0 0 1 .235.184c.058.079.09.168.092.267h-.231zm.848.59v.89h-.227v-1.973h.227v.725h.02a.418.418 0 0 1 .155-.182.506.506 0 0 1 .28-.069c.1 0 .19.02.265.06.076.04.135.102.176.185a.683.683 0 0 1 .064.314v.94h-.227v-.924a.38.38 0 0 0-.092-.273.327.327 0 0 0-.252-.097.42.42 0 0 0-.2.047.345.345 0 0 0-.139.138.448.448 0 0 0-.05.22zm1.812.926a.602.602 0 0 1-.256-.053.438.438 0 0 1-.182-.156.437.437 0 0 1-.067-.246.38.38 0 0 1 .05-.207.354.354 0 0 1 .134-.125.705.705 0 0 1 .185-.067c.068-.016.136-.028.205-.037.09-.012.163-.02.219-.026a.336.336 0 0 0 .123-.032c.027-.015.04-.04.04-.077v-.008a.302.302 0 0 0-.078-.221c-.052-.053-.13-.08-.234-.08a.409.409 0 0 0-.256.072.422.422 0 0 0-.13.152l-.216-.077a.519.519 0 0 1 .366-.316.879.879 0 0 1 .228-.03.87.87 0 0 1 .164.017c.062.01.122.033.18.068a.402.402 0 0 1 .146.157c.038.07.057.164.057.282v.975h-.227v-.2h-.012a.445.445 0 0 1-.22.197.554.554 0 0 1-.22.038zm.034-.205c.09 0 .166-.017.228-.053a.362.362 0 0 0 .189-.313v-.208a.148.148 0 0 1-.064.032c-.032.009-.07.017-.111.024a5.54 5.54 0 0 1-.218.029.872.872 0 0 0-.166.037.286.286 0 0 0-.123.076.194.194 0 0 0-.047.137c0 .08.03.139.088.18.059.04.134.06.224.06zm1.06.17v-1.48h.22v.223h.015a.356.356 0 0 1 .146-.178.432.432 0 0 1 .24-.069 2.28 2.28 0 0 1 .119.004v.231a.658.658 0 0 0-.139-.015.403.403 0 0 0-.193.045.333.333 0 0 0-.181.302v.937h-.227zm1.585.03a.696.696 0 0 1-.37-.094.634.634 0 0 1-.237-.266.907.907 0 0 1-.083-.399.92.92 0 0 1 .083-.4.626.626 0 0 1 .584-.37.69.69 0 0 1 .228.038.566.566 0 0 1 .353.352.97.97 0 0 1 .055.35v.096h-1.141v-.197h.91a.486.486 0 0 0-.05-.224.378.378 0 0 0-.355-.212.408.408 0 0 0-.235.068.443.443 0 0 0-.152.174.51.51 0 0 0-.053.229v.13c0 .113.02.208.058.285a.43.43 0 0 0 .163.177c.07.04.15.06.242.06.06 0 .114-.009.162-.026a.349.349 0 0 0 .126-.077.351.351 0 0 0 .082-.129l.22.062a.487.487 0 0 1-.117.196.568.568 0 0 1-.202.132.751.751 0 0 1-.27.046zm2.366-1.51v.192h-.767v-.193h.767zm-.543-.355h.227v1.41c0 .065.01.113.028.145.02.032.044.053.073.064.03.01.062.015.096.015a.413.413 0 0 0 .062-.003l.038-.008.046.204a.46.46 0 0 1-.17.027.457.457 0 0 1-.188-.041.375.375 0 0 1-.152-.126.363.363 0 0 1-.06-.214v-1.473zm1.145.944v.89h-.228v-1.973h.228v.725h.02a.418.418 0 0 1 .155-.182.506.506 0 0 1 .28-.069c.1 0 .189.02.265.06a.41.41 0 0 1 .176.185.683.683 0 0 1 .064.314v.94h-.228v-.924a.38.38 0 0 0-.091-.273.327.327 0 0 0-.252-.097.42.42 0 0 0-.2.047.346.346 0 0 0-.14.138.448.448 0 0 0-.05.22zm1.997.922a.696.696 0 0 1-.37-.095.634.634 0 0 1-.238-.266.907.907 0 0 1-.082-.399.92.92 0 0 1 .082-.4.626.626 0 0 1 .584-.37c.078 0 .154.012.229.038a.566.566 0 0 1 .353.352.97.97 0 0 1 .055.35v.096h-1.141v-.197h.91a.486.486 0 0 0-.05-.224.378.378 0 0 0-.355-.212.408.408 0 0 0-.236.068.443.443 0 0 0-.151.174.51.51 0 0 0-.053.229v.13c0 .113.02.208.058.285a.424.424 0 0 0 .405.237c.06 0 .113-.009.162-.026a.349.349 0 0 0 .126-.077.351.351 0 0 0 .082-.129l.22.062a.487.487 0 0 1-.117.196.568.568 0 0 1-.203.132.751.751 0 0 1-.27.046zm1.834-.031h-.25l.724-1.974h.247l.725 1.974h-.25l-.59-1.662h-.016l-.59 1.662zm.092-.771h1.01v.212h-1.01v-.212zm1.661.77v-1.973h.667c.155 0 .282.028.38.084.099.055.172.13.22.224.047.095.071.2.071.316a.7.7 0 0 1-.071.318.53.53 0 0 1-.218.227.758.758 0 0 1-.378.084h-.478v-.212h.47a.514.514 0 0 0 .256-.055.328.328 0 0 0 .14-.148.496.496 0 0 0 .044-.213.49.49 0 0 0-.044-.213.316.316 0 0 0-.141-.146.532.532 0 0 0-.259-.054h-.42v1.762h-.239zm1.723 0v-1.973h.667c.155 0 .281.028.38.084.099.055.172.13.22.224.047.095.07.2.07.316a.7.7 0 0 1-.07.318.53.53 0 0 1-.218.227.758.758 0 0 1-.378.084h-.478v-.212h.47a.514.514 0 0 0 .256-.055.328.328 0 0 0 .14-.148.496.496 0 0 0 .044-.213.49.49 0 0 0-.045-.213.316.316 0 0 0-.14-.146.532.532 0 0 0-.259-.054h-.42v1.762H32.1zm33.232-1.313a.12.12 0 0 1-.038.087l-1.05 1.027a.119.119 0 0 1-.087.036.119.119 0 0 1-.12-.12c0-.035.012-.064.034-.087l.965-.943-.965-.944a.126.126 0 0 1-.035-.086c0-.07.053-.12.12-.12.035 0 .064.011.088.034l1.05 1.028a.118.118 0 0 1 .038.088z"/><path fill="#000" fill-opacity=".2" d="M65.332 80.648a.12.12 0 0 1-.038.087l-1.05 1.027a.119.119 0 0 1-.087.036.119.119 0 0 1-.12-.12c0-.035.012-.064.034-.087l.965-.943-.965-.944a.126.126 0 0 1-.035-.086c0-.07.053-.12.12-.12.035 0 .064.011.088.034l1.05 1.028a.118.118 0 0 1 .038.088z"/><path fill="#86858A" d="M8.174 90.607a.303.303 0 0 0-.141-.227.54.54 0 0 0-.303-.081.575.575 0 0 0-.23.042.366.366 0 0 0-.151.117.28.28 0 0 0-.017.305.334.334 0 0 0 .099.093c.04.025.081.045.125.06.044.016.084.029.12.038l.2.054c.052.014.11.032.172.056a.79.79 0 0 1 .183.098.45.45 0 0 1 .201.39.52.52 0 0 1-.084.29.57.57 0 0 1-.243.204.889.889 0 0 1-.386.077.905.905 0 0 1-.367-.069.544.544 0 0 1-.342-.475h.246a.309.309 0 0 0 .075.185c.045.048.1.084.168.108a.68.68 0 0 0 .22.035.646.646 0 0 0 .246-.045.421.421 0 0 0 .172-.125.297.297 0 0 0 .064-.189.232.232 0 0 0-.055-.16.403.403 0 0 0-.145-.1 1.524 1.524 0 0 0-.194-.068l-.242-.069a.904.904 0 0 1-.367-.19.417.417 0 0 1-.135-.323c0-.11.03-.207.09-.289a.595.595 0 0 1 .243-.193.821.821 0 0 1 .342-.07.8.8 0 0 1 .34.07.586.586 0 0 1 .234.184.46.46 0 0 1 .093.267h-.231zm1.553.876v-.876h.228v1.48h-.228v-.25h-.015a.486.486 0 0 1-.162.192.468.468 0 0 1-.278.078.494.494 0 0 1-.247-.06.425.425 0 0 1-.17-.186.703.703 0 0 1-.06-.313v-.94h.227v.925c0 .108.03.194.09.258a.308.308 0 0 0 .234.096.388.388 0 0 0 .381-.404zm.644 1.16v-2.036h.22v.236h.027a1.91 1.91 0 0 1 .07-.099.407.407 0 0 1 .129-.108.465.465 0 0 1 .229-.048.588.588 0 0 1 .552.359.95.95 0 0 1 .08.404.962.962 0 0 1-.08.408.58.58 0 0 1-.548.36.474.474 0 0 1-.229-.047.422.422 0 0 1-.132-.11 1.433 1.433 0 0 1-.071-.102h-.02v.783h-.227zm.224-1.295c0 .112.016.21.05.296.032.084.08.15.143.2.063.047.14.07.231.07a.373.373 0 0 0 .238-.075.46.46 0 0 0 .145-.204.804.804 0 0 0 .049-.287.777.777 0 0 0-.048-.282.434.434 0 0 0-.144-.2.379.379 0 0 0-.24-.073.38.38 0 0 0-.376.264.8.8 0 0 0-.048.29zm1.43 1.295v-2.036h.22v.236h.027a1.91 1.91 0 0 1 .07-.099.407.407 0 0 1 .129-.108.465.465 0 0 1 .229-.048.588.588 0 0 1 .552.359.95.95 0 0 1 .08.404.962.962 0 0 1-.08.408.58.58 0 0 1-.549.36.473.473 0 0 1-.228-.047.422.422 0 0 1-.132-.11 1.433 1.433 0 0 1-.071-.102h-.02v.783h-.227zm.224-1.295c0 .112.016.21.049.296.033.084.08.15.144.2.063.047.14.07.231.07a.373.373 0 0 0 .238-.075.46.46 0 0 0 .145-.204.802.802 0 0 0 .049-.287.78.78 0 0 0-.048-.282.435.435 0 0 0-.144-.2.379.379 0 0 0-.24-.073.38.38 0 0 0-.376.264.8.8 0 0 0-.048.29zm2.032.77a.646.646 0 0 1-.352-.095.649.649 0 0 1-.235-.267.903.903 0 0 1-.084-.4c0-.155.028-.29.084-.404a.649.649 0 0 1 .235-.269.646.646 0 0 1 .352-.095.636.636 0 0 1 .586.363c.056.116.085.25.085.404a.894.894 0 0 1-.085.401.64.64 0 0 1-.235.267.641.641 0 0 1-.351.096zm0-.204a.39.39 0 0 0 .25-.078.46.46 0 0 0 .146-.205.788.788 0 0 0 .047-.276.796.796 0 0 0-.047-.276.466.466 0 0 0-.146-.207.387.387 0 0 0-.25-.08.387.387 0 0 0-.25.08.466.466 0 0 0-.146.207.794.794 0 0 0-.048.276c0 .1.016.191.048.276a.46.46 0 0 0 .145.205.39.39 0 0 0 .25.078zm1.018.174v-1.48h.22v.223h.015a.356.356 0 0 1 .146-.178.431.431 0 0 1 .24-.069 2.707 2.707 0 0 1 .119.004v.232a.613.613 0 0 0-.053-.01.522.522 0 0 0-.086-.006.403.403 0 0 0-.193.045.333.333 0 0 0-.181.302v.937H15.3zm1.746-1.48v.192h-.767v-.193h.767zm-.543-.355h.227v1.41c0 .065.01.113.028.145.02.032.044.053.073.064.03.01.062.015.096.015a.415.415 0 0 0 .062-.003l.038-.008.046.204a.465.465 0 0 1-.17.027.457.457 0 0 1-.188-.041.376.376 0 0 1-.153-.127.363.363 0 0 1-.06-.213v-1.473z"/><rect width="63.784" height="8.821" x="5.159" y="94.088" fill="#fff" rx="1.696"/><path fill="#000" d="m11.863 96.982-.23-.234.124-.122c.056-.057.139-.062.192-.008l.04.04c.057.056.056.137-.002.198l-.124.126zm-1.92 1.731c-.032.015-.067-.025-.052-.053l.16-.326 1.455-1.458.234.23-1.46 1.458-.338.15zm-2.388 1.075c-.311 0-.483-.164-.483-.477v-1.367c0-.313.172-.477.483-.477h3.002l-.25.249H7.554c-.138 0-.216.078-.216.215v1.393c0 .138.078.216.216.216h3.265c.137 0 .215-.078.215-.216v-1.158l.267-.266v1.411c0 .313-.172.477-.484.477H7.555zm.396-.924a.237.237 0 1 1 0-.474.237.237 0 0 1 0 .474zm.714 0a.237.237 0 1 1 0-.474.237.237 0 0 1 0 .474zm.714 0a.237.237 0 1 1 0-.474.237.237 0 0 1 0 .474zm6.027.634v-1.974h.667c.155 0 .281.026.38.08a.504.504 0 0 1 .22.214.664.664 0 0 1 .071.311c0 .117-.023.22-.071.31a.503.503 0 0 1-.219.212.819.819 0 0 1-.377.076h-.54v-.216h.533c.105 0 .19-.015.254-.046a.292.292 0 0 0 .14-.131.44.44 0 0 0 .045-.205.458.458 0 0 0-.044-.207.302.302 0 0 0-.142-.137.573.573 0 0 0-.257-.049h-.42v1.762h-.24zm.93-.887.485.887h-.277l-.478-.887h.27zm1.38.918a.696.696 0 0 1-.369-.095.634.634 0 0 1-.238-.266.907.907 0 0 1-.083-.399.92.92 0 0 1 .083-.4.627.627 0 0 1 .584-.37c.078 0 .154.012.229.038a.565.565 0 0 1 .353.353.97.97 0 0 1 .055.349v.096h-1.142v-.197h.91a.485.485 0 0 0-.05-.223.378.378 0 0 0-.354-.212.408.408 0 0 0-.236.067.444.444 0 0 0-.151.174.51.51 0 0 0-.053.229v.131c0 .112.02.207.058.284a.412.412 0 0 0 .163.177c.07.04.15.06.242.06.06 0 .113-.009.162-.026a.348.348 0 0 0 .126-.077.35.35 0 0 0 .082-.129l.22.062a.486.486 0 0 1-.117.197.569.569 0 0 1-.203.13.75.75 0 0 1-.27.047zm.96.524v-2.035h.22v.235h.026a2.1 2.1 0 0 1 .07-.099.407.407 0 0 1 .129-.108.464.464 0 0 1 .23-.048.587.587 0 0 1 .552.359.95.95 0 0 1 .08.405.962.962 0 0 1-.08.407.58.58 0 0 1-.549.36.475.475 0 0 1-.228-.047.425.425 0 0 1-.132-.11 1.462 1.462 0 0 1-.072-.101h-.019v.782h-.227zm.223-1.295c0 .112.017.21.05.296a.45.45 0 0 0 .143.2c.063.047.14.07.231.07a.373.373 0 0 0 .238-.075.46.46 0 0 0 .145-.204.801.801 0 0 0 .05-.287.78.78 0 0 0-.049-.282.436.436 0 0 0-.144-.2.38.38 0 0 0-.24-.073.38.38 0 0 0-.375.265.8.8 0 0 0-.049.29zm2.032.77a.646.646 0 0 1-.352-.095.649.649 0 0 1-.235-.267.903.903 0 0 1-.084-.4c0-.155.028-.29.084-.404a.647.647 0 0 1 .235-.268.646.646 0 0 1 .352-.096.64.64 0 0 1 .35.096.63.63 0 0 1 .236.268.9.9 0 0 1 .085.404.894.894 0 0 1-.085.4.64.64 0 0 1-.235.267.64.64 0 0 1-.35.096zm0-.203a.39.39 0 0 0 .25-.079.46.46 0 0 0 .146-.205.788.788 0 0 0 .047-.275.796.796 0 0 0-.047-.277.465.465 0 0 0-.145-.207.387.387 0 0 0-.25-.08.387.387 0 0 0-.252.08.465.465 0 0 0-.145.207.794.794 0 0 0-.047.276c0 .1.015.191.047.276a.46.46 0 0 0 .145.206.39.39 0 0 0 .251.078zm1.018.173v-1.48h.22v.223h.015a.355.355 0 0 1 .147-.178.43.43 0 0 1 .239-.069 2.293 2.293 0 0 1 .12.004v.232a.71.71 0 0 0-.14-.016.403.403 0 0 0-.192.046.332.332 0 0 0-.181.302v.936h-.228zm1.747-1.48v.192h-.768v-.192h.768zm-.544-.355h.227v1.41c0 .065.01.113.028.146.02.031.044.052.074.063a.3.3 0 0 0 .095.016.4.4 0 0 0 .062-.004l.038-.008.047.204a.463.463 0 0 1-.17.027.458.458 0 0 1-.189-.041.376.376 0 0 1-.152-.126.363.363 0 0 1-.06-.214v-1.473z"/><path fill="#86858A" d="M7.175 109.623h-.25l.724-1.974h.247l.725 1.974h-.25l-.59-1.662h-.016l-.59 1.662zm.093-.771h1.01v.212h-1.01v-.212zm1.66.771v-1.974h.228v.729h.02c.016-.026.039-.059.069-.099a.42.42 0 0 1 .129-.108.466.466 0 0 1 .23-.048.583.583 0 0 1 .551.359c.054.114.08.249.08.405a.961.961 0 0 1-.08.407.627.627 0 0 1-.221.266.575.575 0 0 1-.327.094.48.48 0 0 1-.228-.047.428.428 0 0 1-.133-.109 1.433 1.433 0 0 1-.07-.102h-.028v.227h-.22zm.224-.74c0 .112.016.21.05.296.032.085.08.151.143.199a.37.37 0 0 0 .231.072.374.374 0 0 0 .238-.076.457.457 0 0 0 .145-.204.802.802 0 0 0 .049-.287.784.784 0 0 0-.048-.282.435.435 0 0 0-.144-.199.376.376 0 0 0-.24-.074.379.379 0 0 0-.376.265.798.798 0 0 0-.048.29zm2.033.771a.642.642 0 0 1-.352-.096.64.64 0 0 1-.235-.267.9.9 0 0 1-.084-.4.91.91 0 0 1 .084-.404.643.643 0 0 1 .235-.268.642.642 0 0 1 .352-.096.636.636 0 0 1 .586.364.903.903 0 0 1 .085.404.891.891 0 0 1-.085.4.632.632 0 0 1-.586.363zm0-.204a.386.386 0 0 0 .25-.079.458.458 0 0 0 .146-.205.787.787 0 0 0 .047-.275.794.794 0 0 0-.047-.277.458.458 0 0 0-.146-.207.386.386 0 0 0-.25-.079.386.386 0 0 0-.25.079.459.459 0 0 0-.146.207.796.796 0 0 0-.048.277c0 .098.016.19.048.275.031.085.08.153.145.205.066.053.15.079.25.079zm1.95-.432v-.875h.228v1.48h-.227v-.251h-.015a.476.476 0 0 1-.162.192.468.468 0 0 1-.278.078.43.43 0 0 1-.416-.245.705.705 0 0 1-.062-.314v-.94h.227v.925c0 .108.03.194.09.258a.31.31 0 0 0 .234.097.387.387 0 0 0 .173-.044.376.376 0 0 0 .209-.361zm1.289-.875v.192h-.767v-.192h.767zm-.544-.355h.228v1.411a.3.3 0 0 0 .028.145.143.143 0 0 0 .073.063.3.3 0 0 0 .095.016.49.49 0 0 0 .062-.004l.039-.008.046.204a.449.449 0 0 1-.17.027.451.451 0 0 1-.189-.041.382.382 0 0 1-.152-.126.363.363 0 0 1-.06-.214v-1.473z"/><rect width="63.784" height="35.535" x="5.159" y="111.623" fill="#fff" rx="1.696"/><path fill="#000" d="M8.683 115.557v-.212h1.48v.212h-.62v1.762h-.24v-1.762h-.62zm2.224 1.793a.696.696 0 0 1-.369-.094.64.64 0 0 1-.238-.266.91.91 0 0 1-.083-.399.92.92 0 0 1 .083-.401.623.623 0 0 1 .584-.37.7.7 0 0 1 .229.038.581.581 0 0 1 .352.353.97.97 0 0 1 .055.349v.096h-1.14v-.196h.91a.487.487 0 0 0-.05-.224.375.375 0 0 0-.141-.155.393.393 0 0 0-.214-.057.408.408 0 0 0-.235.067.451.451 0 0 0-.151.174.508.508 0 0 0-.053.229v.131c0 .112.019.207.057.285a.422.422 0 0 0 .405.236.51.51 0 0 0 .162-.025.355.355 0 0 0 .126-.077.356.356 0 0 0 .082-.129l.22.061a.488.488 0 0 1-.117.197.574.574 0 0 1-.202.131.747.747 0 0 1-.27.046zm.96-.031v-1.48h.219v.223h.015a.357.357 0 0 1 .147-.178.436.436 0 0 1 .239-.068 1.492 1.492 0 0 1 .12.004v.231a.654.654 0 0 0-.14-.016.406.406 0 0 0-.192.046.335.335 0 0 0-.181.301v.937h-.228zm1.01 0v-1.48h.219v.231h.02c.03-.079.08-.14.149-.184a.45.45 0 0 1 .247-.066c.098 0 .18.022.244.066a.436.436 0 0 1 .153.184h.016a.434.434 0 0 1 .17-.182.516.516 0 0 1 .273-.068c.133 0 .24.041.325.124.084.082.126.21.126.384v.991h-.227v-.991c0-.109-.03-.187-.09-.234a.331.331 0 0 0-.21-.07.31.31 0 0 0-.243.094.34.34 0 0 0-.086.237v.964h-.231v-1.014a.265.265 0 0 0-.082-.203.294.294 0 0 0-.211-.078.316.316 0 0 0-.166.047.36.36 0 0 0-.123.131.385.385 0 0 0-.046.192v.925h-.228zm3.407-1.149-.204.058a.375.375 0 0 0-.057-.099.272.272 0 0 0-.1-.081.367.367 0 0 0-.164-.032.387.387 0 0 0-.226.063c-.06.041-.09.093-.09.157 0 .057.02.101.062.134a.51.51 0 0 0 .193.082l.22.054a.607.607 0 0 1 .296.147.35.35 0 0 1 .097.254.38.38 0 0 1-.073.227.48.48 0 0 1-.203.158.733.733 0 0 1-.303.058.67.67 0 0 1-.374-.098.437.437 0 0 1-.188-.287l.216-.054a.3.3 0 0 0 .116.179.39.39 0 0 0 .227.06.42.42 0 0 0 .252-.068c.063-.045.095-.1.095-.164a.173.173 0 0 0-.054-.129.354.354 0 0 0-.166-.079l-.247-.058a.59.59 0 0 1-.299-.149.36.36 0 0 1-.094-.255c0-.084.023-.158.07-.222a.475.475 0 0 1 .194-.151.674.674 0 0 1 .28-.055c.146 0 .261.032.345.096a.52.52 0 0 1 .179.254zm1.568 1.184a.607.607 0 0 1-.255-.053.441.441 0 0 1-.182-.155.439.439 0 0 1-.068-.247c0-.085.017-.153.05-.206a.346.346 0 0 1 .134-.125.685.685 0 0 1 .185-.068c.069-.015.137-.028.206-.037l.218-.026a.347.347 0 0 0 .124-.031c.026-.015.04-.041.04-.078v-.007a.303.303 0 0 0-.079-.222c-.051-.053-.13-.079-.234-.079a.413.413 0 0 0-.255.071.427.427 0 0 0-.13.153l-.216-.077a.528.528 0 0 1 .366-.317.861.861 0 0 1 .391-.013.54.54 0 0 1 .18.068.404.404 0 0 1 .146.157.588.588 0 0 1 .058.282v.975h-.228v-.2h-.011a.428.428 0 0 1-.22.196.548.548 0 0 1-.22.039zm.035-.204c.09 0 .166-.018.227-.053a.365.365 0 0 0 .19-.314v-.208c-.01.012-.031.022-.064.032a1.06 1.06 0 0 1-.112.024c-.042.007-.083.012-.122.017l-.096.012a.843.843 0 0 0-.166.038.28.28 0 0 0-.123.076.193.193 0 0 0-.046.137c0 .079.029.138.087.179.06.04.134.06.225.06zm1.287-.721v.89h-.228v-1.48h.22v.231h.02a.426.426 0 0 1 .157-.181.494.494 0 0 1 .274-.069c.1 0 .188.02.263.061a.417.417 0 0 1 .175.185.692.692 0 0 1 .063.313v.94h-.227v-.925a.385.385 0 0 0-.091-.272.323.323 0 0 0-.249-.098.402.402 0 0 0-.194.047.344.344 0 0 0-.134.138.455.455 0 0 0-.05.22zm1.919.921a.582.582 0 0 1-.327-.093.634.634 0 0 1-.222-.266.961.961 0 0 1-.08-.408.95.95 0 0 1 .08-.405.622.622 0 0 1 .223-.265.59.59 0 0 1 .33-.093.46.46 0 0 1 .228.048c.057.031.1.067.13.108.03.04.053.072.07.098h.019v-.729h.227v1.974h-.22v-.227h-.026a1.44 1.44 0 0 1-.072.102.416.416 0 0 1-.132.109.48.48 0 0 1-.228.047zm.03-.204a.376.376 0 0 0 .232-.071.453.453 0 0 0 .144-.2.823.823 0 0 0 .049-.296.8.8 0 0 0-.048-.29.379.379 0 0 0-.376-.265.386.386 0 0 0-.385.274.789.789 0 0 0-.047.281c0 .105.016.201.048.287a.47.47 0 0 0 .145.205c.064.05.143.075.239.075zm2.461.204a.645.645 0 0 1-.358-.098.644.644 0 0 1-.232-.271.916.916 0 0 1-.08-.394.91.91 0 0 1 .082-.398.623.623 0 0 1 .584-.369c.105 0 .198.019.282.057a.51.51 0 0 1 .305.405h-.228a.354.354 0 0 0-.116-.179.345.345 0 0 0-.239-.079.401.401 0 0 0-.233.069.458.458 0 0 0-.155.194.718.718 0 0 0-.055.292c0 .114.018.214.054.299a.449.449 0 0 0 .154.197.399.399 0 0 0 .235.071c.06 0 .113-.01.161-.031a.333.333 0 0 0 .194-.227h.227a.527.527 0 0 1-.294.401.636.636 0 0 1-.288.061zm1.517 0a.65.65 0 0 1-.352-.095.654.654 0 0 1-.235-.267.905.905 0 0 1-.084-.401c0-.154.028-.289.084-.404a.65.65 0 0 1 .235-.268.642.642 0 0 1 .352-.095c.133 0 .25.031.35.095.101.064.18.153.235.268a.9.9 0 0 1 .085.404.896.896 0 0 1-.085.401.644.644 0 0 1-.235.267.646.646 0 0 1-.35.095zm0-.204a.39.39 0 0 0 .25-.078.46.46 0 0 0 .146-.206.779.779 0 0 0 .047-.275.798.798 0 0 0-.047-.277.47.47 0 0 0-.146-.207.386.386 0 0 0-.25-.079.386.386 0 0 0-.251.079.47.47 0 0 0-.146.207.798.798 0 0 0-.047.277.79.79 0 0 0 .047.275c.032.085.08.154.146.206a.39.39 0 0 0 .25.078zm1.245-.717v.89h-.227v-1.48h.22v.231h.019a.425.425 0 0 1 .158-.181.494.494 0 0 1 .273-.069c.1 0 .188.02.264.061a.417.417 0 0 1 .175.185.692.692 0 0 1 .063.313v.94h-.228v-.925a.385.385 0 0 0-.09-.272.323.323 0 0 0-.25-.098.402.402 0 0 0-.194.047.345.345 0 0 0-.134.138.456.456 0 0 0-.049.22zm1.92.921a.582.582 0 0 1-.55-.359.963.963 0 0 1-.08-.408c0-.156.028-.29.08-.405a.622.622 0 0 1 .224-.265.59.59 0 0 1 .33-.093.46.46 0 0 1 .228.048.38.38 0 0 1 .129.108c.03.04.053.072.07.098h.02v-.729h.227v1.974h-.22v-.227h-.027c-.017.027-.04.061-.071.102a.414.414 0 0 1-.36.156zm.03-.204a.376.376 0 0 0 .232-.071.451.451 0 0 0 .143-.2.82.82 0 0 0 .05-.296.803.803 0 0 0-.049-.29.378.378 0 0 0-.376-.265.386.386 0 0 0-.384.274.789.789 0 0 0-.048.281c0 .105.017.201.049.287a.47.47 0 0 0 .144.205c.064.05.144.075.24.075zm1.096.173v-1.48h.228v1.48h-.228zm.116-1.727a.162.162 0 0 1-.115-.045.146.146 0 0 1-.047-.109c0-.043.016-.079.047-.109a.162.162 0 0 1 .115-.045c.044 0 .082.015.114.045s.048.066.048.109a.145.145 0 0 1-.049.109.159.159 0 0 1-.113.045zm1.172.247v.193h-.767v-.193h.767zm-.544-.355h.228v1.411c0 .064.01.113.028.145.02.031.044.053.073.063a.352.352 0 0 0 .157.012l.039-.008.046.205a.5.5 0 0 1-.17.027.453.453 0 0 1-.188-.042.374.374 0 0 1-.153-.126.364.364 0 0 1-.06-.214v-1.473zm.886 1.835v-1.48h.228v1.48h-.228zm.116-1.727a.162.162 0 0 1-.115-.045.146.146 0 0 1-.047-.109c0-.043.016-.079.047-.109a.162.162 0 0 1 .115-.045c.044 0 .082.015.114.045s.048.066.048.109a.144.144 0 0 1-.048.109.159.159 0 0 1-.114.045zm1.13 1.758a.65.65 0 0 1-.352-.095.652.652 0 0 1-.235-.267.905.905 0 0 1-.084-.401c0-.154.028-.289.084-.404a.649.649 0 0 1 .235-.268.642.642 0 0 1 .352-.095c.133 0 .25.031.35.095.101.064.18.153.236.268.056.115.085.25.085.404a.895.895 0 0 1-.085.401.644.644 0 0 1-.235.267.646.646 0 0 1-.351.095zm0-.204a.39.39 0 0 0 .25-.078.462.462 0 0 0 .146-.206.779.779 0 0 0 .047-.275.798.798 0 0 0-.047-.277.47.47 0 0 0-.146-.207.386.386 0 0 0-.25-.079.386.386 0 0 0-.25.079.47.47 0 0 0-.146.207.798.798 0 0 0-.048.277c0 .099.016.191.048.275a.46.46 0 0 0 .145.206.39.39 0 0 0 .25.078zm1.245-.717v.89h-.227v-1.48h.22v.231h.019a.425.425 0 0 1 .158-.181.493.493 0 0 1 .274-.069c.1 0 .188.02.263.061a.418.418 0 0 1 .175.185.694.694 0 0 1 .063.313v.94h-.228v-.925a.385.385 0 0 0-.09-.272.323.323 0 0 0-.249-.098.402.402 0 0 0-.194.047.344.344 0 0 0-.135.138.455.455 0 0 0-.049.22zm2.41-.259-.205.058a.375.375 0 0 0-.057-.099.272.272 0 0 0-.1-.081.367.367 0 0 0-.163-.032.387.387 0 0 0-.227.063c-.06.041-.09.093-.09.157a.16.16 0 0 0 .063.134c.04.033.105.06.192.082l.22.054a.607.607 0 0 1 .296.147c.065.066.097.15.097.254 0 .085-.024.16-.073.227a.48.48 0 0 1-.202.158.733.733 0 0 1-.303.058.67.67 0 0 1-.375-.098.437.437 0 0 1-.188-.287l.216-.054a.3.3 0 0 0 .117.179.39.39 0 0 0 .226.06c.106 0 .19-.023.253-.068.063-.045.094-.1.094-.164a.173.173 0 0 0-.054-.129.354.354 0 0 0-.166-.079l-.246-.058a.59.59 0 0 1-.3-.149.36.36 0 0 1-.094-.255c0-.084.024-.158.07-.222a.475.475 0 0 1 .194-.151.674.674 0 0 1 .28-.055c.146 0 .261.032.345.096a.52.52 0 0 1 .18.254z"/></g><rect width="72.799" height="157.958" x=".991" y=".992" stroke="#000" stroke-width=".146" rx="5.016"/><defs><linearGradient id="b" x1="5.159" x2="62.864" y1="18.9" y2="30.596" gradientUnits="userSpaceOnUse"><stop stop-color="#3697FF"/><stop offset="1" stop-color="#0F54C2"/></linearGradient><clipPath id="a"><rect width="72.945" height="158.104" x=".918" y=".919" fill="#fff" rx="5.089"/></clipPath></defs></svg>