<svg xmlns="http://www.w3.org/2000/svg" x="0" y="0" version="1.1" viewBox="0 0 1148 1148" xml:space="preserve"><path fill="#FFF" d="M0 0H1148V1148H0z"/><path d="M0 0H100V100H0z" transform="translate(56 56) translate(224) scale(.28)"/><path d="M0 0H100V100H0z" transform="translate(56 56) translate(252) scale(.28)"/><path d="M0 0H100V100H0z" transform="translate(56 56) translate(280) scale(.28)"/><path d="M0 0H100V100H0z" transform="translate(56 56) translate(364) scale(.28)"/><path d="M0 0H100V100H0z" transform="translate(56 56) translate(420) scale(.28)"/><path d="M0 0H100V100H0z" transform="translate(56 56) translate(476) scale(.28)"/><path d="M0 0H100V100H0z" transform="translate(56 56) translate(532) scale(.28)"/><path d="M0 0H100V100H0z" transform="translate(56 56) translate(560) scale(.28)"/><path d="M0 0H100V100H0z" transform="translate(56 56) translate(616) scale(.28)"/><path d="M0 0H100V100H0z" transform="translate(56 56) translate(644) scale(.28)"/><path d="M0 0H100V100H0z" transform="translate(56 56) translate(672) scale(.28)"/><path d="M0 0H100V100H0z" transform="translate(56 56) translate(700) scale(.28)"/><path d="M0 0H100V100H0z" transform="translate(56 56) translate(728) scale(.28)"/><path d="M0 0H100V100H0z" transform="translate(56 56) translate(756) scale(.28)"/><path d="M0 0H100V100H0z" transform="translate(56 56) translate(784) scale(.28)"/><path d="M0 0H100V100H0z" transform="translate(56 56) matrix(.28 0 0 .28 280 28)"/><path d="M0 0H100V100H0z" transform="translate(56 56) matrix(.28 0 0 .28 308 28)"/><path d="M0 0H100V100H0z" transform="translate(56 56) matrix(.28 0 0 .28 336 28)"/><path d="M0 0H100V100H0z" transform="translate(56 56) matrix(.28 0 0 .28 448 28)"/><path d="M0 0H100V100H0z" transform="translate(56 56) matrix(.28 0 0 .28 532 28)"/><path d="M0 0H100V100H0z" transform="translate(56 56) matrix(.28 0 0 .28 588 28)"/><path d="M0 0H100V100H0z" transform="translate(56 56) matrix(.28 0 0 .28 700 28)"/><path d="M0 0H100V100H0z" transform="translate(56 56) matrix(.28 0 0 .28 728 28)"/><path d="M0 0H100V100H0z" transform="translate(56 56) matrix(.28 0 0 .28 784 28)"/><path d="M0 0H100V100H0z" transform="translate(56 56) matrix(.28 0 0 .28 252 56)"/><path d="M0 0H100V100H0z" transform="translate(56 56) matrix(.28 0 0 .28 280 56)"/><path d="M0 0H100V100H0z" transform="translate(56 56) matrix(.28 0 0 .28 336 56)"/><path d="M0 0H100V100H0z" transform="translate(56 56) matrix(.28 0 0 .28 392 56)"/><path d="M0 0H100V100H0z" transform="translate(56 56) matrix(.28 0 0 .28 476 56)"/><path d="M0 0H100V100H0z" transform="translate(56 56) matrix(.28 0 0 .28 504 56)"/><path d="M0 0H100V100H0z" transform="translate(56 56) matrix(.28 0 0 .28 588 56)"/><path d="M0 0H100V100H0z" transform="translate(56 56) matrix(.28 0 0 .28 224 84)"/><path d="M0 0H100V100H0z" transform="translate(56 56) matrix(.28 0 0 .28 252 84)"/><path d="M0 0H100V100H0z" transform="translate(56 56) matrix(.28 0 0 .28 280 84)"/><path d="M0 0H100V100H0z" transform="translate(56 56) matrix(.28 0 0 .28 308 84)"/><path d="M0 0H100V100H0z" transform="translate(56 56) matrix(.28 0 0 .28 392 84)"/><path d="M0 0H100V100H0z" transform="translate(56 56) matrix(.28 0 0 .28 448 84)"/><path d="M0 0H100V100H0z" transform="translate(56 56) matrix(.28 0 0 .28 504 84)"/><path d="M0 0H100V100H0z" transform="translate(56 56) matrix(.28 0 0 .28 616 84)"/><path d="M0 0H100V100H0z" transform="translate(56 56) matrix(.28 0 0 .28 644 84)"/><path d="M0 0H100V100H0z" transform="translate(56 56) matrix(.28 0 0 .28 672 84)"/><path d="M0 0H100V100H0z" transform="translate(56 56) matrix(.28 0 0 .28 700 84)"/><path d="M0 0H100V100H0z" transform="translate(56 56) matrix(.28 0 0 .28 728 84)"/><path d="M0 0H100V100H0z" transform="translate(56 56) matrix(.28 0 0 .28 224 112)"/><path d="M0 0H100V100H0z" transform="translate(56 56) matrix(.28 0 0 .28 252 112)"/><path d="M0 0H100V100H0z" transform="translate(56 56) matrix(.28 0 0 .28 280 112)"/><path d="M0 0H100V100H0z" transform="translate(56 56) matrix(.28 0 0 .28 364 112)"/><path d="M0 0H100V100H0z" transform="translate(56 56) matrix(.28 0 0 .28 476 112)"/><path d="M0 0H100V100H0z" transform="translate(56 56) matrix(.28 0 0 .28 560 112)"/><path d="M0 0H100V100H0z" transform="translate(56 56) matrix(.28 0 0 .28 644 112)"/><path d="M0 0H100V100H0z" transform="translate(56 56) matrix(.28 0 0 .28 728 112)"/><path d="M0 0H100V100H0z" transform="translate(56 56) matrix(.28 0 0 .28 756 112)"/><path d="M0 0H100V100H0z" transform="translate(56 56) matrix(.28 0 0 .28 784 112)"/><path d="M0 0H100V100H0z" transform="translate(56 56) matrix(.28 0 0 .28 224 140)"/><path d="M0 0H100V100H0z" transform="translate(56 56) matrix(.28 0 0 .28 280 140)"/><path d="M0 0H100V100H0z" transform="translate(56 56) matrix(.28 0 0 .28 308 140)"/><path d="M0 0H100V100H0z" transform="translate(56 56) matrix(.28 0 0 .28 336 140)"/><path d="M0 0H100V100H0z" transform="translate(56 56) matrix(.28 0 0 .28 392 140)"/><path d="M0 0H100V100H0z" transform="translate(56 56) matrix(.28 0 0 .28 420 140)"/><path d="M0 0H100V100H0z" transform="translate(56 56) matrix(.28 0 0 .28 476 140)"/><path d="M0 0H100V100H0z" transform="translate(56 56) matrix(.28 0 0 .28 532 140)"/><path d="M0 0H100V100H0z" transform="translate(56 56) matrix(.28 0 0 .28 560 140)"/><path d="M0 0H100V100H0z" transform="translate(56 56) matrix(.28 0 0 .28 616 140)"/><path d="M0 0H100V100H0z" transform="translate(56 56) matrix(.28 0 0 .28 700 140)"/><path d="M0 0H100V100H0z" transform="translate(56 56) matrix(.28 0 0 .28 728 140)"/><path d="M0 0H100V100H0z" transform="translate(56 56) matrix(.28 0 0 .28 224 168)"/><path d="M0 0H100V100H0z" transform="translate(56 56) matrix(.28 0 0 .28 280 168)"/><path d="M0 0H100V100H0z" transform="translate(56 56) matrix(.28 0 0 .28 336 168)"/><path d="M0 0H100V100H0z" transform="translate(56 56) matrix(.28 0 0 .28 392 168)"/><path d="M0 0H100V100H0z" transform="translate(56 56) matrix(.28 0 0 .28 448 168)"/><path d="M0 0H100V100H0z" transform="translate(56 56) matrix(.28 0 0 .28 504 168)"/><path d="M0 0H100V100H0z" transform="translate(56 56) matrix(.28 0 0 .28 560 168)"/><path d="M0 0H100V100H0z" transform="translate(56 56) matrix(.28 0 0 .28 616 168)"/><path d="M0 0H100V100H0z" transform="translate(56 56) matrix(.28 0 0 .28 672 168)"/><path d="M0 0H100V100H0z" transform="translate(56 56) matrix(.28 0 0 .28 728 168)"/><path d="M0 0H100V100H0z" transform="translate(56 56) matrix(.28 0 0 .28 784 168)"/><path d="M0 0H100V100H0z" transform="translate(56 56) matrix(.28 0 0 .28 224 196)"/><path d="M0 0H100V100H0z" transform="translate(56 56) matrix(.28 0 0 .28 280 196)"/><path d="M0 0H100V100H0z" transform="translate(56 56) matrix(.28 0 0 .28 308 196)"/><path d="M0 0H100V100H0z" transform="translate(56 56) matrix(.28 0 0 .28 532 196)"/><path d="M0 0H100V100H0z" transform="translate(56 56) matrix(.28 0 0 .28 588 196)"/><path d="M0 0H100V100H0z" transform="translate(56 56) matrix(.28 0 0 .28 644 196)"/><path d="M0 0H100V100H0z" transform="translate(56 56) matrix(.28 0 0 .28 672 196)"/><path d="M0 0H100V100H0z" transform="translate(56 56) matrix(.28 0 0 .28 728 196)"/><path d="M0 0H100V100H0z" transform="translate(56 56) matrix(.28 0 0 .28 756 196)"/><path d="M0 0H100V100H0z" transform="translate(56 56) matrix(.28 0 0 .28 784 196)"/><path d="M0 0H100V100H0z" transform="translate(56 56) matrix(.28 0 0 .28 0 224)"/><path d="M0 0H100V100H0z" transform="translate(56 56) matrix(.28 0 0 .28 112 224)"/><path d="M0 0H100V100H0z" transform="translate(56 56) matrix(.28 0 0 .28 168 224)"/><path d="M0 0H100V100H0z" transform="translate(56 56) matrix(.28 0 0 .28 196 224)"/><path d="M0 0H100V100H0z" transform="translate(56 56) matrix(.28 0 0 .28 224 224)"/><path d="M0 0H100V100H0z" transform="translate(56 56) matrix(.28 0 0 .28 308 224)"/><path d="M0 0H100V100H0z" transform="translate(56 56) matrix(.28 0 0 .28 336 224)"/><path d="M0 0H100V100H0z" transform="translate(56 56) matrix(.28 0 0 .28 364 224)"/><path d="M0 0H100V100H0z" transform="translate(56 56) matrix(.28 0 0 .28 392 224)"/><path d="M0 0H100V100H0z" transform="translate(56 56) matrix(.28 0 0 .28 448 224)"/><path d="M0 0H100V100H0z" transform="translate(56 56) matrix(.28 0 0 .28 532 224)"/><path d="M0 0H100V100H0z" transform="translate(56 56) matrix(.28 0 0 .28 560 224)"/><path d="M0 0H100V100H0z" transform="translate(56 56) matrix(.28 0 0 .28 588 224)"/><path d="M0 0H100V100H0z" transform="translate(56 56) matrix(.28 0 0 .28 812 224)"/><path d="M0 0H100V100H0z" transform="translate(56 56) matrix(.28 0 0 .28 840 224)"/><path d="M0 0H100V100H0z" transform="translate(56 56) matrix(.28 0 0 .28 868 224)"/><path d="M0 0H100V100H0z" transform="translate(56 56) matrix(.28 0 0 .28 896 224)"/><path d="M0 0H100V100H0z" transform="translate(56 56) matrix(.28 0 0 .28 924 224)"/><path d="M0 0H100V100H0z" transform="translate(56 56) matrix(.28 0 0 .28 1008 224)"/><path d="M0 0H100V100H0z" transform="translate(56 56) matrix(.28 0 0 .28 0 252)"/><path d="M0 0H100V100H0z" transform="translate(56 56) matrix(.28 0 0 .28 28 252)"/><path d="M0 0H100V100H0z" transform="translate(56 56) matrix(.28 0 0 .28 56 252)"/><path d="M0 0H100V100H0z" transform="translate(56 56) matrix(.28 0 0 .28 84 252)"/><path d="M0 0H100V100H0z" transform="translate(56 56) matrix(.28 0 0 .28 140 252)"/><path d="M0 0H100V100H0z" transform="translate(56 56) matrix(.28 0 0 .28 196 252)"/><path d="M0 0H100V100H0z" transform="translate(56 56) matrix(.28 0 0 .28 224 252)"/><path d="M0 0H100V100H0z" transform="translate(56 56) matrix(.28 0 0 .28 252 252)"/><path d="M0 0H100V100H0z" transform="translate(56 56) matrix(.28 0 0 .28 504 252)"/><path d="M0 0H100V100H0z" transform="translate(56 56) matrix(.28 0 0 .28 532 252)"/><path d="M0 0H100V100H0z" transform="translate(56 56) matrix(.28 0 0 .28 588 252)"/><path d="M0 0H100V100H0z" transform="translate(56 56) matrix(.28 0 0 .28 616 252)"/><path d="M0 0H100V100H0z" transform="translate(56 56) matrix(.28 0 0 .28 644 252)"/><path d="M0 0H100V100H0z" transform="translate(56 56) matrix(.28 0 0 .28 672 252)"/><path d="M0 0H100V100H0z" transform="translate(56 56) matrix(.28 0 0 .28 728 252)"/><path d="M0 0H100V100H0z" transform="translate(56 56) matrix(.28 0 0 .28 756 252)"/><path d="M0 0H100V100H0z" transform="translate(56 56) matrix(.28 0 0 .28 868 252)"/><path d="M0 0H100V100H0z" transform="translate(56 56) matrix(.28 0 0 .28 896 252)"/><path d="M0 0H100V100H0z" transform="translate(56 56) matrix(.28 0 0 .28 980 252)"/><path d="M0 0H100V100H0z" transform="translate(56 56) matrix(.28 0 0 .28 28 280)"/><path d="M0 0H100V100H0z" transform="translate(56 56) matrix(.28 0 0 .28 56 280)"/><path d="M0 0H100V100H0z" transform="translate(56 56) matrix(.28 0 0 .28 112 280)"/><path d="M0 0H100V100H0z" transform="translate(56 56) matrix(.28 0 0 .28 140 280)"/><path d="M0 0H100V100H0z" transform="translate(56 56) matrix(.28 0 0 .28 168 280)"/><path d="M0 0H100V100H0z" transform="translate(56 56) matrix(.28 0 0 .28 196 280)"/><path d="M0 0H100V100H0z" transform="translate(56 56) matrix(.28 0 0 .28 252 280)"/><path d="M0 0H100V100H0z" transform="translate(56 56) matrix(.28 0 0 .28 364 280)"/><path d="M0 0H100V100H0z" transform="translate(56 56) matrix(.28 0 0 .28 392 280)"/><path d="M0 0H100V100H0z" transform="translate(56 56) matrix(.28 0 0 .28 420 280)"/><path d="M0 0H100V100H0z" transform="translate(56 56) matrix(.28 0 0 .28 532 280)"/><path d="M0 0H100V100H0z" transform="translate(56 56) matrix(.28 0 0 .28 644 280)"/><path d="M0 0H100V100H0z" transform="translate(56 56) matrix(.28 0 0 .28 672 280)"/><path d="M0 0H100V100H0z" transform="translate(56 56) matrix(.28 0 0 .28 728 280)"/><path d="M0 0H100V100H0z" transform="translate(56 56) matrix(.28 0 0 .28 756 280)"/><path d="M0 0H100V100H0z" transform="translate(56 56) matrix(.28 0 0 .28 784 280)"/><path d="M0 0H100V100H0z" transform="translate(56 56) matrix(.28 0 0 .28 812 280)"/><path d="M0 0H100V100H0z" transform="translate(56 56) matrix(.28 0 0 .28 868 280)"/><path d="M0 0H100V100H0z" transform="translate(56 56) matrix(.28 0 0 .28 896 280)"/><path d="M0 0H100V100H0z" transform="translate(56 56) matrix(.28 0 0 .28 924 280)"/><path d="M0 0H100V100H0z" transform="translate(56 56) matrix(.28 0 0 .28 56 308)"/><path d="M0 0H100V100H0z" transform="translate(56 56) matrix(.28 0 0 .28 84 308)"/><path d="M0 0H100V100H0z" transform="translate(56 56) matrix(.28 0 0 .28 280 308)"/><path d="M0 0H100V100H0z" transform="translate(56 56) matrix(.28 0 0 .28 308 308)"/><path d="M0 0H100V100H0z" transform="translate(56 56) matrix(.28 0 0 .28 336 308)"/><path d="M0 0H100V100H0z" transform="translate(56 56) matrix(.28 0 0 .28 364 308)"/><path d="M0 0H100V100H0z" transform="translate(56 56) matrix(.28 0 0 .28 392 308)"/><path d="M0 0H100V100H0z" transform="translate(56 56) matrix(.28 0 0 .28 420 308)"/><path d="M0 0H100V100H0z" transform="translate(56 56) matrix(.28 0 0 .28 448 308)"/><path d="M0 0H100V100H0z" transform="translate(56 56) matrix(.28 0 0 .28 476 308)"/><path d="M0 0H100V100H0z" transform="translate(56 56) matrix(.28 0 0 .28 504 308)"/><path d="M0 0H100V100H0z" transform="translate(56 56) matrix(.28 0 0 .28 532 308)"/><path d="M0 0H100V100H0z" transform="translate(56 56) matrix(.28 0 0 .28 560 308)"/><path d="M0 0H100V100H0z" transform="translate(56 56) matrix(.28 0 0 .28 588 308)"/><path d="M0 0H100V100H0z" transform="translate(56 56) matrix(.28 0 0 .28 644 308)"/><path d="M0 0H100V100H0z" transform="translate(56 56) matrix(.28 0 0 .28 784 308)"/><path d="M0 0H100V100H0z" transform="translate(56 56) matrix(.28 0 0 .28 868 308)"/><path d="M0 0H100V100H0z" transform="translate(56 56) matrix(.28 0 0 .28 896 308)"/><path d="M0 0H100V100H0z" transform="translate(56 56) matrix(.28 0 0 .28 924 308)"/><path d="M0 0H100V100H0z" transform="translate(56 56) matrix(.28 0 0 .28 952 308)"/><path d="M0 0H100V100H0z" transform="translate(56 56) matrix(.28 0 0 .28 980 308)"/><path d="M0 0H100V100H0z" transform="translate(56 56) matrix(.28 0 0 .28 0 336)"/><path d="M0 0H100V100H0z" transform="translate(56 56) matrix(.28 0 0 .28 28 336)"/><path d="M0 0H100V100H0z" transform="translate(56 56) matrix(.28 0 0 .28 56 336)"/><path d="M0 0H100V100H0z" transform="translate(56 56) matrix(.28 0 0 .28 84 336)"/><path d="M0 0H100V100H0z" transform="translate(56 56) matrix(.28 0 0 .28 112 336)"/><path d="M0 0H100V100H0z" transform="translate(56 56) matrix(.28 0 0 .28 140 336)"/><path d="M0 0H100V100H0z" transform="translate(56 56) matrix(.28 0 0 .28 168 336)"/><path d="M0 0H100V100H0z" transform="translate(56 56) matrix(.28 0 0 .28 252 336)"/><path d="M0 0H100V100H0z" transform="translate(56 56) matrix(.28 0 0 .28 336 336)"/><path d="M0 0H100V100H0z" transform="translate(56 56) matrix(.28 0 0 .28 448 336)"/><path d="M0 0H100V100H0z" transform="translate(56 56) matrix(.28 0 0 .28 476 336)"/><path d="M0 0H100V100H0z" transform="translate(56 56) matrix(.28 0 0 .28 588 336)"/><path d="M0 0H100V100H0z" transform="translate(56 56) matrix(.28 0 0 .28 616 336)"/><path d="M0 0H100V100H0z" transform="translate(56 56) matrix(.28 0 0 .28 644 336)"/><path d="M0 0H100V100H0z" transform="translate(56 56) matrix(.28 0 0 .28 784 336)"/><path d="M0 0H100V100H0z" transform="translate(56 56) matrix(.28 0 0 .28 812 336)"/><path d="M0 0H100V100H0z" transform="translate(56 56) matrix(.28 0 0 .28 840 336)"/><path d="M0 0H100V100H0z" transform="translate(56 56) matrix(.28 0 0 .28 868 336)"/><path d="M0 0H100V100H0z" transform="translate(56 56) matrix(.28 0 0 .28 952 336)"/><path d="M0 0H100V100H0z" transform="translate(56 56) matrix(.28 0 0 .28 980 336)"/><path d="M0 0H100V100H0z" transform="translate(56 56) matrix(.28 0 0 .28 1008 336)"/><path d="M0 0H100V100H0z" transform="translate(56 56) matrix(.28 0 0 .28 56 364)"/><path d="M0 0H100V100H0z" transform="translate(56 56) matrix(.28 0 0 .28 252 364)"/><path d="M0 0H100V100H0z" transform="translate(56 56) matrix(.28 0 0 .28 280 364)"/><path d="M0 0H100V100H0z" transform="translate(56 56) matrix(.28 0 0 .28 308 364)"/><path d="M0 0H100V100H0z" transform="translate(56 56) matrix(.28 0 0 .28 336 364)"/><path d="M0 0H100V100H0z" transform="translate(56 56) matrix(.28 0 0 .28 420 364)"/><path d="M0 0H100V100H0z" transform="translate(56 56) matrix(.28 0 0 .28 448 364)"/><path d="M0 0H100V100H0z" transform="translate(56 56) matrix(.28 0 0 .28 644 364)"/><path d="M0 0H100V100H0z" transform="translate(56 56) matrix(.28 0 0 .28 700 364)"/><path d="M0 0H100V100H0z" transform="translate(56 56) matrix(.28 0 0 .28 728 364)"/><path d="M0 0H100V100H0z" transform="translate(56 56) matrix(.28 0 0 .28 756 364)"/><path d="M0 0H100V100H0z" transform="translate(56 56) matrix(.28 0 0 .28 784 364)"/><path d="M0 0H100V100H0z" transform="translate(56 56) matrix(.28 0 0 .28 812 364)"/><path d="M0 0H100V100H0z" transform="translate(56 56) matrix(.28 0 0 .28 896 364)"/><path d="M0 0H100V100H0z" transform="translate(56 56) matrix(.28 0 0 .28 924 364)"/><path d="M0 0H100V100H0z" transform="translate(56 56) matrix(.28 0 0 .28 980 364)"/><path d="M0 0H100V100H0z" transform="translate(56 56) matrix(.28 0 0 .28 0 392)"/><path d="M0 0H100V100H0z" transform="translate(56 56) matrix(.28 0 0 .28 28 392)"/><path d="M0 0H100V100H0z" transform="translate(56 56) matrix(.28 0 0 .28 84 392)"/><path d="M0 0H100V100H0z" transform="translate(56 56) matrix(.28 0 0 .28 112 392)"/><path d="M0 0H100V100H0z" transform="translate(56 56) matrix(.28 0 0 .28 140 392)"/><path d="M0 0H100V100H0z" transform="translate(56 56) matrix(.28 0 0 .28 168 392)"/><path d="M0 0H100V100H0z" transform="translate(56 56) matrix(.28 0 0 .28 280 392)"/><path d="M0 0H100V100H0z" transform="translate(56 56) matrix(.28 0 0 .28 308 392)"/><path d="M0 0H100V100H0z" transform="translate(56 56) matrix(.28 0 0 .28 336 392)"/><path d="M0 0H100V100H0z" transform="translate(56 56) matrix(.28 0 0 .28 392 392)"/><path d="M0 0H100V100H0z" transform="translate(56 56) matrix(.28 0 0 .28 420 392)"/><path d="M0 0H100V100H0z" transform="translate(56 56) matrix(.28 0 0 .28 448 392)"/><path d="M0 0H100V100H0z" transform="translate(56 56) matrix(.28 0 0 .28 476 392)"/><path d="M0 0H100V100H0z" transform="translate(56 56) matrix(.28 0 0 .28 560 392)"/><path d="M0 0H100V100H0z" transform="translate(56 56) matrix(.28 0 0 .28 616 392)"/><path d="M0 0H100V100H0z" transform="translate(56 56) matrix(.28 0 0 .28 644 392)"/><path d="M0 0H100V100H0z" transform="translate(56 56) matrix(.28 0 0 .28 672 392)"/><path d="M0 0H100V100H0z" transform="translate(56 56) matrix(.28 0 0 .28 728 392)"/><path d="M0 0H100V100H0z" transform="translate(56 56) matrix(.28 0 0 .28 756 392)"/><path d="M0 0H100V100H0z" transform="translate(56 56) matrix(.28 0 0 .28 840 392)"/><path d="M0 0H100V100H0z" transform="translate(56 56) matrix(.28 0 0 .28 868 392)"/><path d="M0 0H100V100H0z" transform="translate(56 56) matrix(.28 0 0 .28 896 392)"/><path d="M0 0H100V100H0z" transform="translate(56 56) matrix(.28 0 0 .28 924 392)"/><path d="M0 0H100V100H0z" transform="translate(56 56) matrix(.28 0 0 .28 952 392)"/><path d="M0 0H100V100H0z" transform="translate(56 56) matrix(.28 0 0 .28 28 420)"/><path d="M0 0H100V100H0z" transform="translate(56 56) matrix(.28 0 0 .28 112 420)"/><path d="M0 0H100V100H0z" transform="translate(56 56) matrix(.28 0 0 .28 140 420)"/><path d="M0 0H100V100H0z" transform="translate(56 56) matrix(.28 0 0 .28 224 420)"/><path d="M0 0H100V100H0z" transform="translate(56 56) matrix(.28 0 0 .28 280 420)"/><path d="M0 0H100V100H0z" transform="translate(56 56) matrix(.28 0 0 .28 336 420)"/><path d="M0 0H100V100H0z" transform="translate(56 56) matrix(.28 0 0 .28 392 420)"/><path d="M0 0H100V100H0z" transform="translate(56 56) matrix(.28 0 0 .28 448 420)"/><path d="M0 0H100V100H0z" transform="translate(56 56) matrix(.28 0 0 .28 476 420)"/><path d="M0 0H100V100H0z" transform="translate(56 56) matrix(.28 0 0 .28 504 420)"/><path d="M0 0H100V100H0z" transform="translate(56 56) matrix(.28 0 0 .28 588 420)"/><path d="M0 0H100V100H0z" transform="translate(56 56) matrix(.28 0 0 .28 616 420)"/><path d="M0 0H100V100H0z" transform="translate(56 56) matrix(.28 0 0 .28 672 420)"/><path d="M0 0H100V100H0z" transform="translate(56 56) matrix(.28 0 0 .28 756 420)"/><path d="M0 0H100V100H0z" transform="translate(56 56) matrix(.28 0 0 .28 784 420)"/><path d="M0 0H100V100H0z" transform="translate(56 56) matrix(.28 0 0 .28 868 420)"/><path d="M0 0H100V100H0z" transform="translate(56 56) matrix(.28 0 0 .28 896 420)"/><path d="M0 0H100V100H0z" transform="translate(56 56) matrix(.28 0 0 .28 952 420)"/><path d="M0 0H100V100H0z" transform="translate(56 56) matrix(.28 0 0 .28 0 448)"/><path d="M0 0H100V100H0z" transform="translate(56 56) matrix(.28 0 0 .28 28 448)"/><path d="M0 0H100V100H0z" transform="translate(56 56) matrix(.28 0 0 .28 112 448)"/><path d="M0 0H100V100H0z" transform="translate(56 56) matrix(.28 0 0 .28 140 448)"/><path d="M0 0H100V100H0z" transform="translate(56 56) matrix(.28 0 0 .28 168 448)"/><path d="M0 0H100V100H0z" transform="translate(56 56) matrix(.28 0 0 .28 224 448)"/><path d="M0 0H100V100H0z" transform="translate(56 56) matrix(.28 0 0 .28 392 448)"/><path d="M0 0H100V100H0z" transform="translate(56 56) matrix(.28 0 0 .28 504 448)"/><path d="M0 0H100V100H0z" transform="translate(56 56) matrix(.28 0 0 .28 588 448)"/><path d="M0 0H100V100H0z" transform="translate(56 56) matrix(.28 0 0 .28 644 448)"/><path d="M0 0H100V100H0z" transform="translate(56 56) matrix(.28 0 0 .28 728 448)"/><path d="M0 0H100V100H0z" transform="translate(56 56) matrix(.28 0 0 .28 784 448)"/><path d="M0 0H100V100H0z" transform="translate(56 56) matrix(.28 0 0 .28 812 448)"/><path d="M0 0H100V100H0z" transform="translate(56 56) matrix(.28 0 0 .28 840 448)"/><path d="M0 0H100V100H0z" transform="translate(56 56) matrix(.28 0 0 .28 868 448)"/><path d="M0 0H100V100H0z" transform="translate(56 56) matrix(.28 0 0 .28 924 448)"/><path d="M0 0H100V100H0z" transform="translate(56 56) matrix(.28 0 0 .28 952 448)"/><path d="M0 0H100V100H0z" transform="translate(56 56) matrix(.28 0 0 .28 1008 448)"/><path d="M0 0H100V100H0z" transform="translate(56 56) matrix(.28 0 0 .28 0 476)"/><path d="M0 0H100V100H0z" transform="translate(56 56) matrix(.28 0 0 .28 56 476)"/><path d="M0 0H100V100H0z" transform="translate(56 56) matrix(.28 0 0 .28 140 476)"/><path d="M0 0H100V100H0z" transform="translate(56 56) matrix(.28 0 0 .28 196 476)"/><path d="M0 0H100V100H0z" transform="translate(56 56) matrix(.28 0 0 .28 280 476)"/><path d="M0 0H100V100H0z" transform="translate(56 56) matrix(.28 0 0 .28 392 476)"/><path d="M0 0H100V100H0z" transform="translate(56 56) matrix(.28 0 0 .28 448 476)"/><path d="M0 0H100V100H0z" transform="translate(56 56) matrix(.28 0 0 .28 532 476)"/><path d="M0 0H100V100H0z" transform="translate(56 56) matrix(.28 0 0 .28 560 476)"/><path d="M0 0H100V100H0z" transform="translate(56 56) matrix(.28 0 0 .28 616 476)"/><path d="M0 0H100V100H0z" transform="translate(56 56) matrix(.28 0 0 .28 644 476)"/><path d="M0 0H100V100H0z" transform="translate(56 56) matrix(.28 0 0 .28 672 476)"/><path d="M0 0H100V100H0z" transform="translate(56 56) matrix(.28 0 0 .28 700 476)"/><path d="M0 0H100V100H0z" transform="translate(56 56) matrix(.28 0 0 .28 756 476)"/><path d="M0 0H100V100H0z" transform="translate(56 56) matrix(.28 0 0 .28 784 476)"/><path d="M0 0H100V100H0z" transform="translate(56 56) matrix(.28 0 0 .28 896 476)"/><path d="M0 0H100V100H0z" transform="translate(56 56) matrix(.28 0 0 .28 924 476)"/><path d="M0 0H100V100H0z" transform="translate(56 56) matrix(.28 0 0 .28 952 476)"/><path d="M0 0H100V100H0z" transform="translate(56 56) matrix(.28 0 0 .28 980 476)"/><path d="M0 0H100V100H0z" transform="translate(56 56) matrix(.28 0 0 .28 0 504)"/><path d="M0 0H100V100H0z" transform="translate(56 56) matrix(.28 0 0 .28 56 504)"/><path d="M0 0H100V100H0z" transform="translate(56 56) matrix(.28 0 0 .28 84 504)"/><path d="M0 0H100V100H0z" transform="translate(56 56) matrix(.28 0 0 .28 112 504)"/><path d="M0 0H100V100H0z" transform="translate(56 56) matrix(.28 0 0 .28 140 504)"/><path d="M0 0H100V100H0z" transform="translate(56 56) matrix(.28 0 0 .28 168 504)"/><path d="M0 0H100V100H0z" transform="translate(56 56) matrix(.28 0 0 .28 196 504)"/><path d="M0 0H100V100H0z" transform="translate(56 56) matrix(.28 0 0 .28 224 504)"/><path d="M0 0H100V100H0z" transform="translate(56 56) matrix(.28 0 0 .28 280 504)"/><path d="M0 0H100V100H0z" transform="translate(56 56) matrix(.28 0 0 .28 308 504)"/><path d="M0 0H100V100H0z" transform="translate(56 56) matrix(.28 0 0 .28 336 504)"/><path d="M0 0H100V100H0z" transform="translate(56 56) matrix(.28 0 0 .28 392 504)"/><path d="M0 0H100V100H0z" transform="translate(56 56) matrix(.28 0 0 .28 448 504)"/><path d="M0 0H100V100H0z" transform="translate(56 56) matrix(.28 0 0 .28 476 504)"/><path d="M0 0H100V100H0z" transform="translate(56 56) matrix(.28 0 0 .28 504 504)"/><path d="M0 0H100V100H0z" transform="translate(56 56) matrix(.28 0 0 .28 560 504)"/><path d="M0 0H100V100H0z" transform="translate(56 56) matrix(.28 0 0 .28 588 504)"/><path d="M0 0H100V100H0z" transform="translate(56 56) matrix(.28 0 0 .28 616 504)"/><path d="M0 0H100V100H0z" transform="translate(56 56) matrix(.28 0 0 .28 644 504)"/><path d="M0 0H100V100H0z" transform="translate(56 56) matrix(.28 0 0 .28 672 504)"/><path d="M0 0H100V100H0z" transform="translate(56 56) matrix(.28 0 0 .28 728 504)"/><path d="M0 0H100V100H0z" transform="translate(56 56) matrix(.28 0 0 .28 756 504)"/><path d="M0 0H100V100H0z" transform="translate(56 56) matrix(.28 0 0 .28 812 504)"/><path d="M0 0H100V100H0z" transform="translate(56 56) matrix(.28 0 0 .28 952 504)"/><path d="M0 0H100V100H0z" transform="translate(56 56) matrix(.28 0 0 .28 84 532)"/><path d="M0 0H100V100H0z" transform="translate(56 56) matrix(.28 0 0 .28 112 532)"/><path d="M0 0H100V100H0z" transform="translate(56 56) matrix(.28 0 0 .28 196 532)"/><path d="M0 0H100V100H0z" transform="translate(56 56) matrix(.28 0 0 .28 224 532)"/><path d="M0 0H100V100H0z" transform="translate(56 56) matrix(.28 0 0 .28 280 532)"/><path d="M0 0H100V100H0z" transform="translate(56 56) matrix(.28 0 0 .28 336 532)"/><path d="M0 0H100V100H0z" transform="translate(56 56) matrix(.28 0 0 .28 392 532)"/><path d="M0 0H100V100H0z" transform="translate(56 56) matrix(.28 0 0 .28 476 532)"/><path d="M0 0H100V100H0z" transform="translate(56 56) matrix(.28 0 0 .28 588 532)"/><path d="M0 0H100V100H0z" transform="translate(56 56) matrix(.28 0 0 .28 644 532)"/><path d="M0 0H100V100H0z" transform="translate(56 56) matrix(.28 0 0 .28 728 532)"/><path d="M0 0H100V100H0z" transform="translate(56 56) matrix(.28 0 0 .28 756 532)"/><path d="M0 0H100V100H0z" transform="translate(56 56) matrix(.28 0 0 .28 812 532)"/><path d="M0 0H100V100H0z" transform="translate(56 56) matrix(.28 0 0 .28 868 532)"/><path d="M0 0H100V100H0z" transform="translate(56 56) matrix(.28 0 0 .28 952 532)"/><path d="M0 0H100V100H0z" transform="translate(56 56) matrix(.28 0 0 .28 980 532)"/><path d="M0 0H100V100H0z" transform="translate(56 56) matrix(.28 0 0 .28 28 560)"/><path d="M0 0H100V100H0z" transform="translate(56 56) matrix(.28 0 0 .28 168 560)"/><path d="M0 0H100V100H0z" transform="translate(56 56) matrix(.28 0 0 .28 196 560)"/><path d="M0 0H100V100H0z" transform="translate(56 56) matrix(.28 0 0 .28 252 560)"/><path d="M0 0H100V100H0z" transform="translate(56 56) matrix(.28 0 0 .28 280 560)"/><path d="M0 0H100V100H0z" transform="translate(56 56) matrix(.28 0 0 .28 392 560)"/><path d="M0 0H100V100H0z" transform="translate(56 56) matrix(.28 0 0 .28 420 560)"/><path d="M0 0H100V100H0z" transform="translate(56 56) matrix(.28 0 0 .28 448 560)"/><path d="M0 0H100V100H0z" transform="translate(56 56) matrix(.28 0 0 .28 476 560)"/><path d="M0 0H100V100H0z" transform="translate(56 56) matrix(.28 0 0 .28 532 560)"/><path d="M0 0H100V100H0z" transform="translate(56 56) matrix(.28 0 0 .28 560 560)"/><path d="M0 0H100V100H0z" transform="translate(56 56) matrix(.28 0 0 .28 588 560)"/><path d="M0 0H100V100H0z" transform="translate(56 56) matrix(.28 0 0 .28 616 560)"/><path d="M0 0H100V100H0z" transform="translate(56 56) matrix(.28 0 0 .28 644 560)"/><path d="M0 0H100V100H0z" transform="translate(56 56) matrix(.28 0 0 .28 672 560)"/><path d="M0 0H100V100H0z" transform="translate(56 56) matrix(.28 0 0 .28 728 560)"/><path d="M0 0H100V100H0z" transform="translate(56 56) matrix(.28 0 0 .28 812 560)"/><path d="M0 0H100V100H0z" transform="translate(56 56) matrix(.28 0 0 .28 840 560)"/><path d="M0 0H100V100H0z" transform="translate(56 56) matrix(.28 0 0 .28 868 560)"/><path d="M0 0H100V100H0z" transform="translate(56 56) matrix(.28 0 0 .28 924 560)"/><path d="M0 0H100V100H0z" transform="translate(56 56) matrix(.28 0 0 .28 952 560)"/><path d="M0 0H100V100H0z" transform="translate(56 56) matrix(.28 0 0 .28 28 588)"/><path d="M0 0H100V100H0z" transform="translate(56 56) matrix(.28 0 0 .28 56 588)"/><path d="M0 0H100V100H0z" transform="translate(56 56) matrix(.28 0 0 .28 112 588)"/><path d="M0 0H100V100H0z" transform="translate(56 56) matrix(.28 0 0 .28 140 588)"/><path d="M0 0H100V100H0z" transform="translate(56 56) matrix(.28 0 0 .28 252 588)"/><path d="M0 0H100V100H0z" transform="translate(56 56) matrix(.28 0 0 .28 308 588)"/><path d="M0 0H100V100H0z" transform="translate(56 56) matrix(.28 0 0 .28 392 588)"/><path d="M0 0H100V100H0z" transform="translate(56 56) matrix(.28 0 0 .28 420 588)"/><path d="M0 0H100V100H0z" transform="translate(56 56) matrix(.28 0 0 .28 448 588)"/><path d="M0 0H100V100H0z" transform="translate(56 56) matrix(.28 0 0 .28 476 588)"/><path d="M0 0H100V100H0z" transform="translate(56 56) matrix(.28 0 0 .28 504 588)"/><path d="M0 0H100V100H0z" transform="translate(56 56) matrix(.28 0 0 .28 588 588)"/><path d="M0 0H100V100H0z" transform="translate(56 56) matrix(.28 0 0 .28 616 588)"/><path d="M0 0H100V100H0z" transform="translate(56 56) matrix(.28 0 0 .28 644 588)"/><path d="M0 0H100V100H0z" transform="translate(56 56) matrix(.28 0 0 .28 672 588)"/><path d="M0 0H100V100H0z" transform="translate(56 56) matrix(.28 0 0 .28 700 588)"/><path d="M0 0H100V100H0z" transform="translate(56 56) matrix(.28 0 0 .28 728 588)"/><path d="M0 0H100V100H0z" transform="translate(56 56) matrix(.28 0 0 .28 756 588)"/><path d="M0 0H100V100H0z" transform="translate(56 56) matrix(.28 0 0 .28 784 588)"/><path d="M0 0H100V100H0z" transform="translate(56 56) matrix(.28 0 0 .28 812 588)"/><path d="M0 0H100V100H0z" transform="translate(56 56) matrix(.28 0 0 .28 868 588)"/><path d="M0 0H100V100H0z" transform="translate(56 56) matrix(.28 0 0 .28 896 588)"/><path d="M0 0H100V100H0z" transform="translate(56 56) matrix(.28 0 0 .28 0 616)"/><path d="M0 0H100V100H0z" transform="translate(56 56) matrix(.28 0 0 .28 28 616)"/><path d="M0 0H100V100H0z" transform="translate(56 56) matrix(.28 0 0 .28 84 616)"/><path d="M0 0H100V100H0z" transform="translate(56 56) matrix(.28 0 0 .28 112 616)"/><path d="M0 0H100V100H0z" transform="translate(56 56) matrix(.28 0 0 .28 140 616)"/><path d="M0 0H100V100H0z" transform="translate(56 56) matrix(.28 0 0 .28 168 616)"/><path d="M0 0H100V100H0z" transform="translate(56 56) matrix(.28 0 0 .28 196 616)"/><path d="M0 0H100V100H0z" transform="translate(56 56) matrix(.28 0 0 .28 280 616)"/><path d="M0 0H100V100H0z" transform="translate(56 56) matrix(.28 0 0 .28 364 616)"/><path d="M0 0H100V100H0z" transform="translate(56 56) matrix(.28 0 0 .28 420 616)"/><path d="M0 0H100V100H0z" transform="translate(56 56) matrix(.28 0 0 .28 504 616)"/><path d="M0 0H100V100H0z" transform="translate(56 56) matrix(.28 0 0 .28 560 616)"/><path d="M0 0H100V100H0z" transform="translate(56 56) matrix(.28 0 0 .28 588 616)"/><path d="M0 0H100V100H0z" transform="translate(56 56) matrix(.28 0 0 .28 616 616)"/><path d="M0 0H100V100H0z" transform="translate(56 56) matrix(.28 0 0 .28 644 616)"/><path d="M0 0H100V100H0z" transform="translate(56 56) matrix(.28 0 0 .28 672 616)"/><path d="M0 0H100V100H0z" transform="translate(56 56) matrix(.28 0 0 .28 700 616)"/><path d="M0 0H100V100H0z" transform="translate(56 56) matrix(.28 0 0 .28 728 616)"/><path d="M0 0H100V100H0z" transform="translate(56 56) matrix(.28 0 0 .28 756 616)"/><path d="M0 0H100V100H0z" transform="translate(56 56) matrix(.28 0 0 .28 784 616)"/><path d="M0 0H100V100H0z" transform="translate(56 56) matrix(.28 0 0 .28 840 616)"/><path d="M0 0H100V100H0z" transform="translate(56 56) matrix(.28 0 0 .28 868 616)"/><path d="M0 0H100V100H0z" transform="translate(56 56) matrix(.28 0 0 .28 896 616)"/><path d="M0 0H100V100H0z" transform="translate(56 56) matrix(.28 0 0 .28 924 616)"/><path d="M0 0H100V100H0z" transform="translate(56 56) matrix(.28 0 0 .28 952 616)"/><path d="M0 0H100V100H0z" transform="translate(56 56) matrix(.28 0 0 .28 28 644)"/><path d="M0 0H100V100H0z" transform="translate(56 56) matrix(.28 0 0 .28 56 644)"/><path d="M0 0H100V100H0z" transform="translate(56 56) matrix(.28 0 0 .28 84 644)"/><path d="M0 0H100V100H0z" transform="translate(56 56) matrix(.28 0 0 .28 140 644)"/><path d="M0 0H100V100H0z" transform="translate(56 56) matrix(.28 0 0 .28 224 644)"/><path d="M0 0H100V100H0z" transform="translate(56 56) matrix(.28 0 0 .28 280 644)"/><path d="M0 0H100V100H0z" transform="translate(56 56) matrix(.28 0 0 .28 308 644)"/><path d="M0 0H100V100H0z" transform="translate(56 56) matrix(.28 0 0 .28 336 644)"/><path d="M0 0H100V100H0z" transform="translate(56 56) matrix(.28 0 0 .28 364 644)"/><path d="M0 0H100V100H0z" transform="translate(56 56) matrix(.28 0 0 .28 392 644)"/><path d="M0 0H100V100H0z" transform="translate(56 56) matrix(.28 0 0 .28 420 644)"/><path d="M0 0H100V100H0z" transform="translate(56 56) matrix(.28 0 0 .28 588 644)"/><path d="M0 0H100V100H0z" transform="translate(56 56) matrix(.28 0 0 .28 616 644)"/><path d="M0 0H100V100H0z" transform="translate(56 56) matrix(.28 0 0 .28 644 644)"/><path d="M0 0H100V100H0z" transform="translate(56 56) matrix(.28 0 0 .28 672 644)"/><path d="M0 0H100V100H0z" transform="translate(56 56) matrix(.28 0 0 .28 868 644)"/><path d="M0 0H100V100H0z" transform="translate(56 56) matrix(.28 0 0 .28 896 644)"/><path d="M0 0H100V100H0z" transform="translate(56 56) matrix(.28 0 0 .28 952 644)"/><path d="M0 0H100V100H0z" transform="translate(56 56) matrix(.28 0 0 .28 28 672)"/><path d="M0 0H100V100H0z" transform="translate(56 56) matrix(.28 0 0 .28 56 672)"/><path d="M0 0H100V100H0z" transform="translate(56 56) matrix(.28 0 0 .28 84 672)"/><path d="M0 0H100V100H0z" transform="translate(56 56) matrix(.28 0 0 .28 140 672)"/><path d="M0 0H100V100H0z" transform="translate(56 56) matrix(.28 0 0 .28 168 672)"/><path d="M0 0H100V100H0z" transform="translate(56 56) matrix(.28 0 0 .28 224 672)"/><path d="M0 0H100V100H0z" transform="translate(56 56) matrix(.28 0 0 .28 280 672)"/><path d="M0 0H100V100H0z" transform="translate(56 56) matrix(.28 0 0 .28 336 672)"/><path d="M0 0H100V100H0z" transform="translate(56 56) matrix(.28 0 0 .28 364 672)"/><path d="M0 0H100V100H0z" transform="translate(56 56) matrix(.28 0 0 .28 392 672)"/><path d="M0 0H100V100H0z" transform="translate(56 56) matrix(.28 0 0 .28 448 672)"/><path d="M0 0H100V100H0z" transform="translate(56 56) matrix(.28 0 0 .28 532 672)"/><path d="M0 0H100V100H0z" transform="translate(56 56) matrix(.28 0 0 .28 560 672)"/><path d="M0 0H100V100H0z" transform="translate(56 56) matrix(.28 0 0 .28 644 672)"/><path d="M0 0H100V100H0z" transform="translate(56 56) matrix(.28 0 0 .28 728 672)"/><path d="M0 0H100V100H0z" transform="translate(56 56) matrix(.28 0 0 .28 756 672)"/><path d="M0 0H100V100H0z" transform="translate(56 56) matrix(.28 0 0 .28 812 672)"/><path d="M0 0H100V100H0z" transform="translate(56 56) matrix(.28 0 0 .28 840 672)"/><path d="M0 0H100V100H0z" transform="translate(56 56) matrix(.28 0 0 .28 924 672)"/><path d="M0 0H100V100H0z" transform="translate(56 56) matrix(.28 0 0 .28 952 672)"/><path d="M0 0H100V100H0z" transform="translate(56 56) matrix(.28 0 0 .28 980 672)"/><path d="M0 0H100V100H0z" transform="translate(56 56) matrix(.28 0 0 .28 0 700)"/><path d="M0 0H100V100H0z" transform="translate(56 56) matrix(.28 0 0 .28 28 700)"/><path d="M0 0H100V100H0z" transform="translate(56 56) matrix(.28 0 0 .28 84 700)"/><path d="M0 0H100V100H0z" transform="translate(56 56) matrix(.28 0 0 .28 112 700)"/><path d="M0 0H100V100H0z" transform="translate(56 56) matrix(.28 0 0 .28 196 700)"/><path d="M0 0H100V100H0z" transform="translate(56 56) matrix(.28 0 0 .28 224 700)"/><path d="M0 0H100V100H0z" transform="translate(56 56) matrix(.28 0 0 .28 308 700)"/><path d="M0 0H100V100H0z" transform="translate(56 56) matrix(.28 0 0 .28 336 700)"/><path d="M0 0H100V100H0z" transform="translate(56 56) matrix(.28 0 0 .28 476 700)"/><path d="M0 0H100V100H0z" transform="translate(56 56) matrix(.28 0 0 .28 504 700)"/><path d="M0 0H100V100H0z" transform="translate(56 56) matrix(.28 0 0 .28 532 700)"/><path d="M0 0H100V100H0z" transform="translate(56 56) matrix(.28 0 0 .28 644 700)"/><path d="M0 0H100V100H0z" transform="translate(56 56) matrix(.28 0 0 .28 672 700)"/><path d="M0 0H100V100H0z" transform="translate(56 56) matrix(.28 0 0 .28 756 700)"/><path d="M0 0H100V100H0z" transform="translate(56 56) matrix(.28 0 0 .28 784 700)"/><path d="M0 0H100V100H0z" transform="translate(56 56) matrix(.28 0 0 .28 896 700)"/><path d="M0 0H100V100H0z" transform="translate(56 56) matrix(.28 0 0 .28 84 728)"/><path d="M0 0H100V100H0z" transform="translate(56 56) matrix(.28 0 0 .28 168 728)"/><path d="M0 0H100V100H0z" transform="translate(56 56) matrix(.28 0 0 .28 196 728)"/><path d="M0 0H100V100H0z" transform="translate(56 56) matrix(.28 0 0 .28 224 728)"/><path d="M0 0H100V100H0z" transform="translate(56 56) matrix(.28 0 0 .28 392 728)"/><path d="M0 0H100V100H0z" transform="translate(56 56) matrix(.28 0 0 .28 420 728)"/><path d="M0 0H100V100H0z" transform="translate(56 56) matrix(.28 0 0 .28 476 728)"/><path d="M0 0H100V100H0z" transform="translate(56 56) matrix(.28 0 0 .28 532 728)"/><path d="M0 0H100V100H0z" transform="translate(56 56) matrix(.28 0 0 .28 588 728)"/><path d="M0 0H100V100H0z" transform="translate(56 56) matrix(.28 0 0 .28 616 728)"/><path d="M0 0H100V100H0z" transform="translate(56 56) matrix(.28 0 0 .28 644 728)"/><path d="M0 0H100V100H0z" transform="translate(56 56) matrix(.28 0 0 .28 672 728)"/><path d="M0 0H100V100H0z" transform="translate(56 56) matrix(.28 0 0 .28 700 728)"/><path d="M0 0H100V100H0z" transform="translate(56 56) matrix(.28 0 0 .28 728 728)"/><path d="M0 0H100V100H0z" transform="translate(56 56) matrix(.28 0 0 .28 756 728)"/><path d="M0 0H100V100H0z" transform="translate(56 56) matrix(.28 0 0 .28 812 728)"/><path d="M0 0H100V100H0z" transform="translate(56 56) matrix(.28 0 0 .28 868 728)"/><path d="M0 0H100V100H0z" transform="translate(56 56) matrix(.28 0 0 .28 896 728)"/><path d="M0 0H100V100H0z" transform="translate(56 56) matrix(.28 0 0 .28 924 728)"/><path d="M0 0H100V100H0z" transform="translate(56 56) matrix(.28 0 0 .28 952 728)"/><path d="M0 0H100V100H0z" transform="translate(56 56) matrix(.28 0 0 .28 56 756)"/><path d="M0 0H100V100H0z" transform="translate(56 56) matrix(.28 0 0 .28 112 756)"/><path d="M0 0H100V100H0z" transform="translate(56 56) matrix(.28 0 0 .28 140 756)"/><path d="M0 0H100V100H0z" transform="translate(56 56) matrix(.28 0 0 .28 196 756)"/><path d="M0 0H100V100H0z" transform="translate(56 56) matrix(.28 0 0 .28 252 756)"/><path d="M0 0H100V100H0z" transform="translate(56 56) matrix(.28 0 0 .28 280 756)"/><path d="M0 0H100V100H0z" transform="translate(56 56) matrix(.28 0 0 .28 420 756)"/><path d="M0 0H100V100H0z" transform="translate(56 56) matrix(.28 0 0 .28 448 756)"/><path d="M0 0H100V100H0z" transform="translate(56 56) matrix(.28 0 0 .28 476 756)"/><path d="M0 0H100V100H0z" transform="translate(56 56) matrix(.28 0 0 .28 504 756)"/><path d="M0 0H100V100H0z" transform="translate(56 56) matrix(.28 0 0 .28 532 756)"/><path d="M0 0H100V100H0z" transform="translate(56 56) matrix(.28 0 0 .28 560 756)"/><path d="M0 0H100V100H0z" transform="translate(56 56) matrix(.28 0 0 .28 588 756)"/><path d="M0 0H100V100H0z" transform="translate(56 56) matrix(.28 0 0 .28 616 756)"/><path d="M0 0H100V100H0z" transform="translate(56 56) matrix(.28 0 0 .28 672 756)"/><path d="M0 0H100V100H0z" transform="translate(56 56) matrix(.28 0 0 .28 784 756)"/><path d="M0 0H100V100H0z" transform="translate(56 56) matrix(.28 0 0 .28 812 756)"/><path d="M0 0H100V100H0z" transform="translate(56 56) matrix(.28 0 0 .28 868 756)"/><path d="M0 0H100V100H0z" transform="translate(56 56) matrix(.28 0 0 .28 896 756)"/><path d="M0 0H100V100H0z" transform="translate(56 56) matrix(.28 0 0 .28 952 756)"/><path d="M0 0H100V100H0z" transform="translate(56 56) matrix(.28 0 0 .28 980 756)"/><path d="M0 0H100V100H0z" transform="translate(56 56) matrix(.28 0 0 .28 1008 756)"/><path d="M0 0H100V100H0z" transform="translate(56 56) matrix(.28 0 0 .28 0 784)"/><path d="M0 0H100V100H0z" transform="translate(56 56) matrix(.28 0 0 .28 28 784)"/><path d="M0 0H100V100H0z" transform="translate(56 56) matrix(.28 0 0 .28 56 784)"/><path d="M0 0H100V100H0z" transform="translate(56 56) matrix(.28 0 0 .28 84 784)"/><path d="M0 0H100V100H0z" transform="translate(56 56) matrix(.28 0 0 .28 112 784)"/><path d="M0 0H100V100H0z" transform="translate(56 56) matrix(.28 0 0 .28 140 784)"/><path d="M0 0H100V100H0z" transform="translate(56 56) matrix(.28 0 0 .28 168 784)"/><path d="M0 0H100V100H0z" transform="translate(56 56) matrix(.28 0 0 .28 280 784)"/><path d="M0 0H100V100H0z" transform="translate(56 56) matrix(.28 0 0 .28 308 784)"/><path d="M0 0H100V100H0z" transform="translate(56 56) matrix(.28 0 0 .28 336 784)"/><path d="M0 0H100V100H0z" transform="translate(56 56) matrix(.28 0 0 .28 364 784)"/><path d="M0 0H100V100H0z" transform="translate(56 56) matrix(.28 0 0 .28 392 784)"/><path d="M0 0H100V100H0z" transform="translate(56 56) matrix(.28 0 0 .28 476 784)"/><path d="M0 0H100V100H0z" transform="translate(56 56) matrix(.28 0 0 .28 560 784)"/><path d="M0 0H100V100H0z" transform="translate(56 56) matrix(.28 0 0 .28 588 784)"/><path d="M0 0H100V100H0z" transform="translate(56 56) matrix(.28 0 0 .28 616 784)"/><path d="M0 0H100V100H0z" transform="translate(56 56) matrix(.28 0 0 .28 672 784)"/><path d="M0 0H100V100H0z" transform="translate(56 56) matrix(.28 0 0 .28 756 784)"/><path d="M0 0H100V100H0z" transform="translate(56 56) matrix(.28 0 0 .28 784 784)"/><path d="M0 0H100V100H0z" transform="translate(56 56) matrix(.28 0 0 .28 812 784)"/><path d="M0 0H100V100H0z" transform="translate(56 56) matrix(.28 0 0 .28 840 784)"/><path d="M0 0H100V100H0z" transform="translate(56 56) matrix(.28 0 0 .28 868 784)"/><path d="M0 0H100V100H0z" transform="translate(56 56) matrix(.28 0 0 .28 896 784)"/><path d="M0 0H100V100H0z" transform="translate(56 56) matrix(.28 0 0 .28 952 784)"/><path d="M0 0H100V100H0z" transform="translate(56 56) matrix(.28 0 0 .28 980 784)"/><path d="M0 0H100V100H0z" transform="translate(56 56) matrix(.28 0 0 .28 1008 784)"/><path d="M0 0H100V100H0z" transform="translate(56 56) matrix(.28 0 0 .28 224 812)"/><path d="M0 0H100V100H0z" transform="translate(56 56) matrix(.28 0 0 .28 252 812)"/><path d="M0 0H100V100H0z" transform="translate(56 56) matrix(.28 0 0 .28 364 812)"/><path d="M0 0H100V100H0z" transform="translate(56 56) matrix(.28 0 0 .28 392 812)"/><path d="M0 0H100V100H0z" transform="translate(56 56) matrix(.28 0 0 .28 420 812)"/><path d="M0 0H100V100H0z" transform="translate(56 56) matrix(.28 0 0 .28 448 812)"/><path d="M0 0H100V100H0z" transform="translate(56 56) matrix(.28 0 0 .28 504 812)"/><path d="M0 0H100V100H0z" transform="translate(56 56) matrix(.28 0 0 .28 588 812)"/><path d="M0 0H100V100H0z" transform="translate(56 56) matrix(.28 0 0 .28 616 812)"/><path d="M0 0H100V100H0z" transform="translate(56 56) matrix(.28 0 0 .28 644 812)"/><path d="M0 0H100V100H0z" transform="translate(56 56) matrix(.28 0 0 .28 700 812)"/><path d="M0 0H100V100H0z" transform="translate(56 56) matrix(.28 0 0 .28 728 812)"/><path d="M0 0H100V100H0z" transform="translate(56 56) matrix(.28 0 0 .28 784 812)"/><path d="M0 0H100V100H0z" transform="translate(56 56) matrix(.28 0 0 .28 896 812)"/><path d="M0 0H100V100H0z" transform="translate(56 56) matrix(.28 0 0 .28 224 840)"/><path d="M0 0H100V100H0z" transform="translate(56 56) matrix(.28 0 0 .28 308 840)"/><path d="M0 0H100V100H0z" transform="translate(56 56) matrix(.28 0 0 .28 336 840)"/><path d="M0 0H100V100H0z" transform="translate(56 56) matrix(.28 0 0 .28 392 840)"/><path d="M0 0H100V100H0z" transform="translate(56 56) matrix(.28 0 0 .28 420 840)"/><path d="M0 0H100V100H0z" transform="translate(56 56) matrix(.28 0 0 .28 476 840)"/><path d="M0 0H100V100H0z" transform="translate(56 56) matrix(.28 0 0 .28 560 840)"/><path d="M0 0H100V100H0z" transform="translate(56 56) matrix(.28 0 0 .28 644 840)"/><path d="M0 0H100V100H0z" transform="translate(56 56) matrix(.28 0 0 .28 672 840)"/><path d="M0 0H100V100H0z" transform="translate(56 56) matrix(.28 0 0 .28 728 840)"/><path d="M0 0H100V100H0z" transform="translate(56 56) matrix(.28 0 0 .28 784 840)"/><path d="M0 0H100V100H0z" transform="translate(56 56) matrix(.28 0 0 .28 840 840)"/><path d="M0 0H100V100H0z" transform="translate(56 56) matrix(.28 0 0 .28 896 840)"/><path d="M0 0H100V100H0z" transform="translate(56 56) matrix(.28 0 0 .28 980 840)"/><path d="M0 0H100V100H0z" transform="translate(56 56) matrix(.28 0 0 .28 252 868)"/><path d="M0 0H100V100H0z" transform="translate(56 56) matrix(.28 0 0 .28 280 868)"/><path d="M0 0H100V100H0z" transform="translate(56 56) matrix(.28 0 0 .28 308 868)"/><path d="M0 0H100V100H0z" transform="translate(56 56) matrix(.28 0 0 .28 336 868)"/><path d="M0 0H100V100H0z" transform="translate(56 56) matrix(.28 0 0 .28 364 868)"/><path d="M0 0H100V100H0z" transform="translate(56 56) matrix(.28 0 0 .28 392 868)"/><path d="M0 0H100V100H0z" transform="translate(56 56) matrix(.28 0 0 .28 448 868)"/><path d="M0 0H100V100H0z" transform="translate(56 56) matrix(.28 0 0 .28 476 868)"/><path d="M0 0H100V100H0z" transform="translate(56 56) matrix(.28 0 0 .28 504 868)"/><path d="M0 0H100V100H0z" transform="translate(56 56) matrix(.28 0 0 .28 532 868)"/><path d="M0 0H100V100H0z" transform="translate(56 56) matrix(.28 0 0 .28 560 868)"/><path d="M0 0H100V100H0z" transform="translate(56 56) matrix(.28 0 0 .28 616 868)"/><path d="M0 0H100V100H0z" transform="translate(56 56) matrix(.28 0 0 .28 672 868)"/><path d="M0 0H100V100H0z" transform="translate(56 56) matrix(.28 0 0 .28 756 868)"/><path d="M0 0H100V100H0z" transform="translate(56 56) matrix(.28 0 0 .28 784 868)"/><path d="M0 0H100V100H0z" transform="translate(56 56) matrix(.28 0 0 .28 896 868)"/><path d="M0 0H100V100H0z" transform="translate(56 56) matrix(.28 0 0 .28 924 868)"/><path d="M0 0H100V100H0z" transform="translate(56 56) matrix(.28 0 0 .28 952 868)"/><path d="M0 0H100V100H0z" transform="translate(56 56) matrix(.28 0 0 .28 1008 868)"/><path d="M0 0H100V100H0z" transform="translate(56 56) matrix(.28 0 0 .28 224 896)"/><path d="M0 0H100V100H0z" transform="translate(56 56) matrix(.28 0 0 .28 252 896)"/><path d="M0 0H100V100H0z" transform="translate(56 56) matrix(.28 0 0 .28 420 896)"/><path d="M0 0H100V100H0z" transform="translate(56 56) matrix(.28 0 0 .28 504 896)"/><path d="M0 0H100V100H0z" transform="translate(56 56) matrix(.28 0 0 .28 616 896)"/><path d="M0 0H100V100H0z" transform="translate(56 56) matrix(.28 0 0 .28 644 896)"/><path d="M0 0H100V100H0z" transform="translate(56 56) matrix(.28 0 0 .28 728 896)"/><path d="M0 0H100V100H0z" transform="translate(56 56) matrix(.28 0 0 .28 784 896)"/><path d="M0 0H100V100H0z" transform="translate(56 56) matrix(.28 0 0 .28 812 896)"/><path d="M0 0H100V100H0z" transform="translate(56 56) matrix(.28 0 0 .28 840 896)"/><path d="M0 0H100V100H0z" transform="translate(56 56) matrix(.28 0 0 .28 868 896)"/><path d="M0 0H100V100H0z" transform="translate(56 56) matrix(.28 0 0 .28 896 896)"/><path d="M0 0H100V100H0z" transform="translate(56 56) matrix(.28 0 0 .28 924 896)"/><path d="M0 0H100V100H0z" transform="translate(56 56) matrix(.28 0 0 .28 952 896)"/><path d="M0 0H100V100H0z" transform="translate(56 56) matrix(.28 0 0 .28 1008 896)"/><path d="M0 0H100V100H0z" transform="translate(56 56) matrix(.28 0 0 .28 252 924)"/><path d="M0 0H100V100H0z" transform="translate(56 56) matrix(.28 0 0 .28 392 924)"/><path d="M0 0H100V100H0z" transform="translate(56 56) matrix(.28 0 0 .28 448 924)"/><path d="M0 0H100V100H0z" transform="translate(56 56) matrix(.28 0 0 .28 532 924)"/><path d="M0 0H100V100H0z" transform="translate(56 56) matrix(.28 0 0 .28 560 924)"/><path d="M0 0H100V100H0z" transform="translate(56 56) matrix(.28 0 0 .28 644 924)"/><path d="M0 0H100V100H0z" transform="translate(56 56) matrix(.28 0 0 .28 672 924)"/><path d="M0 0H100V100H0z" transform="translate(56 56) matrix(.28 0 0 .28 700 924)"/><path d="M0 0H100V100H0z" transform="translate(56 56) matrix(.28 0 0 .28 756 924)"/><path d="M0 0H100V100H0z" transform="translate(56 56) matrix(.28 0 0 .28 784 924)"/><path d="M0 0H100V100H0z" transform="translate(56 56) matrix(.28 0 0 .28 812 924)"/><path d="M0 0H100V100H0z" transform="translate(56 56) matrix(.28 0 0 .28 840 924)"/><path d="M0 0H100V100H0z" transform="translate(56 56) matrix(.28 0 0 .28 868 924)"/><path d="M0 0H100V100H0z" transform="translate(56 56) matrix(.28 0 0 .28 952 924)"/><path d="M0 0H100V100H0z" transform="translate(56 56) matrix(.28 0 0 .28 1008 924)"/><path d="M0 0H100V100H0z" transform="translate(56 56) matrix(.28 0 0 .28 280 952)"/><path d="M0 0H100V100H0z" transform="translate(56 56) matrix(.28 0 0 .28 336 952)"/><path d="M0 0H100V100H0z" transform="translate(56 56) matrix(.28 0 0 .28 364 952)"/><path d="M0 0H100V100H0z" transform="translate(56 56) matrix(.28 0 0 .28 392 952)"/><path d="M0 0H100V100H0z" transform="translate(56 56) matrix(.28 0 0 .28 448 952)"/><path d="M0 0H100V100H0z" transform="translate(56 56) matrix(.28 0 0 .28 560 952)"/><path d="M0 0H100V100H0z" transform="translate(56 56) matrix(.28 0 0 .28 588 952)"/><path d="M0 0H100V100H0z" transform="translate(56 56) matrix(.28 0 0 .28 616 952)"/><path d="M0 0H100V100H0z" transform="translate(56 56) matrix(.28 0 0 .28 644 952)"/><path d="M0 0H100V100H0z" transform="translate(56 56) matrix(.28 0 0 .28 700 952)"/><path d="M0 0H100V100H0z" transform="translate(56 56) matrix(.28 0 0 .28 756 952)"/><path d="M0 0H100V100H0z" transform="translate(56 56) matrix(.28 0 0 .28 784 952)"/><path d="M0 0H100V100H0z" transform="translate(56 56) matrix(.28 0 0 .28 840 952)"/><path d="M0 0H100V100H0z" transform="translate(56 56) matrix(.28 0 0 .28 924 952)"/><path d="M0 0H100V100H0z" transform="translate(56 56) matrix(.28 0 0 .28 952 952)"/><path d="M0 0H100V100H0z" transform="translate(56 56) matrix(.28 0 0 .28 252 980)"/><path d="M0 0H100V100H0z" transform="translate(56 56) matrix(.28 0 0 .28 280 980)"/><path d="M0 0H100V100H0z" transform="translate(56 56) matrix(.28 0 0 .28 392 980)"/><path d="M0 0H100V100H0z" transform="translate(56 56) matrix(.28 0 0 .28 476 980)"/><path d="M0 0H100V100H0z" transform="translate(56 56) matrix(.28 0 0 .28 504 980)"/><path d="M0 0H100V100H0z" transform="translate(56 56) matrix(.28 0 0 .28 588 980)"/><path d="M0 0H100V100H0z" transform="translate(56 56) matrix(.28 0 0 .28 616 980)"/><path d="M0 0H100V100H0z" transform="translate(56 56) matrix(.28 0 0 .28 644 980)"/><path d="M0 0H100V100H0z" transform="translate(56 56) matrix(.28 0 0 .28 672 980)"/><path d="M0 0H100V100H0z" transform="translate(56 56) matrix(.28 0 0 .28 728 980)"/><path d="M0 0H100V100H0z" transform="translate(56 56) matrix(.28 0 0 .28 756 980)"/><path d="M0 0H100V100H0z" transform="translate(56 56) matrix(.28 0 0 .28 812 980)"/><path d="M0 0H100V100H0z" transform="translate(56 56) matrix(.28 0 0 .28 896 980)"/><path d="M0 0H100V100H0z" transform="translate(56 56) matrix(.28 0 0 .28 952 980)"/><path d="M0 0H100V100H0z" transform="translate(56 56) matrix(.28 0 0 .28 980 980)"/><path d="M0 0H100V100H0z" transform="translate(56 56) matrix(.28 0 0 .28 224 1008)"/><path d="M0 0H100V100H0z" transform="translate(56 56) matrix(.28 0 0 .28 252 1008)"/><path d="M0 0H100V100H0z" transform="translate(56 56) matrix(.28 0 0 .28 364 1008)"/><path d="M0 0H100V100H0z" transform="translate(56 56) matrix(.28 0 0 .28 420 1008)"/><path d="M0 0H100V100H0z" transform="translate(56 56) matrix(.28 0 0 .28 476 1008)"/><path d="M0 0H100V100H0z" transform="translate(56 56) matrix(.28 0 0 .28 532 1008)"/><path d="M0 0H100V100H0z" transform="translate(56 56) matrix(.28 0 0 .28 560 1008)"/><path d="M0 0H100V100H0z" transform="translate(56 56) matrix(.28 0 0 .28 588 1008)"/><path d="M0 0H100V100H0z" transform="translate(56 56) matrix(.28 0 0 .28 672 1008)"/><path d="M0 0H100V100H0z" transform="translate(56 56) matrix(.28 0 0 .28 756 1008)"/><path d="M0 0H100V100H0z" transform="translate(56 56) matrix(.28 0 0 .28 812 1008)"/><path d="M0 0H100V100H0z" transform="translate(56 56) matrix(.28 0 0 .28 840 1008)"/><path d="M0 0H100V100H0z" transform="translate(56 56) matrix(.28 0 0 .28 868 1008)"/><path d="M0 0H100V100H0z" transform="translate(56 56) matrix(.28 0 0 .28 952 1008)"/><path d="M0 0H100V100H0z" transform="translate(56 56) matrix(.28 0 0 .28 980 1008)"/><path d="M0 0H100V100H0z" transform="translate(56 56) matrix(.28 0 0 .28 1008 1008)"/><g transform="translate(56 56) scale(1.96)"><path fill="none" d="M15 15H85V85H15z"/><path d="M85 0H0v100h100V0H85zm0 85H15V15h70v70z"/></g><g transform="translate(56 56) translate(840) scale(1.96)"><path fill="none" d="M15 15H85V85H15z"/><path d="M85 0H0v100h100V0H85zm0 85H15V15h70v70z"/></g><g transform="translate(56 56) matrix(1.96 0 0 1.96 0 840)"><path fill="none" d="M15 15H85V85H15z"/><path d="M85 0H0v100h100V0H85zm0 85H15V15h70v70z"/></g><path d="M0 0H100V100H0z" transform="translate(56 56) matrix(.84 0 0 .84 56 56)"/><path d="M0 0H100V100H0z" transform="translate(56 56) matrix(.84 0 0 .84 896 56)"/><path d="M0 0H100V100H0z" transform="translate(56 56) matrix(.84 0 0 .84 56 896)"/></svg>