<svg xmlns="http://www.w3.org/2000/svg" fill="none" viewBox="0 0 53 54"><mask id="a" width="53" height="54" x="0" y="0" maskUnits="userSpaceOnUse" style="mask-type:alpha"><path fill="#D9D9D9" d="M.231.783H52.916000000000004V53.468H.231z"/></mask><g mask="url(#a)"><path fill="#fff" d="M24.923 43.73V28.06l-13.72-7.945v15.29c0 .113.028.218.084.317.056.098.14.183.253.253l13.383 7.755zm3.293 0 13.382-7.755a.727.727 0 0 0 .253-.253.628.628 0 0 0 .085-.317v-15.29l-13.72 7.945v15.67zm-1.647-18.507 13.556-7.835-13.218-7.646a.633.633 0 0 0-.338-.105.633.633 0 0 0-.338.105l-13.217 7.646 13.555 7.835zM9.894 38.867a3.909 3.909 0 0 1-1.46-1.444 3.886 3.886 0 0 1-.524-1.984v-16.65c0-.72.174-1.382.523-1.984a3.909 3.909 0 0 1 1.461-1.444l14.691-8.455a3.911 3.911 0 0 1 3.968 0l14.691 8.455a3.91 3.91 0 0 1 1.46 1.444c.35.602.524 1.264.524 1.984v16.65c0 .72-.174 1.382-.523 1.984a3.91 3.91 0 0 1-1.46 1.444l-14.692 8.456a3.911 3.911 0 0 1-3.968 0L9.894 38.867z"/></g></svg>