<svg xmlns="http://www.w3.org/2000/svg" fill="none" viewBox="0 0 74 117"><g clip-path="url(#a)"><rect width="72.945" height="158.104" x=".852" y=".919" fill="#F2F1F6" rx="5.089"/><path stroke="#000" stroke-width=".179" d="M62.205 4.062h2.903a.59.59 0 0 1 .59.59v.847a.59.59 0 0 1-.59.59h-2.904a.59.59 0 0 1-.589-.59v-.848a.59.59 0 0 1 .59-.589z" opacity=".35"/><path fill="#000" d="M65.957 4.821v.716a.388.388 0 0 0 0-.716" opacity=".4"/><path fill="#000" d="M61.867 4.65a.34.34 0 0 1 .34-.338h2.9a.34.34 0 0 1 .339.339v.848a.34.34 0 0 1-.34.34h-2.9a.34.34 0 0 1-.34-.34v-.848z"/><path fill="#000" fill-rule="evenodd" d="M58.885 4.582c.42 0 .824.164 1.129.458.023.023.06.022.082 0l.22-.226a.062.062 0 0 0-.001-.087 2.044 2.044 0 0 0-2.861 0 .062.062 0 0 0 0 .087l.219.225a.056.056 0 0 0 .082 0 1.625 1.625 0 0 1 1.13-.457zm.006.692c.23 0 .453.087.625.245.023.022.06.022.082-.001l.219-.225a.062.062 0 0 0-.001-.089 1.343 1.343 0 0 0-1.85 0 .062.062 0 0 0-.019.044c0 .017.006.033.018.045l.219.225a.058.058 0 0 0 .082 0 .923.923 0 0 1 .625-.244zm.445.453a.06.06 0 0 1-.018.045l-.379.388a.059.059 0 0 1-.084 0l-.38-.388a.06.06 0 0 1 .003-.088.641.641 0 0 1 .838 0 .06.06 0 0 1 .02.043z" clip-rule="evenodd"/><path fill="#000" d="M54.709 4.652a.17.17 0 0 1 .17-.17h.17a.17.17 0 0 1 .171.17v1.357a.17.17 0 0 1-.17.17h-.17a.17.17 0 0 1-.171-.17V4.652zm.852-.34a.17.17 0 0 1 .17-.17h.17a.17.17 0 0 1 .171.17V6.01a.17.17 0 0 1-.17.17h-.17a.17.17 0 0 1-.171-.17V4.312zm-1.704.933a.17.17 0 0 1 .17-.17h.17a.17.17 0 0 1 .171.17v.764a.17.17 0 0 1-.17.17h-.17a.17.17 0 0 1-.171-.17v-.764zm-.852.425a.17.17 0 0 1 .17-.17h.17a.17.17 0 0 1 .17.17v.339a.17.17 0 0 1-.17.17h-.17a.17.17 0 0 1-.17-.17v-.34z"/><rect width="15.85" height="4.071" x="29.485" y="3.124" fill="#000" rx="2.036"/><path fill="#000" d="M10.658 5.785V5.54l.668-.681c.276-.28.353-.382.353-.538v-.005c0-.187-.128-.322-.34-.322-.215 0-.36.142-.36.352l-.001.006-.338-.002-.002-.004c0-.379.296-.643.72-.643.396 0 .68.24.68.582v.005c0 .23-.111.414-.481.77l-.407.394v.03h.92v.301h-1.412zm2.007-1.316a.22.22 0 0 1-.224-.223c0-.125.095-.222.224-.222.13 0 .224.097.224.222a.219.219 0 0 1-.224.223zm0 1.044a.219.219 0 0 1-.224-.222.22.22 0 0 1 .224-.223c.13 0 .224.098.224.223a.218.218 0 0 1-.224.222zm1.115.272V4.111h-.024l-.506.358v-.343l.531-.373h.362v2.032h-.363zm1.594.041c-.446 0-.737-.242-.764-.59l-.001-.017h.346l.002.016c.02.171.178.294.416.294.236 0 .392-.131.392-.32v-.003c0-.214-.158-.332-.418-.332h-.24v-.27h.233c.224 0 .373-.127.373-.304v-.003c0-.186-.125-.296-.342-.296-.214 0-.362.114-.38.296l-.002.014h-.338l.002-.016c.03-.352.308-.583.718-.583.418 0 .69.219.69.537v.003c0 .252-.182.42-.426.47v.007c.299.028.498.206.498.487v.003c0 .358-.309.607-.76.607z"/><path fill="#007BFF" d="M5.645 14.09c0-.042.015-.08.046-.11l1.314-1.286a.147.147 0 0 1 .107-.043c.087 0 .153.065.153.15 0 .042-.018.08-.045.108l-1.206 1.18 1.206 1.18a.156.156 0 0 1 .045.107.149.149 0 0 1-.153.151.143.143 0 0 1-.107-.045L5.69 14.198a.15.15 0 0 1-.046-.109zm4.377 1.195v-2.39h.906c.41 0 .686.238.686.596v.003c0 .247-.186.487-.433.522v.007c.345.04.554.271.554.588v.003c0 .421-.302.671-.81.671h-.903zm.838-2.127h-.54v.767h.447c.353 0 .545-.14.545-.4v-.002c0-.236-.164-.365-.452-.365zm-.008 1.024h-.532v.84h.56c.358 0 .548-.144.548-.42V14.6c0-.276-.195-.417-.576-.417zm1.68 1.136c-.343 0-.574-.207-.574-.52v-.003c0-.293.229-.477.625-.5l.493-.029v-.144c0-.21-.137-.338-.377-.338-.222 0-.361.106-.394.26l-.004.015h-.278l.002-.018c.024-.283.271-.512.677-.512.408 0 .663.22.663.565v1.191h-.289v-.28h-.006a.61.61 0 0 1-.539.313zm-.279-.52c0 .166.136.27.343.27.272 0 .48-.187.48-.437v-.141l-.46.028c-.23.013-.363.116-.363.277v.003zm2.192.52c-.489 0-.799-.348-.799-.896v-.002c0-.543.317-.89.796-.89.429 0 .682.284.719.579l.001.013h-.281l-.004-.013c-.043-.172-.182-.325-.435-.325-.3 0-.5.249-.5.64v.001c0 .401.205.638.503.638.235 0 .386-.132.434-.325l.003-.013h.284l-.002.012c-.046.328-.33.581-.72.581zm1.009-.033v-2.39h.288v1.428h.007l.755-.76h.35l-.747.743.77.98h-.335l-.64-.804-.16.154v.65h-.288z"/><path fill="#000" d="M32.725 14.2a.244.244 0 0 0-.099-.181.393.393 0 0 0-.238-.065.454.454 0 0 0-.172.03.242.242 0 0 0-.108.077.187.187 0 0 0-.037.114.162.162 0 0 0 .022.093c.017.026.04.049.069.068a.52.52 0 0 0 .1.05c.038.013.078.024.121.034l.178.042c.086.02.165.045.237.078a.72.72 0 0 1 .187.118.493.493 0 0 1 .168.385.55.55 0 0 1-.093.314.587.587 0 0 1-.262.205 1.059 1.059 0 0 1-.412.072c-.16 0-.298-.024-.416-.073a.61.61 0 0 1-.276-.217.648.648 0 0 1-.103-.357h.404a.303.303 0 0 0 .057.165c.034.044.08.077.136.1a.538.538 0 0 0 .193.032.51.51 0 0 0 .184-.03.283.283 0 0 0 .123-.086.198.198 0 0 0 .043-.126.164.164 0 0 0-.04-.112.3.3 0 0 0-.113-.077c-.05-.021-.11-.04-.182-.058l-.215-.054a.902.902 0 0 1-.394-.19.44.44 0 0 1-.144-.348.52.52 0 0 1 .095-.313.644.644 0 0 1 .267-.21.941.941 0 0 1 .386-.075.91.91 0 0 1 .384.076c.11.05.195.12.256.209.061.09.093.193.095.31h-.4zm1.51 1.435a.79.79 0 0 1-.392-.092.633.633 0 0 1-.253-.264.873.873 0 0 1-.089-.406c0-.152.03-.286.09-.401a.655.655 0 0 1 .249-.269.728.728 0 0 1 .38-.096c.097 0 .188.015.272.047a.605.605 0 0 1 .37.375.933.933 0 0 1 .053.33v.112h-1.25v-.254h.864a.314.314 0 0 0-.039-.157.276.276 0 0 0-.107-.107.306.306 0 0 0-.157-.04.315.315 0 0 0-.277.158.324.324 0 0 0-.042.16v.241c0 .074.014.137.04.19a.296.296 0 0 0 .117.123c.05.03.11.044.179.044a.39.39 0 0 0 .125-.02.25.25 0 0 0 .159-.152l.38.025a.518.518 0 0 1-.119.24.596.596 0 0 1-.23.157.866.866 0 0 1-.322.056zm1.872-1.509v.308h-.892v-.308h.892zm-.69-.355h.411v1.38c0 .038.006.068.017.09.012.02.028.034.049.043a.2.2 0 0 0 .073.012.351.351 0 0 0 .102-.013l.065.305a.894.894 0 0 1-.087.022.694.694 0 0 1-.136.017.625.625 0 0 1-.26-.04.363.363 0 0 1-.173-.14.43.43 0 0 1-.06-.241V13.77zm1.88.355v.308h-.891v-.308h.891zm-.689-.355h.41v1.38c0 .038.007.068.018.09.012.02.028.034.048.043a.2.2 0 0 0 .073.012.353.353 0 0 0 .103-.013l.064.305a.824.824 0 0 1-.087.022.694.694 0 0 1-.135.017.625.625 0 0 1-.26-.04.363.363 0 0 1-.173-.14.43.43 0 0 1-.06-.241V13.77zm1.092 1.835v-1.48h.411v1.48h-.41zm.207-1.67a.223.223 0 0 1-.157-.062.197.197 0 0 1-.065-.147c0-.057.021-.105.065-.146a.22.22 0 0 1 .157-.061c.06 0 .113.02.156.061.043.04.065.09.065.146a.196.196 0 0 1-.065.147.22.22 0 0 1-.156.061zm1.08.815v.855h-.411v-1.48h.391v.261h.017a.413.413 0 0 1 .165-.204.5.5 0 0 1 .28-.076c.103 0 .193.022.27.067a.46.46 0 0 1 .178.193.645.645 0 0 1 .063.297v.942h-.41v-.869a.298.298 0 0 0-.07-.212.25.25 0 0 0-.193-.077.295.295 0 0 0-.147.035.25.25 0 0 0-.098.105.362.362 0 0 0-.036.163zm2.08 1.441a.951.951 0 0 1-.342-.055.568.568 0 0 1-.226-.147.454.454 0 0 1-.109-.21l.38-.051a.249.249 0 0 0 .154.144.425.425 0 0 0 .152.025c.09 0 .163-.022.221-.066.059-.043.088-.115.088-.217v-.27h-.017a.391.391 0 0 1-.22.205.533.533 0 0 1-.203.035.552.552 0 0 1-.52-.315.911.911 0 0 1-.08-.407c0-.167.027-.307.082-.42a.588.588 0 0 1 .218-.252.563.563 0 0 1 .508-.042c.056.028.1.062.135.104a.555.555 0 0 1 .08.122h.015v-.249h.408v1.495a.521.521 0 0 1-.093.316.556.556 0 0 1-.256.19 1.013 1.013 0 0 1-.375.066zm.008-.915a.28.28 0 0 0 .168-.05.312.312 0 0 0 .106-.142.598.598 0 0 0 .038-.224.63.63 0 0 0-.037-.225.33.33 0 0 0-.106-.15.27.27 0 0 0-.169-.053.266.266 0 0 0-.17.055.33.33 0 0 0-.105.15.64.64 0 0 0-.036.223c0 .086.012.16.036.222.024.062.06.11.105.144.046.033.103.05.17.05zm2.41-.729-.376.023a.194.194 0 0 0-.041-.086.22.22 0 0 0-.084-.063.284.284 0 0 0-.123-.024.302.302 0 0 0-.16.04c-.044.027-.066.062-.066.106 0 .036.014.066.042.09a.337.337 0 0 0 .146.059l.268.054c.144.03.251.077.322.142a.34.34 0 0 1 .106.259.403.403 0 0 1-.086.255.557.557 0 0 1-.233.172.888.888 0 0 1-.34.06c-.197 0-.353-.04-.47-.122a.477.477 0 0 1-.202-.335l.403-.022c.013.06.042.106.09.137a.316.316 0 0 0 .18.046c.071 0 .13-.013.173-.041.044-.028.067-.065.067-.109a.113.113 0 0 0-.047-.091.34.34 0 0 0-.143-.056l-.256-.051a.615.615 0 0 1-.323-.15.373.373 0 0 1-.105-.274c0-.095.026-.177.077-.245a.496.496 0 0 1 .219-.16.9.9 0 0 1 .332-.055c.187 0 .334.04.441.118.108.08.17.187.189.323zM10.223 40.555c-.482 0-.913-.09-1.294-.27a2.307 2.307 0 0 1-.907-.753 1.99 1.99 0 0 1-.354-1.091h1.301c.024.303.156.552.394.744.239.19.525.286.86.286.263 0 .497-.06.702-.18.204-.121.366-.289.484-.503.118-.215.176-.46.173-.734a1.48 1.48 0 0 0-.177-.745 1.324 1.324 0 0 0-.495-.51 1.382 1.382 0 0 0-.723-.187 1.723 1.723 0 0 0-.654.123 1.339 1.339 0 0 0-.51.332l-1.21-.199.386-3.816h4.294v1.12H9.31l-.213 1.963h.043a1.53 1.53 0 0 1 .582-.401 2.04 2.04 0 0 1 .824-.163c.448 0 .848.106 1.2.318.352.21.629.499.831.867.203.37.304.79.304 1.266 0 .489-.113.925-.34 1.308-.224.38-.536.68-.936.9-.397.217-.858.325-1.38.325zm10.15-7.503 1.63 2.71h.058l1.637-2.71h1.53l-2.282 3.7 2.317 3.702H23.71l-1.648-2.693h-.058l-1.648 2.693h-1.547l2.338-3.701-2.31-3.701h1.537zm13.555 7.503c-.537 0-1.014-.09-1.431-.27-.415-.181-.74-.428-.976-.742a1.74 1.74 0 0 1-.347-1.073 1.774 1.774 0 0 1 .202-.857 1.91 1.91 0 0 1 .557-.65c.236-.176.499-.288.788-.337v-.05a1.566 1.566 0 0 1-.925-.582 1.679 1.679 0 0 1-.348-1.06c-.002-.38.104-.72.319-1.018a2.17 2.17 0 0 1 .881-.705 3 3 0 0 1 1.28-.26c.475 0 .898.086 1.269.26.373.17.667.406.882.705.216.298.325.638.325 1.019 0 .4-.12.753-.358 1.059a1.562 1.562 0 0 1-.914.582v.05c.289.049.549.16.78.337.234.173.42.39.557.65.14.26.21.546.21.857 0 .4-.118.758-.355 1.073-.236.313-.561.56-.975.741-.412.18-.886.271-1.421.271zm0-1.033c.277 0 .518-.047.723-.141.205-.097.364-.232.477-.405.113-.174.171-.374.173-.6a1.122 1.122 0 0 0-.184-.625 1.211 1.211 0 0 0-.488-.43 1.532 1.532 0 0 0-.701-.156c-.265 0-.501.052-.708.155a1.238 1.238 0 0 0-.492.43c-.118.181-.176.39-.174.626-.002.226.053.426.167.6.113.17.272.305.477.401.207.096.45.145.73.145zm0-3.373c.227 0 .427-.046.6-.137a1.046 1.046 0 0 0 .571-.95 1.056 1.056 0 0 0-.152-.557.979.979 0 0 0-.412-.373 1.325 1.325 0 0 0-.607-.133c-.234 0-.44.044-.618.133a.979.979 0 0 0-.412.373 1.03 1.03 0 0 0-.141.556c-.002.215.046.404.145.568.1.161.24.289.415.383.178.091.382.137.611.137zm11.598-3.199c.354.003.699.066 1.034.188.337.12.64.319.91.593.27.273.485.637.644 1.095.159.458.239 1.024.239 1.7a6.375 6.375 0 0 1-.203 1.705 3.79 3.79 0 0 1-.582 1.265 2.57 2.57 0 0 1-.914.788c-.357.18-.758.271-1.204.271-.467 0-.882-.091-1.243-.274a2.335 2.335 0 0 1-1.28-1.844h1.32c.067.294.204.528.411.701.21.172.474.257.792.257.513 0 .908-.223 1.186-.669.277-.445.415-1.065.415-1.858h-.05a1.9 1.9 0 0 1-.46.55 2.088 2.088 0 0 1-.64.35 2.276 2.276 0 0 1-.75.123 2.24 2.24 0 0 1-1.172-.31 2.27 2.27 0 0 1-.82-.853 2.546 2.546 0 0 1-.304-1.24c0-.482.11-.915.332-1.298.224-.385.537-.689.937-.91.4-.225.867-.334 1.402-.33zm.004 1.085c-.26 0-.496.064-.705.191a1.36 1.36 0 0 0-.492.514 1.466 1.466 0 0 0-.177.719c.002.262.062.501.177.716.118.214.279.384.48.51.206.124.44.187.702.187a1.333 1.333 0 0 0 .987-.423 1.47 1.47 0 0 0 .296-.459 1.31 1.31 0 0 0 .105-.542c0-.253-.06-.487-.18-.701a1.396 1.396 0 0 0-.489-.517 1.286 1.286 0 0 0-.704-.195zm11.826 6.52a3.126 3.126 0 0 1-1.037-.184 2.44 2.44 0 0 1-.911-.596c-.27-.277-.484-.645-.643-1.103-.16-.46-.238-1.03-.235-1.71 0-.633.067-1.198.202-1.695a3.75 3.75 0 0 1 .582-1.258 2.58 2.58 0 0 1 .914-.788c.36-.18.76-.27 1.204-.27.465 0 .877.091 1.236.274.362.183.653.434.875.752.222.316.359.672.412 1.07h-1.32a1.198 1.198 0 0 0-.415-.68c-.207-.17-.47-.256-.788-.256-.513 0-.908.223-1.186.668-.274.446-.413 1.058-.415 1.836h.05c.118-.212.272-.394.46-.545a2.1 2.1 0 0 1 .636-.35c.238-.085.49-.127.755-.127a2.22 2.22 0 0 1 1.992 1.167c.202.362.302.776.3 1.244.002.486-.109.924-.333 1.312a2.41 2.41 0 0 1-.936.91c-.4.222-.866.332-1.399.33zm-.007-1.084c.263 0 .498-.064.705-.192.207-.127.37-.3.491-.517.12-.216.18-.46.177-.73a1.438 1.438 0 0 0-.173-.719 1.322 1.322 0 0 0-.48-.51 1.316 1.316 0 0 0-.702-.188 1.333 1.333 0 0 0-.987.423 1.458 1.458 0 0 0-.224 1.717c.118.217.28.39.488.52.207.13.442.196.705.196zM5.502 24.32h.274l.547.921h.023l.548-.921h.274l-.714 1.16v.814h-.239v-.814l-.713-1.16zm2.336 2.005a.646.646 0 0 1-.352-.096.648.648 0 0 1-.235-.267.903.903 0 0 1-.084-.4c0-.155.028-.29.084-.404a.647.647 0 0 1 .235-.268.646.646 0 0 1 .352-.096.64.64 0 0 1 .35.096c.102.063.18.152.236.268.057.115.085.25.085.403a.895.895 0 0 1-.085.401.64.64 0 0 1-.235.267.64.64 0 0 1-.351.096zm0-.204a.39.39 0 0 0 .25-.079.46.46 0 0 0 .146-.205.786.786 0 0 0 .047-.276.794.794 0 0 0-.047-.276.465.465 0 0 0-.145-.207.387.387 0 0 0-.251-.08.387.387 0 0 0-.25.08.465.465 0 0 0-.146.207.794.794 0 0 0-.047.276c0 .1.015.191.047.276a.46.46 0 0 0 .145.205.39.39 0 0 0 .251.078zm1.951-.432v-.875h.228v1.48h-.228v-.25h-.015a.485.485 0 0 1-.162.191.467.467 0 0 1-.278.078.494.494 0 0 1-.247-.06.425.425 0 0 1-.17-.186.703.703 0 0 1-.061-.313v-.94h.228v.925c0 .108.03.194.09.258a.308.308 0 0 0 .233.096.387.387 0 0 0 .382-.404zm.644.605v-1.48h.22v.223h.015a.356.356 0 0 1 .147-.178.43.43 0 0 1 .239-.069 2.28 2.28 0 0 1 .12.004v.232a.71.71 0 0 0-.14-.016.403.403 0 0 0-.192.045.332.332 0 0 0-.181.302v.937h-.228zm1.773.555v-2.035h.22v.235h.027a1.91 1.91 0 0 1 .07-.099.406.406 0 0 1 .129-.108.464.464 0 0 1 .23-.048.587.587 0 0 1 .551.359.95.95 0 0 1 .08.405.962.962 0 0 1-.08.407.58.58 0 0 1-.548.36.475.475 0 0 1-.229-.047.425.425 0 0 1-.132-.11 1.462 1.462 0 0 1-.07-.101h-.02v.782h-.228zm.224-1.295c0 .112.016.21.05.296.032.084.08.15.143.2.063.047.14.07.231.07a.373.373 0 0 0 .238-.075.46.46 0 0 0 .145-.204.801.801 0 0 0 .049-.287.78.78 0 0 0-.048-.282.435.435 0 0 0-.144-.2.38.38 0 0 0-.24-.073.38.38 0 0 0-.376.265.8.8 0 0 0-.048.29zm1.866.775a.601.601 0 0 1-.255-.053.44.44 0 0 1-.183-.155.438.438 0 0 1-.067-.247.38.38 0 0 1 .05-.207.354.354 0 0 1 .134-.125.701.701 0 0 1 .185-.067c.068-.016.137-.028.206-.037l.218-.026a.336.336 0 0 0 .124-.032c.026-.015.04-.04.04-.077v-.008a.302.302 0 0 0-.079-.221c-.051-.053-.13-.08-.234-.08a.409.409 0 0 0-.256.072.422.422 0 0 0-.13.152l-.216-.077a.52.52 0 0 1 .367-.316.883.883 0 0 1 .227-.03c.048 0 .102.005.164.016a.527.527 0 0 1 .18.069.403.403 0 0 1 .146.157c.038.07.058.164.058.282v.975h-.228v-.2h-.011a.446.446 0 0 1-.22.197.554.554 0 0 1-.22.038zm.035-.205a.44.44 0 0 0 .227-.053.36.36 0 0 0 .19-.313v-.208a.155.155 0 0 1-.064.032 1.08 1.08 0 0 1-.112.024 4.497 4.497 0 0 1-.218.029.865.865 0 0 0-.166.037.286.286 0 0 0-.123.076.194.194 0 0 0-.046.137c0 .08.029.14.087.18.06.04.134.06.225.06zm1.059.17v-1.48h.22v.223h.015a.355.355 0 0 1 .146-.178.43.43 0 0 1 .24-.069 2.293 2.293 0 0 1 .12.004v.232a.716.716 0 0 0-.14-.016.403.403 0 0 0-.192.045.332.332 0 0 0-.181.302v.937h-.228zm1.01 0v-1.48h.227v1.48H16.4zm.115-1.727a.162.162 0 0 1-.114-.046.146.146 0 0 1-.048-.108c0-.043.016-.08.048-.11a.162.162 0 0 1 .114-.045c.045 0 .083.015.114.046.032.03.048.066.048.109a.144.144 0 0 1-.048.108.158.158 0 0 1-.114.046zm.756.836v.89h-.227v-1.48h.22v.232h.019a.423.423 0 0 1 .158-.181.491.491 0 0 1 .274-.07c.1 0 .188.02.263.062.075.04.133.102.175.185a.687.687 0 0 1 .063.312v.94h-.228v-.924a.384.384 0 0 0-.09-.272.322.322 0 0 0-.249-.099.398.398 0 0 0-.195.048.339.339 0 0 0-.134.138.456.456 0 0 0-.049.22zm1.958 1.477a.846.846 0 0 1-.283-.042.603.603 0 0 1-.322-.255l.181-.127c.02.027.047.058.078.092a.396.396 0 0 0 .13.092c.054.026.127.04.216.04.12 0 .218-.03.296-.087.078-.058.117-.149.117-.272v-.3h-.02a1.22 1.22 0 0 1-.071.1.406.406 0 0 1-.131.105.49.49 0 0 1-.23.045.618.618 0 0 1-.321-.085.596.596 0 0 1-.225-.247.863.863 0 0 1-.082-.393c0-.152.027-.284.08-.396a.587.587 0 0 1 .552-.356c.097 0 .173.016.23.048a.41.41 0 0 1 .13.108c.032.04.056.073.072.099h.023v-.235h.22v1.522a.51.51 0 0 1-.087.31.494.494 0 0 1-.231.177.873.873 0 0 1-.322.057zm-.008-.813a.408.408 0 0 0 .232-.063.388.388 0 0 0 .143-.18.727.727 0 0 0 .05-.282c0-.107-.017-.2-.049-.282a.424.424 0 0 0-.142-.192.383.383 0 0 0-.234-.07.387.387 0 0 0-.384.27.76.76 0 0 0-.047.274.72.72 0 0 0 .048.273c.033.078.08.14.144.185a.411.411 0 0 0 .24.067zm2.43.258a.64.64 0 0 1-.36-.098.64.64 0 0 1-.23-.271.919.919 0 0 1-.081-.395c0-.15.027-.283.082-.398a.626.626 0 0 1 .584-.37c.105.001.198.02.282.059a.505.505 0 0 1 .305.405h-.228a.346.346 0 0 0-.355-.258.4.4 0 0 0-.233.069.452.452 0 0 0-.155.194.718.718 0 0 0-.055.292.76.76 0 0 0 .054.299c.037.084.088.15.154.197a.4.4 0 0 0 .235.07c.06 0 .113-.01.161-.03a.332.332 0 0 0 .194-.228h.228a.529.529 0 0 1-.295.402.644.644 0 0 1-.288.06zm1.515 0a.646.646 0 0 1-.351-.096.647.647 0 0 1-.236-.267.903.903 0 0 1-.083-.4c0-.155.028-.29.084-.404a.646.646 0 0 1 .235-.268.646.646 0 0 1 .351-.096.64.64 0 0 1 .351.096.63.63 0 0 1 .236.268c.056.115.084.25.084.403a.894.894 0 0 1-.084.401.64.64 0 0 1-.236.267.64.64 0 0 1-.35.096zm0-.204a.391.391 0 0 0 .251-.079.461.461 0 0 0 .146-.205.786.786 0 0 0 .047-.276.794.794 0 0 0-.047-.276.466.466 0 0 0-.146-.207.387.387 0 0 0-.25-.08.387.387 0 0 0-.251.08.465.465 0 0 0-.146.207.794.794 0 0 0-.047.276c0 .1.016.191.047.276a.46.46 0 0 0 .146.205.39.39 0 0 0 .25.078zm1.578.204a.58.58 0 0 1-.549-.36.961.961 0 0 1-.08-.407.95.95 0 0 1 .08-.405.587.587 0 0 1 .552-.358.405.405 0 0 1 .358.155c.03.04.054.073.07.099h.02v-.729h.227v1.974h-.22v-.227h-.027c-.016.026-.04.06-.07.102a.425.425 0 0 1-.133.109.475.475 0 0 1-.228.047zm.03-.204a.373.373 0 0 0 .232-.072.448.448 0 0 0 .143-.2.823.823 0 0 0 .05-.295.799.799 0 0 0-.049-.29.38.38 0 0 0-.376-.265.384.384 0 0 0-.24.074.445.445 0 0 0-.144.2.792.792 0 0 0-.047.28.82.82 0 0 0 .048.288.47.47 0 0 0 .144.204.38.38 0 0 0 .24.075zm1.717.204a.696.696 0 0 1-.37-.095.634.634 0 0 1-.237-.266.908.908 0 0 1-.083-.399.92.92 0 0 1 .083-.4.626.626 0 0 1 .584-.37.69.69 0 0 1 .228.038.566.566 0 0 1 .353.353.97.97 0 0 1 .055.348v.097h-1.141v-.197h.91a.484.484 0 0 0-.05-.223.376.376 0 0 0-.355-.212.408.408 0 0 0-.235.067.444.444 0 0 0-.152.174.51.51 0 0 0-.053.229v.131c0 .112.02.207.058.284a.43.43 0 0 0 .163.177c.07.04.15.06.242.06.06 0 .114-.009.162-.026a.349.349 0 0 0 .126-.077.351.351 0 0 0 .082-.129l.22.062a.488.488 0 0 1-.117.196.569.569 0 0 1-.202.132.75.75 0 0 1-.27.046zM5.91 52.65v1.973h-.238v-1.974h.239zm.677 1.082v.891h-.228v-1.48h.22v.23h.02a.423.423 0 0 1 .157-.18.491.491 0 0 1 .274-.07c.1 0 .188.02.263.062.075.04.134.102.176.185a.688.688 0 0 1 .062.312v.941h-.227v-.925a.384.384 0 0 0-.09-.272.322.322 0 0 0-.25-.098.398.398 0 0 0-.194.047.338.338 0 0 0-.134.138.455.455 0 0 0-.05.22zm1.36 1.446v-2.035h.22v.235h.027c.016-.026.04-.059.069-.099a.407.407 0 0 1 .13-.108.464.464 0 0 1 .229-.048.587.587 0 0 1 .552.359.95.95 0 0 1 .08.405.962.962 0 0 1-.08.407.58.58 0 0 1-.548.36.475.475 0 0 1-.229-.047.424.424 0 0 1-.132-.11 1.45 1.45 0 0 1-.071-.101h-.02v.782h-.227zm.223-1.295c0 .112.017.21.05.296a.45.45 0 0 0 .143.2c.063.047.14.07.232.07a.373.373 0 0 0 .238-.075.46.46 0 0 0 .144-.204.802.802 0 0 0 .05-.287.778.778 0 0 0-.049-.282.435.435 0 0 0-.143-.2.38.38 0 0 0-.24-.073.38.38 0 0 0-.376.265.8.8 0 0 0-.049.29zm2.364.135v-.875h.227v1.48h-.227v-.25h-.016a.486.486 0 0 1-.162.191.468.468 0 0 1-.277.078.494.494 0 0 1-.247-.06.425.425 0 0 1-.17-.185.703.703 0 0 1-.061-.314v-.94h.227v.925c0 .108.03.194.09.258a.308.308 0 0 0 .234.097.388.388 0 0 0 .382-.405zm1.288-.875v.192h-.767v-.192h.767zm-.544-.355h.228v1.41a.29.29 0 0 0 .028.145.14.14 0 0 0 .073.064.3.3 0 0 0 .095.016.399.399 0 0 0 .062-.004l.039-.008.046.204a.459.459 0 0 1-.17.027.458.458 0 0 1-.189-.041.375.375 0 0 1-.152-.126.362.362 0 0 1-.06-.214v-1.473zm1.796 2.39a.5.5 0 0 1-.166-.027l.058-.2a.44.44 0 0 0 .146.015.176.176 0 0 0 .113-.057.452.452 0 0 0 .092-.163l.042-.115-.547-1.488h.247l.408 1.18h.016l.408-1.18h.247l-.628 1.696a.642.642 0 0 1-.105.19.394.394 0 0 1-.146.113.45.45 0 0 1-.185.036zm1.913-.524a.646.646 0 0 1-.352-.096.647.647 0 0 1-.235-.267.903.903 0 0 1-.084-.4c0-.155.028-.29.084-.404a.646.646 0 0 1 .235-.268.646.646 0 0 1 .352-.096.64.64 0 0 1 .35.096c.101.063.18.153.236.268.056.115.085.25.085.404a.895.895 0 0 1-.085.4.64.64 0 0 1-.236.268.64.64 0 0 1-.35.095zm0-.204a.391.391 0 0 0 .25-.079.461.461 0 0 0 .146-.205.786.786 0 0 0 .047-.275.794.794 0 0 0-.047-.277.466.466 0 0 0-.146-.207.387.387 0 0 0-.25-.08.387.387 0 0 0-.25.08.465.465 0 0 0-.146.207.794.794 0 0 0-.048.277c0 .099.016.19.048.275a.46.46 0 0 0 .145.206.39.39 0 0 0 .25.078zm1.95-.432v-.875h.228v1.48h-.227v-.25h-.016a.485.485 0 0 1-.162.191.468.468 0 0 1-.277.078.494.494 0 0 1-.247-.06.425.425 0 0 1-.17-.185.703.703 0 0 1-.061-.314v-.94h.227v.925c0 .108.03.194.09.258a.308.308 0 0 0 .234.097.388.388 0 0 0 .382-.405zm.645.605v-1.48h.22v.223h.015a.355.355 0 0 1 .147-.178.43.43 0 0 1 .239-.069 2.28 2.28 0 0 1 .12.004v.232a.71.71 0 0 0-.14-.016.403.403 0 0 0-.192.046.332.332 0 0 0-.181.302v.936h-.228zm1.773.555v-2.035h.22v.235h.027a1.91 1.91 0 0 1 .07-.099.406.406 0 0 1 .128-.108.464.464 0 0 1 .23-.048.587.587 0 0 1 .552.359.95.95 0 0 1 .08.405.961.961 0 0 1-.08.407.58.58 0 0 1-.548.36.474.474 0 0 1-.229-.047.425.425 0 0 1-.132-.11 1.462 1.462 0 0 1-.071-.101h-.02v.782h-.227zm.224-1.295c0 .112.016.21.049.296.033.084.08.151.143.2.063.047.14.07.232.07a.373.373 0 0 0 .238-.075.46.46 0 0 0 .145-.204.801.801 0 0 0 .049-.287.78.78 0 0 0-.048-.282.435.435 0 0 0-.144-.2.38.38 0 0 0-.24-.073.38.38 0 0 0-.376.265.8.8 0 0 0-.048.29zm1.866.775a.6.6 0 0 1-.256-.053.439.439 0 0 1-.182-.155.438.438 0 0 1-.067-.247.38.38 0 0 1 .05-.207.355.355 0 0 1 .134-.125.701.701 0 0 1 .185-.067c.068-.016.136-.028.205-.037l.219-.026a.337.337 0 0 0 .123-.032c.027-.015.04-.04.04-.077v-.008a.302.302 0 0 0-.078-.221c-.052-.053-.13-.08-.234-.08a.409.409 0 0 0-.256.072.422.422 0 0 0-.13.152l-.216-.077a.52.52 0 0 1 .366-.316.883.883 0 0 1 .228-.03.87.87 0 0 1 .164.017.526.526 0 0 1 .18.068.402.402 0 0 1 .145.157.57.57 0 0 1 .058.282v.975h-.227v-.2h-.012a.446.446 0 0 1-.22.197.554.554 0 0 1-.22.038zm.035-.205c.09 0 .165-.017.227-.053a.36.36 0 0 0 .189-.313v-.208c-.01.012-.031.022-.064.032-.032.009-.07.017-.112.024a4.92 4.92 0 0 1-.217.029.865.865 0 0 0-.166.037.285.285 0 0 0-.123.077.194.194 0 0 0-.047.136c0 .08.03.14.088.18.059.04.134.06.225.06zm1.058.17v-1.48h.22v.223h.016a.355.355 0 0 1 .146-.178.43.43 0 0 1 .24-.069 2.286 2.286 0 0 1 .119.004v.232a.71.71 0 0 0-.139-.016.403.403 0 0 0-.193.046.332.332 0 0 0-.181.302v.936h-.227zm1.01 0v-1.48h.228v1.48h-.228zm.116-1.727a.162.162 0 0 1-.115-.046.146.146 0 0 1-.047-.108c0-.043.016-.08.047-.11a.162.162 0 0 1 .115-.045c.044 0 .082.015.114.046.032.03.048.066.048.109a.144.144 0 0 1-.048.108.158.158 0 0 1-.114.046zm.756.836v.891h-.228v-1.48h.22v.23h.02a.423.423 0 0 1 .158-.18.491.491 0 0 1 .273-.07c.1 0 .188.02.264.062.075.04.133.102.175.185a.687.687 0 0 1 .063.312v.941h-.228v-.925a.384.384 0 0 0-.09-.272.322.322 0 0 0-.25-.098.398.398 0 0 0-.194.047.339.339 0 0 0-.134.138.456.456 0 0 0-.049.22zm1.958 1.477a.846.846 0 0 1-.284-.042.602.602 0 0 1-.322-.255l.182-.127c.02.027.046.058.078.093a.396.396 0 0 0 .129.091.51.51 0 0 0 .217.04c.12 0 .218-.03.296-.087.078-.058.116-.149.116-.272v-.3h-.019a1.24 1.24 0 0 1-.071.1.405.405 0 0 1-.131.105.49.49 0 0 1-.23.045.618.618 0 0 1-.322-.085.595.595 0 0 1-.224-.247.862.862 0 0 1-.082-.393c0-.152.027-.284.08-.396a.587.587 0 0 1 .552-.356.46.46 0 0 1 .23.049c.057.031.1.067.13.107.032.04.055.073.072.099h.023v-.235h.22v1.523c0 .127-.03.23-.087.31a.494.494 0 0 1-.231.176.873.873 0 0 1-.322.057zm-.008-.813a.407.407 0 0 0 .231-.063.39.39 0 0 0 .144-.18.73.73 0 0 0 .05-.282c0-.106-.017-.2-.049-.282a.424.424 0 0 0-.143-.192.384.384 0 0 0-.233-.07.387.387 0 0 0-.385.27.76.76 0 0 0-.047.274.72.72 0 0 0 .049.273.41.41 0 0 0 .144.185.411.411 0 0 0 .24.067zm2.429.258a.64.64 0 0 1-.358-.098.64.64 0 0 1-.232-.271.917.917 0 0 1-.08-.394.92.92 0 0 1 .082-.399.627.627 0 0 1 .584-.37c.104.001.198.02.282.06a.539.539 0 0 1 .205.161c.053.07.086.15.1.243h-.228a.346.346 0 0 0-.355-.258.4.4 0 0 0-.233.069.452.452 0 0 0-.155.194.718.718 0 0 0-.055.292c0 .114.018.214.054.299.036.084.088.15.154.197.067.047.145.07.235.07.06 0 .113-.01.161-.03a.332.332 0 0 0 .194-.228h.227a.526.526 0 0 1-.295.402.644.644 0 0 1-.287.06zm1.516 0a.646.646 0 0 1-.352-.096.647.647 0 0 1-.235-.267.903.903 0 0 1-.084-.4c0-.155.028-.29.084-.404a.646.646 0 0 1 .235-.268.646.646 0 0 1 .352-.096.64.64 0 0 1 .351.096c.1.063.18.153.235.268a.9.9 0 0 1 .085.404.894.894 0 0 1-.085.4.64.64 0 0 1-.235.268.64.64 0 0 1-.35.095zm0-.204a.39.39 0 0 0 .25-.079.46.46 0 0 0 .146-.205.786.786 0 0 0 .048-.275.794.794 0 0 0-.048-.277.465.465 0 0 0-.145-.207.387.387 0 0 0-.25-.08.387.387 0 0 0-.251.08.465.465 0 0 0-.146.207.796.796 0 0 0-.047.277c0 .099.016.19.047.275a.46.46 0 0 0 .146.206.39.39 0 0 0 .25.078zm1.577.204a.58.58 0 0 1-.548-.36.961.961 0 0 1-.08-.407.95.95 0 0 1 .08-.405.587.587 0 0 1 .552-.358.45.45 0 0 1 .229.048.39.39 0 0 1 .129.107c.03.04.053.073.07.099h.02v-.729h.227v1.974h-.22v-.227h-.027c-.017.027-.04.06-.071.102a.424.424 0 0 1-.132.109.474.474 0 0 1-.229.047zm.031-.204a.373.373 0 0 0 .232-.072.447.447 0 0 0 .143-.2.823.823 0 0 0 .05-.295.8.8 0 0 0-.049-.29.38.38 0 0 0-.376-.265.384.384 0 0 0-.24.074.445.445 0 0 0-.144.2.792.792 0 0 0-.048.28c0 .106.016.202.049.288a.47.47 0 0 0 .144.204c.064.05.144.076.24.076zm1.717.204a.696.696 0 0 1-.37-.095.634.634 0 0 1-.237-.266.907.907 0 0 1-.083-.399.92.92 0 0 1 .083-.4.627.627 0 0 1 .584-.37.69.69 0 0 1 .228.038.566.566 0 0 1 .353.353.97.97 0 0 1 .055.349v.096h-1.141v-.197h.91a.485.485 0 0 0-.05-.223.377.377 0 0 0-.355-.212.408.408 0 0 0-.235.067.444.444 0 0 0-.152.174.51.51 0 0 0-.053.229v.131c0 .112.02.207.058.284.04.078.093.136.163.177.07.04.15.06.242.06.06 0 .114-.009.162-.026a.348.348 0 0 0 .126-.077.351.351 0 0 0 .082-.129l.22.062a.486.486 0 0 1-.117.197.568.568 0 0 1-.202.13.75.75 0 0 1-.271.047zm2.324 0a.646.646 0 0 1-.352-.096.648.648 0 0 1-.235-.267.903.903 0 0 1-.084-.4c0-.155.028-.29.084-.404a.646.646 0 0 1 .235-.268.646.646 0 0 1 .352-.096.64.64 0 0 1 .35.096c.101.063.18.153.236.268.056.115.085.25.085.404a.895.895 0 0 1-.085.4.64.64 0 0 1-.235.268.64.64 0 0 1-.351.095zm0-.204a.391.391 0 0 0 .25-.079.461.461 0 0 0 .146-.205.786.786 0 0 0 .047-.275.794.794 0 0 0-.047-.277.466.466 0 0 0-.146-.207.387.387 0 0 0-.25-.08.387.387 0 0 0-.25.08.465.465 0 0 0-.146.207.794.794 0 0 0-.048.277c0 .099.016.19.047.275a.46.46 0 0 0 .146.206.39.39 0 0 0 .25.078zm1.245-.718v.891h-.227v-1.48h.22v.23h.019a.423.423 0 0 1 .158-.18.491.491 0 0 1 .274-.07c.1 0 .188.02.263.062.075.04.133.102.175.185a.687.687 0 0 1 .063.312v.941h-.228v-.925a.384.384 0 0 0-.09-.272.322.322 0 0 0-.249-.098.398.398 0 0 0-.195.047.338.338 0 0 0-.134.138.455.455 0 0 0-.049.22zm2.27 1.446a.5.5 0 0 1-.165-.027l.057-.2a.44.44 0 0 0 .147.015.176.176 0 0 0 .113-.057.452.452 0 0 0 .091-.163l.043-.115-.548-1.488h.247l.409 1.18h.015l.409-1.18h.246l-.628 1.696a.642.642 0 0 1-.105.19.392.392 0 0 1-.146.113.449.449 0 0 1-.185.036zm1.913-.524a.646.646 0 0 1-.352-.096.649.649 0 0 1-.235-.267.903.903 0 0 1-.084-.4c0-.155.028-.29.084-.404a.647.647 0 0 1 .235-.268.646.646 0 0 1 .352-.096.64.64 0 0 1 .351.096c.1.063.18.153.235.268a.9.9 0 0 1 .085.404.894.894 0 0 1-.085.4.639.639 0 0 1-.235.268.641.641 0 0 1-.35.095zm0-.204a.39.39 0 0 0 .25-.079.46.46 0 0 0 .146-.205.786.786 0 0 0 .048-.275.794.794 0 0 0-.048-.277.465.465 0 0 0-.145-.207.387.387 0 0 0-.25-.08.387.387 0 0 0-.252.08.466.466 0 0 0-.145.207.794.794 0 0 0-.047.277c0 .099.016.19.047.275.032.085.08.153.145.206a.4.4 0 0 0 .251.078zm1.951-.432v-.875h.228v1.48h-.228v-.25h-.015a.486.486 0 0 1-.162.191.468.468 0 0 1-.278.078.494.494 0 0 1-.246-.06.425.425 0 0 1-.17-.185.703.703 0 0 1-.062-.314v-.94h.228v.925c0 .108.03.194.09.258a.308.308 0 0 0 .233.097.388.388 0 0 0 .382-.405zm.644.605v-1.48h.22v.223h.015a.355.355 0 0 1 .147-.178.43.43 0 0 1 .239-.069 2.293 2.293 0 0 1 .12.004v.232a.716.716 0 0 0-.14-.016.403.403 0 0 0-.192.046.332.332 0 0 0-.181.302v.936h-.228zm1.774.555v-2.035h.22v.235h.026a2.1 2.1 0 0 1 .07-.099.407.407 0 0 1 .129-.108.464.464 0 0 1 .23-.048.587.587 0 0 1 .552.359.95.95 0 0 1 .08.405.962.962 0 0 1-.08.407.58.58 0 0 1-.548.36.475.475 0 0 1-.23-.047.423.423 0 0 1-.131-.11 1.435 1.435 0 0 1-.072-.101h-.019v.782h-.227zm.223-1.295c0 .112.017.21.05.296a.45.45 0 0 0 .143.2c.063.047.14.07.231.07a.373.373 0 0 0 .238-.075.46.46 0 0 0 .145-.204.801.801 0 0 0 .05-.287.78.78 0 0 0-.05-.282.435.435 0 0 0-.143-.2.38.38 0 0 0-.24-.073.38.38 0 0 0-.376.265.8.8 0 0 0-.048.29zm1.658-1.234v1.974h-.227v-1.974h.227zm1.35 1.369v-.875h.227v1.48h-.227v-.25h-.016a.486.486 0 0 1-.162.191.468.468 0 0 1-.277.078.494.494 0 0 1-.247-.06.424.424 0 0 1-.17-.185.702.702 0 0 1-.061-.314v-.94h.227v.925c0 .108.03.194.09.258a.308.308 0 0 0 .234.097.387.387 0 0 0 .382-.405zm1.241 1.191a.845.845 0 0 1-.283-.042.603.603 0 0 1-.322-.255l.181-.127c.02.027.047.058.078.093a.397.397 0 0 0 .13.091c.055.026.127.04.216.04.12 0 .219-.03.296-.087.078-.058.117-.149.117-.272v-.3h-.02a1.24 1.24 0 0 1-.07.1.405.405 0 0 1-.132.105.49.49 0 0 1-.23.045.618.618 0 0 1-.321-.085.595.595 0 0 1-.225-.247.863.863 0 0 1-.082-.393c0-.152.027-.284.08-.396a.587.587 0 0 1 .552-.356c.097 0 .173.016.23.049a.4.4 0 0 1 .131.107c.031.04.055.073.072.099h.023v-.235h.22v1.523c0 .127-.03.23-.087.31a.494.494 0 0 1-.232.176.873.873 0 0 1-.322.057zm-.007-.813a.41.41 0 0 0 .231-.063.389.389 0 0 0 .144-.18.727.727 0 0 0 .049-.282c0-.106-.016-.2-.048-.282a.424.424 0 0 0-.143-.192.384.384 0 0 0-.233-.07.387.387 0 0 0-.385.27.76.76 0 0 0-.047.274.72.72 0 0 0 .048.273.42.42 0 0 0 .145.185.412.412 0 0 0 .239.067zm1.064.227v-1.48h.227v1.48h-.227zm.115-1.727a.162.162 0 0 1-.114-.046.145.145 0 0 1-.047-.108c0-.043.015-.08.047-.11a.162.162 0 0 1 .114-.045c.045 0 .083.015.114.046.032.03.048.066.048.109a.144.144 0 0 1-.048.108.158.158 0 0 1-.114.046zm.756.836v.891h-.227v-1.48h.22v.23h.019a.423.423 0 0 1 .158-.18.491.491 0 0 1 .274-.07c.1 0 .188.02.263.062.075.04.133.102.175.185a.689.689 0 0 1 .063.312v.941h-.227v-.925a.383.383 0 0 0-.091-.272.321.321 0 0 0-.249-.098.398.398 0 0 0-.195.047.338.338 0 0 0-.133.138.455.455 0 0 0-.05.22z"/></g><rect width="72.799" height="157.958" x=".925" y=".992" stroke="#000" stroke-width=".146" rx="5.016"/><defs><clipPath id="a"><rect width="72.945" height="158.104" x=".852" y=".919" fill="#fff" rx="5.089"/></clipPath></defs></svg>