<svg xmlns="http://www.w3.org/2000/svg" fill="none" viewBox="0 0 24 25"><mask id="a" width="24" height="25" x="0" y="0" maskUnits="userSpaceOnUse" style="mask-type:alpha"><path fill="#D9D9D9" d="M0 .244h24v24H0z"/></mask><g mask="url(#a)"><path fill="#1C1B1F" d="M11.95 18.244c.35 0 .646-.12.888-.362.241-.242.362-.538.362-.888s-.12-.646-.362-.887a1.207 1.207 0 0 0-.888-.363c-.35 0-.646.121-.887.363a1.207 1.207 0 0 0-.363.887c0 .35.12.646.363.888.241.241.537.362.887.362zm-.9-3.85h1.85c0-.55.063-.983.188-1.3.125-.316.479-.75 1.062-1.3a7.494 7.494 0 0 0 1.025-1.237c.25-.392.375-.863.375-1.413 0-.933-.342-1.65-1.025-2.15-.683-.5-1.492-.75-2.425-.75-.95 0-1.72.25-2.313.75a3.97 3.97 0 0 0-1.237 1.8l1.65.65c.083-.3.27-.625.563-.975.291-.35.737-.525 1.337-.525.533 0 .933.146 1.2.438.267.291.4.612.4.962 0 .333-.1.646-.3.938-.2.291-.45.562-.75.812-.733.65-1.183 1.142-1.35 1.475-.167.333-.25.942-.25 1.825zm.95 7.85a9.738 9.738 0 0 1-3.9-.787 10.099 10.099 0 0 1-3.175-2.138c-.9-.9-1.612-1.958-2.137-3.175a9.737 9.737 0 0 1-.788-3.9 9.74 9.74 0 0 1 .788-3.9A10.099 10.099 0 0 1 4.925 5.17c.9-.9 1.958-1.612 3.175-2.137a9.738 9.738 0 0 1 3.9-.788 9.74 9.74 0 0 1 3.9.788 10.098 10.098 0 0 1 3.175 2.137c.9.9 1.613 1.958 2.137 3.175a9.737 9.737 0 0 1 .788 3.9 9.737 9.737 0 0 1-.788 3.9 10.098 10.098 0 0 1-2.137 3.175c-.9.9-1.958 1.613-3.175 2.138a9.738 9.738 0 0 1-3.9.787zm0-2c2.233 0 4.125-.775 5.675-2.325C19.225 16.37 20 14.477 20 12.244c0-2.233-.775-4.125-2.325-5.675-1.55-1.55-3.442-2.325-5.675-2.325-2.233 0-4.125.775-5.675 2.325C4.775 8.12 4 10.011 4 12.244c0 2.233.775 4.125 2.325 5.675 1.55 1.55 3.442 2.325 5.675 2.325z"/></g></svg>