<svg xmlns="http://www.w3.org/2000/svg" fill="none" viewBox="0 0 24 24"><mask id="a" width="24" height="24" x="0" y="0" maskUnits="userSpaceOnUse" style="mask-type:alpha"><path fill="#D9D9D9" d="M0 0H24V24H0z"/></mask><g mask="url(#a)"><path fill="#2478FF" d="m20.475 23.3-2.95-2.95c-.8.533-1.663.942-2.588 1.225A9.977 9.977 0 0 1 12 22a9.738 9.738 0 0 1-3.9-.788 10.099 10.099 0 0 1-3.175-2.137c-.9-.9-1.613-1.958-2.138-3.175A9.738 9.738 0 0 1 2 12c0-1.033.141-2.012.425-2.938A9.829 9.829 0 0 1 3.65 6.476L.675 3.5 2.1 2.075l19.8 19.8-1.425 1.425zM11 19.95V18c-.55 0-1.021-.196-1.413-.587A1.926 1.926 0 0 1 9 16v-1l-4.8-4.8c-.05.3-.096.6-.138.9-.041.3-.062.6-.062.9 0 2.017.662 3.783 1.987 5.3 1.325 1.517 2.996 2.4 5.013 2.65zm9.35-2.475-1.45-1.45c.35-.617.62-1.262.812-1.937.192-.675.288-1.371.288-2.088a7.845 7.845 0 0 0-1.363-4.475A7.701 7.701 0 0 0 15 4.6V5c0 .55-.196 1.02-.588 1.412A1.926 1.926 0 0 1 13 7h-2v1.125L6.525 3.65c.8-.517 1.658-.92 2.575-1.212A9.507 9.507 0 0 1 12 2c1.383 0 2.683.263 3.9.788a10.098 10.098 0 0 1 3.175 2.137c.9.9 1.612 1.958 2.137 3.175A9.738 9.738 0 0 1 22 12a9.506 9.506 0 0 1-.438 2.9 10.709 10.709 0 0 1-1.212 2.575z"/></g></svg>