<svg xmlns="http://www.w3.org/2000/svg" fill="none" viewBox="0 0 24 25"><mask id="a" width="24" height="25" x="0" y="0" maskUnits="userSpaceOnUse" style="mask-type:alpha"><path fill="#D9D9D9" d="M0 .244h24v24H0z"/></mask><g mask="url(#a)"><path fill="#1C1B1F" d="m9.692 21.744-.38-3.046a5.302 5.302 0 0 1-1.579-.896l-2.821 1.192-2.308-4 2.44-1.844a5.004 5.004 0 0 1-.049-.448 6.998 6.998 0 0 1 0-.882 7.08 7.08 0 0 1 .05-.482L2.603 9.494l2.308-3.98 2.811 1.182a6.4 6.4 0 0 1 .772-.524c.274-.158.543-.286.807-.382l.39-3.046h4.616l.38 3.056c.3.109.572.236.815.382.243.145.488.317.735.514l2.85-1.183 2.308 3.981-2.479 1.873c.036.162.056.313.059.453.003.14.005.282.005.424 0 .136-.004.274-.01.415-.006.14-.03.3-.07.481l2.46 1.854-2.307 4-2.816-1.202a6.5 6.5 0 0 1-.757.524 4.575 4.575 0 0 1-.793.372l-.38 3.056H9.692zm1.308-1.5h1.965l.36-2.679c.51-.133.977-.323 1.399-.568.422-.245.83-.561 1.222-.947l2.485 1.044.984-1.7-2.169-1.635c.084-.258.14-.512.17-.761a6.269 6.269 0 0 0 0-1.508 3.9 3.9 0 0 0-.17-.742l2.189-1.654-.985-1.7-2.513 1.06a5.322 5.322 0 0 0-1.203-.948 5.168 5.168 0 0 0-1.419-.583L13 4.244h-1.985l-.33 2.67a5.22 5.22 0 0 0-1.414.553c-.432.249-.844.57-1.236.962L5.55 7.394l-.985 1.7 2.16 1.61a3.646 3.646 0 0 0-.175.74 6.283 6.283 0 0 0 0 1.575c.033.25.088.497.165.74l-2.15 1.635.985 1.7 2.475-1.05a5.6 5.6 0 0 0 1.217.958c.432.248.91.44 1.433.573l.325 2.67zm1.011-5c.833 0 1.54-.292 2.125-.876a2.892 2.892 0 0 0 .876-2.124c0-.832-.293-1.54-.877-2.124a2.892 2.892 0 0 0-2.123-.876c-.843 0-1.553.292-2.132.876a2.905 2.905 0 0 0-.868 2.124c0 .832.289 1.54.868 2.124.579.584 1.29.876 2.131.876z"/></g></svg>